G04 #@! TF.GenerationSoftware,KiCad,Pcbnew,5.0.1*
G04 #@! TF.CreationDate,2019-01-03T14:35:23+01:00*
G04 #@! TF.ProjectId,e73-ab,6537332D61622E6B696361645F706362,rev?*
G04 #@! TF.SameCoordinates,Original*
G04 #@! TF.FileFunction,Paste,Top*
G04 #@! TF.FilePolarity,Positive*
%FSLAX46Y46*%
G04 Gerber Fmt 4.6, Leading zero omitted, Abs format (unit mm)*
G04 Created by KiCad (PCBNEW 5.0.1) date do 03 jan 2019 14:35:23 CET*
%MOMM*%
%LPD*%
G01*
G04 APERTURE LIST*
%ADD10R,1.800000X1.100000*%
%ADD11C,0.100000*%
%ADD12C,0.975000*%
%ADD13R,1.500000X0.500000*%
%ADD14R,0.500000X1.500000*%
%ADD15R,0.450000X1.300000*%
%ADD16R,0.800000X0.900000*%
G04 APERTURE END LIST*
D10*
G04 #@! TO.C,SW1*
X159785000Y-69390000D03*
X159785000Y-65690000D03*
X153485000Y-69390000D03*
X153485000Y-65690000D03*
G04 #@! TD*
D11*
G04 #@! TO.C,D2*
G36*
X145017642Y-58991174D02*
X145041303Y-58994684D01*
X145064507Y-59000496D01*
X145087029Y-59008554D01*
X145108653Y-59018782D01*
X145129170Y-59031079D01*
X145148383Y-59045329D01*
X145166107Y-59061393D01*
X145182171Y-59079117D01*
X145196421Y-59098330D01*
X145208718Y-59118847D01*
X145218946Y-59140471D01*
X145227004Y-59162993D01*
X145232816Y-59186197D01*
X145236326Y-59209858D01*
X145237500Y-59233750D01*
X145237500Y-60146250D01*
X145236326Y-60170142D01*
X145232816Y-60193803D01*
X145227004Y-60217007D01*
X145218946Y-60239529D01*
X145208718Y-60261153D01*
X145196421Y-60281670D01*
X145182171Y-60300883D01*
X145166107Y-60318607D01*
X145148383Y-60334671D01*
X145129170Y-60348921D01*
X145108653Y-60361218D01*
X145087029Y-60371446D01*
X145064507Y-60379504D01*
X145041303Y-60385316D01*
X145017642Y-60388826D01*
X144993750Y-60390000D01*
X144506250Y-60390000D01*
X144482358Y-60388826D01*
X144458697Y-60385316D01*
X144435493Y-60379504D01*
X144412971Y-60371446D01*
X144391347Y-60361218D01*
X144370830Y-60348921D01*
X144351617Y-60334671D01*
X144333893Y-60318607D01*
X144317829Y-60300883D01*
X144303579Y-60281670D01*
X144291282Y-60261153D01*
X144281054Y-60239529D01*
X144272996Y-60217007D01*
X144267184Y-60193803D01*
X144263674Y-60170142D01*
X144262500Y-60146250D01*
X144262500Y-59233750D01*
X144263674Y-59209858D01*
X144267184Y-59186197D01*
X144272996Y-59162993D01*
X144281054Y-59140471D01*
X144291282Y-59118847D01*
X144303579Y-59098330D01*
X144317829Y-59079117D01*
X144333893Y-59061393D01*
X144351617Y-59045329D01*
X144370830Y-59031079D01*
X144391347Y-59018782D01*
X144412971Y-59008554D01*
X144435493Y-59000496D01*
X144458697Y-58994684D01*
X144482358Y-58991174D01*
X144506250Y-58990000D01*
X144993750Y-58990000D01*
X145017642Y-58991174D01*
X145017642Y-58991174D01*
G37*
D12*
X144750000Y-59690000D03*
D11*
G36*
X143142642Y-58991174D02*
X143166303Y-58994684D01*
X143189507Y-59000496D01*
X143212029Y-59008554D01*
X143233653Y-59018782D01*
X143254170Y-59031079D01*
X143273383Y-59045329D01*
X143291107Y-59061393D01*
X143307171Y-59079117D01*
X143321421Y-59098330D01*
X143333718Y-59118847D01*
X143343946Y-59140471D01*
X143352004Y-59162993D01*
X143357816Y-59186197D01*
X143361326Y-59209858D01*
X143362500Y-59233750D01*
X143362500Y-60146250D01*
X143361326Y-60170142D01*
X143357816Y-60193803D01*
X143352004Y-60217007D01*
X143343946Y-60239529D01*
X143333718Y-60261153D01*
X143321421Y-60281670D01*
X143307171Y-60300883D01*
X143291107Y-60318607D01*
X143273383Y-60334671D01*
X143254170Y-60348921D01*
X143233653Y-60361218D01*
X143212029Y-60371446D01*
X143189507Y-60379504D01*
X143166303Y-60385316D01*
X143142642Y-60388826D01*
X143118750Y-60390000D01*
X142631250Y-60390000D01*
X142607358Y-60388826D01*
X142583697Y-60385316D01*
X142560493Y-60379504D01*
X142537971Y-60371446D01*
X142516347Y-60361218D01*
X142495830Y-60348921D01*
X142476617Y-60334671D01*
X142458893Y-60318607D01*
X142442829Y-60300883D01*
X142428579Y-60281670D01*
X142416282Y-60261153D01*
X142406054Y-60239529D01*
X142397996Y-60217007D01*
X142392184Y-60193803D01*
X142388674Y-60170142D01*
X142387500Y-60146250D01*
X142387500Y-59233750D01*
X142388674Y-59209858D01*
X142392184Y-59186197D01*
X142397996Y-59162993D01*
X142406054Y-59140471D01*
X142416282Y-59118847D01*
X142428579Y-59098330D01*
X142442829Y-59079117D01*
X142458893Y-59061393D01*
X142476617Y-59045329D01*
X142495830Y-59031079D01*
X142516347Y-59018782D01*
X142537971Y-59008554D01*
X142560493Y-59000496D01*
X142583697Y-58994684D01*
X142607358Y-58991174D01*
X142631250Y-58990000D01*
X143118750Y-58990000D01*
X143142642Y-58991174D01*
X143142642Y-58991174D01*
G37*
D12*
X142875000Y-59690000D03*
G04 #@! TD*
D13*
G04 #@! TO.C,U1*
X159740000Y-108430000D03*
X142240000Y-108430000D03*
X142240000Y-107160000D03*
X142240000Y-88110000D03*
X142240000Y-89380000D03*
X142240000Y-90650000D03*
X142240000Y-91920000D03*
X142240000Y-93190000D03*
X142240000Y-94460000D03*
X142240000Y-95730000D03*
X142240000Y-97000000D03*
X142240000Y-98270000D03*
X142240000Y-99540000D03*
X142240000Y-100810000D03*
X142240000Y-102080000D03*
X142240000Y-103350000D03*
X142240000Y-104620000D03*
X159740000Y-107160000D03*
X159740000Y-104620000D03*
X159740000Y-103350000D03*
X159740000Y-102080000D03*
X159740000Y-100810000D03*
X159740000Y-99540000D03*
X159740000Y-98270000D03*
X159740000Y-97000000D03*
X159740000Y-95730000D03*
X159740000Y-94460000D03*
X159740000Y-93190000D03*
X159740000Y-91920000D03*
X159740000Y-90650000D03*
X159740000Y-89380000D03*
X159740000Y-88110000D03*
D14*
X157980000Y-86360000D03*
X156710000Y-86360000D03*
X155440000Y-86360000D03*
X154170000Y-86360000D03*
X152900000Y-86360000D03*
X151630000Y-86360000D03*
X147820000Y-86360000D03*
X146550000Y-86360000D03*
X145280000Y-86360000D03*
X144010000Y-86360000D03*
X150360000Y-86360000D03*
X149090000Y-86360000D03*
G04 #@! TD*
D11*
G04 #@! TO.C,D1*
G36*
X145047642Y-61531174D02*
X145071303Y-61534684D01*
X145094507Y-61540496D01*
X145117029Y-61548554D01*
X145138653Y-61558782D01*
X145159170Y-61571079D01*
X145178383Y-61585329D01*
X145196107Y-61601393D01*
X145212171Y-61619117D01*
X145226421Y-61638330D01*
X145238718Y-61658847D01*
X145248946Y-61680471D01*
X145257004Y-61702993D01*
X145262816Y-61726197D01*
X145266326Y-61749858D01*
X145267500Y-61773750D01*
X145267500Y-62686250D01*
X145266326Y-62710142D01*
X145262816Y-62733803D01*
X145257004Y-62757007D01*
X145248946Y-62779529D01*
X145238718Y-62801153D01*
X145226421Y-62821670D01*
X145212171Y-62840883D01*
X145196107Y-62858607D01*
X145178383Y-62874671D01*
X145159170Y-62888921D01*
X145138653Y-62901218D01*
X145117029Y-62911446D01*
X145094507Y-62919504D01*
X145071303Y-62925316D01*
X145047642Y-62928826D01*
X145023750Y-62930000D01*
X144536250Y-62930000D01*
X144512358Y-62928826D01*
X144488697Y-62925316D01*
X144465493Y-62919504D01*
X144442971Y-62911446D01*
X144421347Y-62901218D01*
X144400830Y-62888921D01*
X144381617Y-62874671D01*
X144363893Y-62858607D01*
X144347829Y-62840883D01*
X144333579Y-62821670D01*
X144321282Y-62801153D01*
X144311054Y-62779529D01*
X144302996Y-62757007D01*
X144297184Y-62733803D01*
X144293674Y-62710142D01*
X144292500Y-62686250D01*
X144292500Y-61773750D01*
X144293674Y-61749858D01*
X144297184Y-61726197D01*
X144302996Y-61702993D01*
X144311054Y-61680471D01*
X144321282Y-61658847D01*
X144333579Y-61638330D01*
X144347829Y-61619117D01*
X144363893Y-61601393D01*
X144381617Y-61585329D01*
X144400830Y-61571079D01*
X144421347Y-61558782D01*
X144442971Y-61548554D01*
X144465493Y-61540496D01*
X144488697Y-61534684D01*
X144512358Y-61531174D01*
X144536250Y-61530000D01*
X145023750Y-61530000D01*
X145047642Y-61531174D01*
X145047642Y-61531174D01*
G37*
D12*
X144780000Y-62230000D03*
D11*
G36*
X143172642Y-61531174D02*
X143196303Y-61534684D01*
X143219507Y-61540496D01*
X143242029Y-61548554D01*
X143263653Y-61558782D01*
X143284170Y-61571079D01*
X143303383Y-61585329D01*
X143321107Y-61601393D01*
X143337171Y-61619117D01*
X143351421Y-61638330D01*
X143363718Y-61658847D01*
X143373946Y-61680471D01*
X143382004Y-61702993D01*
X143387816Y-61726197D01*
X143391326Y-61749858D01*
X143392500Y-61773750D01*
X143392500Y-62686250D01*
X143391326Y-62710142D01*
X143387816Y-62733803D01*
X143382004Y-62757007D01*
X143373946Y-62779529D01*
X143363718Y-62801153D01*
X143351421Y-62821670D01*
X143337171Y-62840883D01*
X143321107Y-62858607D01*
X143303383Y-62874671D01*
X143284170Y-62888921D01*
X143263653Y-62901218D01*
X143242029Y-62911446D01*
X143219507Y-62919504D01*
X143196303Y-62925316D01*
X143172642Y-62928826D01*
X143148750Y-62930000D01*
X142661250Y-62930000D01*
X142637358Y-62928826D01*
X142613697Y-62925316D01*
X142590493Y-62919504D01*
X142567971Y-62911446D01*
X142546347Y-62901218D01*
X142525830Y-62888921D01*
X142506617Y-62874671D01*
X142488893Y-62858607D01*
X142472829Y-62840883D01*
X142458579Y-62821670D01*
X142446282Y-62801153D01*
X142436054Y-62779529D01*
X142427996Y-62757007D01*
X142422184Y-62733803D01*
X142418674Y-62710142D01*
X142417500Y-62686250D01*
X142417500Y-61773750D01*
X142418674Y-61749858D01*
X142422184Y-61726197D01*
X142427996Y-61702993D01*
X142436054Y-61680471D01*
X142446282Y-61658847D01*
X142458579Y-61638330D01*
X142472829Y-61619117D01*
X142488893Y-61601393D01*
X142506617Y-61585329D01*
X142525830Y-61571079D01*
X142546347Y-61558782D01*
X142567971Y-61548554D01*
X142590493Y-61540496D01*
X142613697Y-61534684D01*
X142637358Y-61531174D01*
X142661250Y-61530000D01*
X143148750Y-61530000D01*
X143172642Y-61531174D01*
X143172642Y-61531174D01*
G37*
D12*
X142905000Y-62230000D03*
G04 #@! TD*
D11*
G04 #@! TO.C,C2*
G36*
X145047642Y-66611174D02*
X145071303Y-66614684D01*
X145094507Y-66620496D01*
X145117029Y-66628554D01*
X145138653Y-66638782D01*
X145159170Y-66651079D01*
X145178383Y-66665329D01*
X145196107Y-66681393D01*
X145212171Y-66699117D01*
X145226421Y-66718330D01*
X145238718Y-66738847D01*
X145248946Y-66760471D01*
X145257004Y-66782993D01*
X145262816Y-66806197D01*
X145266326Y-66829858D01*
X145267500Y-66853750D01*
X145267500Y-67766250D01*
X145266326Y-67790142D01*
X145262816Y-67813803D01*
X145257004Y-67837007D01*
X145248946Y-67859529D01*
X145238718Y-67881153D01*
X145226421Y-67901670D01*
X145212171Y-67920883D01*
X145196107Y-67938607D01*
X145178383Y-67954671D01*
X145159170Y-67968921D01*
X145138653Y-67981218D01*
X145117029Y-67991446D01*
X145094507Y-67999504D01*
X145071303Y-68005316D01*
X145047642Y-68008826D01*
X145023750Y-68010000D01*
X144536250Y-68010000D01*
X144512358Y-68008826D01*
X144488697Y-68005316D01*
X144465493Y-67999504D01*
X144442971Y-67991446D01*
X144421347Y-67981218D01*
X144400830Y-67968921D01*
X144381617Y-67954671D01*
X144363893Y-67938607D01*
X144347829Y-67920883D01*
X144333579Y-67901670D01*
X144321282Y-67881153D01*
X144311054Y-67859529D01*
X144302996Y-67837007D01*
X144297184Y-67813803D01*
X144293674Y-67790142D01*
X144292500Y-67766250D01*
X144292500Y-66853750D01*
X144293674Y-66829858D01*
X144297184Y-66806197D01*
X144302996Y-66782993D01*
X144311054Y-66760471D01*
X144321282Y-66738847D01*
X144333579Y-66718330D01*
X144347829Y-66699117D01*
X144363893Y-66681393D01*
X144381617Y-66665329D01*
X144400830Y-66651079D01*
X144421347Y-66638782D01*
X144442971Y-66628554D01*
X144465493Y-66620496D01*
X144488697Y-66614684D01*
X144512358Y-66611174D01*
X144536250Y-66610000D01*
X145023750Y-66610000D01*
X145047642Y-66611174D01*
X145047642Y-66611174D01*
G37*
D12*
X144780000Y-67310000D03*
D11*
G36*
X143172642Y-66611174D02*
X143196303Y-66614684D01*
X143219507Y-66620496D01*
X143242029Y-66628554D01*
X143263653Y-66638782D01*
X143284170Y-66651079D01*
X143303383Y-66665329D01*
X143321107Y-66681393D01*
X143337171Y-66699117D01*
X143351421Y-66718330D01*
X143363718Y-66738847D01*
X143373946Y-66760471D01*
X143382004Y-66782993D01*
X143387816Y-66806197D01*
X143391326Y-66829858D01*
X143392500Y-66853750D01*
X143392500Y-67766250D01*
X143391326Y-67790142D01*
X143387816Y-67813803D01*
X143382004Y-67837007D01*
X143373946Y-67859529D01*
X143363718Y-67881153D01*
X143351421Y-67901670D01*
X143337171Y-67920883D01*
X143321107Y-67938607D01*
X143303383Y-67954671D01*
X143284170Y-67968921D01*
X143263653Y-67981218D01*
X143242029Y-67991446D01*
X143219507Y-67999504D01*
X143196303Y-68005316D01*
X143172642Y-68008826D01*
X143148750Y-68010000D01*
X142661250Y-68010000D01*
X142637358Y-68008826D01*
X142613697Y-68005316D01*
X142590493Y-67999504D01*
X142567971Y-67991446D01*
X142546347Y-67981218D01*
X142525830Y-67968921D01*
X142506617Y-67954671D01*
X142488893Y-67938607D01*
X142472829Y-67920883D01*
X142458579Y-67901670D01*
X142446282Y-67881153D01*
X142436054Y-67859529D01*
X142427996Y-67837007D01*
X142422184Y-67813803D01*
X142418674Y-67790142D01*
X142417500Y-67766250D01*
X142417500Y-66853750D01*
X142418674Y-66829858D01*
X142422184Y-66806197D01*
X142427996Y-66782993D01*
X142436054Y-66760471D01*
X142446282Y-66738847D01*
X142458579Y-66718330D01*
X142472829Y-66699117D01*
X142488893Y-66681393D01*
X142506617Y-66665329D01*
X142525830Y-66651079D01*
X142546347Y-66638782D01*
X142567971Y-66628554D01*
X142590493Y-66620496D01*
X142613697Y-66614684D01*
X142637358Y-66611174D01*
X142661250Y-66610000D01*
X143148750Y-66610000D01*
X143172642Y-66611174D01*
X143172642Y-66611174D01*
G37*
D12*
X142905000Y-67310000D03*
G04 #@! TD*
D11*
G04 #@! TO.C,C3*
G36*
X143172642Y-69151174D02*
X143196303Y-69154684D01*
X143219507Y-69160496D01*
X143242029Y-69168554D01*
X143263653Y-69178782D01*
X143284170Y-69191079D01*
X143303383Y-69205329D01*
X143321107Y-69221393D01*
X143337171Y-69239117D01*
X143351421Y-69258330D01*
X143363718Y-69278847D01*
X143373946Y-69300471D01*
X143382004Y-69322993D01*
X143387816Y-69346197D01*
X143391326Y-69369858D01*
X143392500Y-69393750D01*
X143392500Y-70306250D01*
X143391326Y-70330142D01*
X143387816Y-70353803D01*
X143382004Y-70377007D01*
X143373946Y-70399529D01*
X143363718Y-70421153D01*
X143351421Y-70441670D01*
X143337171Y-70460883D01*
X143321107Y-70478607D01*
X143303383Y-70494671D01*
X143284170Y-70508921D01*
X143263653Y-70521218D01*
X143242029Y-70531446D01*
X143219507Y-70539504D01*
X143196303Y-70545316D01*
X143172642Y-70548826D01*
X143148750Y-70550000D01*
X142661250Y-70550000D01*
X142637358Y-70548826D01*
X142613697Y-70545316D01*
X142590493Y-70539504D01*
X142567971Y-70531446D01*
X142546347Y-70521218D01*
X142525830Y-70508921D01*
X142506617Y-70494671D01*
X142488893Y-70478607D01*
X142472829Y-70460883D01*
X142458579Y-70441670D01*
X142446282Y-70421153D01*
X142436054Y-70399529D01*
X142427996Y-70377007D01*
X142422184Y-70353803D01*
X142418674Y-70330142D01*
X142417500Y-70306250D01*
X142417500Y-69393750D01*
X142418674Y-69369858D01*
X142422184Y-69346197D01*
X142427996Y-69322993D01*
X142436054Y-69300471D01*
X142446282Y-69278847D01*
X142458579Y-69258330D01*
X142472829Y-69239117D01*
X142488893Y-69221393D01*
X142506617Y-69205329D01*
X142525830Y-69191079D01*
X142546347Y-69178782D01*
X142567971Y-69168554D01*
X142590493Y-69160496D01*
X142613697Y-69154684D01*
X142637358Y-69151174D01*
X142661250Y-69150000D01*
X143148750Y-69150000D01*
X143172642Y-69151174D01*
X143172642Y-69151174D01*
G37*
D12*
X142905000Y-69850000D03*
D11*
G36*
X145047642Y-69151174D02*
X145071303Y-69154684D01*
X145094507Y-69160496D01*
X145117029Y-69168554D01*
X145138653Y-69178782D01*
X145159170Y-69191079D01*
X145178383Y-69205329D01*
X145196107Y-69221393D01*
X145212171Y-69239117D01*
X145226421Y-69258330D01*
X145238718Y-69278847D01*
X145248946Y-69300471D01*
X145257004Y-69322993D01*
X145262816Y-69346197D01*
X145266326Y-69369858D01*
X145267500Y-69393750D01*
X145267500Y-70306250D01*
X145266326Y-70330142D01*
X145262816Y-70353803D01*
X145257004Y-70377007D01*
X145248946Y-70399529D01*
X145238718Y-70421153D01*
X145226421Y-70441670D01*
X145212171Y-70460883D01*
X145196107Y-70478607D01*
X145178383Y-70494671D01*
X145159170Y-70508921D01*
X145138653Y-70521218D01*
X145117029Y-70531446D01*
X145094507Y-70539504D01*
X145071303Y-70545316D01*
X145047642Y-70548826D01*
X145023750Y-70550000D01*
X144536250Y-70550000D01*
X144512358Y-70548826D01*
X144488697Y-70545316D01*
X144465493Y-70539504D01*
X144442971Y-70531446D01*
X144421347Y-70521218D01*
X144400830Y-70508921D01*
X144381617Y-70494671D01*
X144363893Y-70478607D01*
X144347829Y-70460883D01*
X144333579Y-70441670D01*
X144321282Y-70421153D01*
X144311054Y-70399529D01*
X144302996Y-70377007D01*
X144297184Y-70353803D01*
X144293674Y-70330142D01*
X144292500Y-70306250D01*
X144292500Y-69393750D01*
X144293674Y-69369858D01*
X144297184Y-69346197D01*
X144302996Y-69322993D01*
X144311054Y-69300471D01*
X144321282Y-69278847D01*
X144333579Y-69258330D01*
X144347829Y-69239117D01*
X144363893Y-69221393D01*
X144381617Y-69205329D01*
X144400830Y-69191079D01*
X144421347Y-69178782D01*
X144442971Y-69168554D01*
X144465493Y-69160496D01*
X144488697Y-69154684D01*
X144512358Y-69151174D01*
X144536250Y-69150000D01*
X145023750Y-69150000D01*
X145047642Y-69151174D01*
X145047642Y-69151174D01*
G37*
D12*
X144780000Y-69850000D03*
G04 #@! TD*
D11*
G04 #@! TO.C,C1*
G36*
X145047642Y-64071174D02*
X145071303Y-64074684D01*
X145094507Y-64080496D01*
X145117029Y-64088554D01*
X145138653Y-64098782D01*
X145159170Y-64111079D01*
X145178383Y-64125329D01*
X145196107Y-64141393D01*
X145212171Y-64159117D01*
X145226421Y-64178330D01*
X145238718Y-64198847D01*
X145248946Y-64220471D01*
X145257004Y-64242993D01*
X145262816Y-64266197D01*
X145266326Y-64289858D01*
X145267500Y-64313750D01*
X145267500Y-65226250D01*
X145266326Y-65250142D01*
X145262816Y-65273803D01*
X145257004Y-65297007D01*
X145248946Y-65319529D01*
X145238718Y-65341153D01*
X145226421Y-65361670D01*
X145212171Y-65380883D01*
X145196107Y-65398607D01*
X145178383Y-65414671D01*
X145159170Y-65428921D01*
X145138653Y-65441218D01*
X145117029Y-65451446D01*
X145094507Y-65459504D01*
X145071303Y-65465316D01*
X145047642Y-65468826D01*
X145023750Y-65470000D01*
X144536250Y-65470000D01*
X144512358Y-65468826D01*
X144488697Y-65465316D01*
X144465493Y-65459504D01*
X144442971Y-65451446D01*
X144421347Y-65441218D01*
X144400830Y-65428921D01*
X144381617Y-65414671D01*
X144363893Y-65398607D01*
X144347829Y-65380883D01*
X144333579Y-65361670D01*
X144321282Y-65341153D01*
X144311054Y-65319529D01*
X144302996Y-65297007D01*
X144297184Y-65273803D01*
X144293674Y-65250142D01*
X144292500Y-65226250D01*
X144292500Y-64313750D01*
X144293674Y-64289858D01*
X144297184Y-64266197D01*
X144302996Y-64242993D01*
X144311054Y-64220471D01*
X144321282Y-64198847D01*
X144333579Y-64178330D01*
X144347829Y-64159117D01*
X144363893Y-64141393D01*
X144381617Y-64125329D01*
X144400830Y-64111079D01*
X144421347Y-64098782D01*
X144442971Y-64088554D01*
X144465493Y-64080496D01*
X144488697Y-64074684D01*
X144512358Y-64071174D01*
X144536250Y-64070000D01*
X145023750Y-64070000D01*
X145047642Y-64071174D01*
X145047642Y-64071174D01*
G37*
D12*
X144780000Y-64770000D03*
D11*
G36*
X143172642Y-64071174D02*
X143196303Y-64074684D01*
X143219507Y-64080496D01*
X143242029Y-64088554D01*
X143263653Y-64098782D01*
X143284170Y-64111079D01*
X143303383Y-64125329D01*
X143321107Y-64141393D01*
X143337171Y-64159117D01*
X143351421Y-64178330D01*
X143363718Y-64198847D01*
X143373946Y-64220471D01*
X143382004Y-64242993D01*
X143387816Y-64266197D01*
X143391326Y-64289858D01*
X143392500Y-64313750D01*
X143392500Y-65226250D01*
X143391326Y-65250142D01*
X143387816Y-65273803D01*
X143382004Y-65297007D01*
X143373946Y-65319529D01*
X143363718Y-65341153D01*
X143351421Y-65361670D01*
X143337171Y-65380883D01*
X143321107Y-65398607D01*
X143303383Y-65414671D01*
X143284170Y-65428921D01*
X143263653Y-65441218D01*
X143242029Y-65451446D01*
X143219507Y-65459504D01*
X143196303Y-65465316D01*
X143172642Y-65468826D01*
X143148750Y-65470000D01*
X142661250Y-65470000D01*
X142637358Y-65468826D01*
X142613697Y-65465316D01*
X142590493Y-65459504D01*
X142567971Y-65451446D01*
X142546347Y-65441218D01*
X142525830Y-65428921D01*
X142506617Y-65414671D01*
X142488893Y-65398607D01*
X142472829Y-65380883D01*
X142458579Y-65361670D01*
X142446282Y-65341153D01*
X142436054Y-65319529D01*
X142427996Y-65297007D01*
X142422184Y-65273803D01*
X142418674Y-65250142D01*
X142417500Y-65226250D01*
X142417500Y-64313750D01*
X142418674Y-64289858D01*
X142422184Y-64266197D01*
X142427996Y-64242993D01*
X142436054Y-64220471D01*
X142446282Y-64198847D01*
X142458579Y-64178330D01*
X142472829Y-64159117D01*
X142488893Y-64141393D01*
X142506617Y-64125329D01*
X142525830Y-64111079D01*
X142546347Y-64098782D01*
X142567971Y-64088554D01*
X142590493Y-64080496D01*
X142613697Y-64074684D01*
X142637358Y-64071174D01*
X142661250Y-64070000D01*
X143148750Y-64070000D01*
X143172642Y-64071174D01*
X143172642Y-64071174D01*
G37*
D12*
X142905000Y-64770000D03*
G04 #@! TD*
D11*
G04 #@! TO.C,L1*
G36*
X163040142Y-92193674D02*
X163063803Y-92197184D01*
X163087007Y-92202996D01*
X163109529Y-92211054D01*
X163131153Y-92221282D01*
X163151670Y-92233579D01*
X163170883Y-92247829D01*
X163188607Y-92263893D01*
X163204671Y-92281617D01*
X163218921Y-92300830D01*
X163231218Y-92321347D01*
X163241446Y-92342971D01*
X163249504Y-92365493D01*
X163255316Y-92388697D01*
X163258826Y-92412358D01*
X163260000Y-92436250D01*
X163260000Y-92923750D01*
X163258826Y-92947642D01*
X163255316Y-92971303D01*
X163249504Y-92994507D01*
X163241446Y-93017029D01*
X163231218Y-93038653D01*
X163218921Y-93059170D01*
X163204671Y-93078383D01*
X163188607Y-93096107D01*
X163170883Y-93112171D01*
X163151670Y-93126421D01*
X163131153Y-93138718D01*
X163109529Y-93148946D01*
X163087007Y-93157004D01*
X163063803Y-93162816D01*
X163040142Y-93166326D01*
X163016250Y-93167500D01*
X162103750Y-93167500D01*
X162079858Y-93166326D01*
X162056197Y-93162816D01*
X162032993Y-93157004D01*
X162010471Y-93148946D01*
X161988847Y-93138718D01*
X161968330Y-93126421D01*
X161949117Y-93112171D01*
X161931393Y-93096107D01*
X161915329Y-93078383D01*
X161901079Y-93059170D01*
X161888782Y-93038653D01*
X161878554Y-93017029D01*
X161870496Y-92994507D01*
X161864684Y-92971303D01*
X161861174Y-92947642D01*
X161860000Y-92923750D01*
X161860000Y-92436250D01*
X161861174Y-92412358D01*
X161864684Y-92388697D01*
X161870496Y-92365493D01*
X161878554Y-92342971D01*
X161888782Y-92321347D01*
X161901079Y-92300830D01*
X161915329Y-92281617D01*
X161931393Y-92263893D01*
X161949117Y-92247829D01*
X161968330Y-92233579D01*
X161988847Y-92221282D01*
X162010471Y-92211054D01*
X162032993Y-92202996D01*
X162056197Y-92197184D01*
X162079858Y-92193674D01*
X162103750Y-92192500D01*
X163016250Y-92192500D01*
X163040142Y-92193674D01*
X163040142Y-92193674D01*
G37*
D12*
X162560000Y-92680000D03*
D11*
G36*
X163040142Y-90318674D02*
X163063803Y-90322184D01*
X163087007Y-90327996D01*
X163109529Y-90336054D01*
X163131153Y-90346282D01*
X163151670Y-90358579D01*
X163170883Y-90372829D01*
X163188607Y-90388893D01*
X163204671Y-90406617D01*
X163218921Y-90425830D01*
X163231218Y-90446347D01*
X163241446Y-90467971D01*
X163249504Y-90490493D01*
X163255316Y-90513697D01*
X163258826Y-90537358D01*
X163260000Y-90561250D01*
X163260000Y-91048750D01*
X163258826Y-91072642D01*
X163255316Y-91096303D01*
X163249504Y-91119507D01*
X163241446Y-91142029D01*
X163231218Y-91163653D01*
X163218921Y-91184170D01*
X163204671Y-91203383D01*
X163188607Y-91221107D01*
X163170883Y-91237171D01*
X163151670Y-91251421D01*
X163131153Y-91263718D01*
X163109529Y-91273946D01*
X163087007Y-91282004D01*
X163063803Y-91287816D01*
X163040142Y-91291326D01*
X163016250Y-91292500D01*
X162103750Y-91292500D01*
X162079858Y-91291326D01*
X162056197Y-91287816D01*
X162032993Y-91282004D01*
X162010471Y-91273946D01*
X161988847Y-91263718D01*
X161968330Y-91251421D01*
X161949117Y-91237171D01*
X161931393Y-91221107D01*
X161915329Y-91203383D01*
X161901079Y-91184170D01*
X161888782Y-91163653D01*
X161878554Y-91142029D01*
X161870496Y-91119507D01*
X161864684Y-91096303D01*
X161861174Y-91072642D01*
X161860000Y-91048750D01*
X161860000Y-90561250D01*
X161861174Y-90537358D01*
X161864684Y-90513697D01*
X161870496Y-90490493D01*
X161878554Y-90467971D01*
X161888782Y-90446347D01*
X161901079Y-90425830D01*
X161915329Y-90406617D01*
X161931393Y-90388893D01*
X161949117Y-90372829D01*
X161968330Y-90358579D01*
X161988847Y-90346282D01*
X162010471Y-90336054D01*
X162032993Y-90327996D01*
X162056197Y-90322184D01*
X162079858Y-90318674D01*
X162103750Y-90317500D01*
X163016250Y-90317500D01*
X163040142Y-90318674D01*
X163040142Y-90318674D01*
G37*
D12*
X162560000Y-90805000D03*
G04 #@! TD*
D11*
G04 #@! TO.C,L2*
G36*
X163040142Y-86508674D02*
X163063803Y-86512184D01*
X163087007Y-86517996D01*
X163109529Y-86526054D01*
X163131153Y-86536282D01*
X163151670Y-86548579D01*
X163170883Y-86562829D01*
X163188607Y-86578893D01*
X163204671Y-86596617D01*
X163218921Y-86615830D01*
X163231218Y-86636347D01*
X163241446Y-86657971D01*
X163249504Y-86680493D01*
X163255316Y-86703697D01*
X163258826Y-86727358D01*
X163260000Y-86751250D01*
X163260000Y-87238750D01*
X163258826Y-87262642D01*
X163255316Y-87286303D01*
X163249504Y-87309507D01*
X163241446Y-87332029D01*
X163231218Y-87353653D01*
X163218921Y-87374170D01*
X163204671Y-87393383D01*
X163188607Y-87411107D01*
X163170883Y-87427171D01*
X163151670Y-87441421D01*
X163131153Y-87453718D01*
X163109529Y-87463946D01*
X163087007Y-87472004D01*
X163063803Y-87477816D01*
X163040142Y-87481326D01*
X163016250Y-87482500D01*
X162103750Y-87482500D01*
X162079858Y-87481326D01*
X162056197Y-87477816D01*
X162032993Y-87472004D01*
X162010471Y-87463946D01*
X161988847Y-87453718D01*
X161968330Y-87441421D01*
X161949117Y-87427171D01*
X161931393Y-87411107D01*
X161915329Y-87393383D01*
X161901079Y-87374170D01*
X161888782Y-87353653D01*
X161878554Y-87332029D01*
X161870496Y-87309507D01*
X161864684Y-87286303D01*
X161861174Y-87262642D01*
X161860000Y-87238750D01*
X161860000Y-86751250D01*
X161861174Y-86727358D01*
X161864684Y-86703697D01*
X161870496Y-86680493D01*
X161878554Y-86657971D01*
X161888782Y-86636347D01*
X161901079Y-86615830D01*
X161915329Y-86596617D01*
X161931393Y-86578893D01*
X161949117Y-86562829D01*
X161968330Y-86548579D01*
X161988847Y-86536282D01*
X162010471Y-86526054D01*
X162032993Y-86517996D01*
X162056197Y-86512184D01*
X162079858Y-86508674D01*
X162103750Y-86507500D01*
X163016250Y-86507500D01*
X163040142Y-86508674D01*
X163040142Y-86508674D01*
G37*
D12*
X162560000Y-86995000D03*
D11*
G36*
X163040142Y-88383674D02*
X163063803Y-88387184D01*
X163087007Y-88392996D01*
X163109529Y-88401054D01*
X163131153Y-88411282D01*
X163151670Y-88423579D01*
X163170883Y-88437829D01*
X163188607Y-88453893D01*
X163204671Y-88471617D01*
X163218921Y-88490830D01*
X163231218Y-88511347D01*
X163241446Y-88532971D01*
X163249504Y-88555493D01*
X163255316Y-88578697D01*
X163258826Y-88602358D01*
X163260000Y-88626250D01*
X163260000Y-89113750D01*
X163258826Y-89137642D01*
X163255316Y-89161303D01*
X163249504Y-89184507D01*
X163241446Y-89207029D01*
X163231218Y-89228653D01*
X163218921Y-89249170D01*
X163204671Y-89268383D01*
X163188607Y-89286107D01*
X163170883Y-89302171D01*
X163151670Y-89316421D01*
X163131153Y-89328718D01*
X163109529Y-89338946D01*
X163087007Y-89347004D01*
X163063803Y-89352816D01*
X163040142Y-89356326D01*
X163016250Y-89357500D01*
X162103750Y-89357500D01*
X162079858Y-89356326D01*
X162056197Y-89352816D01*
X162032993Y-89347004D01*
X162010471Y-89338946D01*
X161988847Y-89328718D01*
X161968330Y-89316421D01*
X161949117Y-89302171D01*
X161931393Y-89286107D01*
X161915329Y-89268383D01*
X161901079Y-89249170D01*
X161888782Y-89228653D01*
X161878554Y-89207029D01*
X161870496Y-89184507D01*
X161864684Y-89161303D01*
X161861174Y-89137642D01*
X161860000Y-89113750D01*
X161860000Y-88626250D01*
X161861174Y-88602358D01*
X161864684Y-88578697D01*
X161870496Y-88555493D01*
X161878554Y-88532971D01*
X161888782Y-88511347D01*
X161901079Y-88490830D01*
X161915329Y-88471617D01*
X161931393Y-88453893D01*
X161949117Y-88437829D01*
X161968330Y-88423579D01*
X161988847Y-88411282D01*
X162010471Y-88401054D01*
X162032993Y-88392996D01*
X162056197Y-88387184D01*
X162079858Y-88383674D01*
X162103750Y-88382500D01*
X163016250Y-88382500D01*
X163040142Y-88383674D01*
X163040142Y-88383674D01*
G37*
D12*
X162560000Y-88870000D03*
G04 #@! TD*
D11*
G04 #@! TO.C,R1*
G36*
X143172642Y-71691174D02*
X143196303Y-71694684D01*
X143219507Y-71700496D01*
X143242029Y-71708554D01*
X143263653Y-71718782D01*
X143284170Y-71731079D01*
X143303383Y-71745329D01*
X143321107Y-71761393D01*
X143337171Y-71779117D01*
X143351421Y-71798330D01*
X143363718Y-71818847D01*
X143373946Y-71840471D01*
X143382004Y-71862993D01*
X143387816Y-71886197D01*
X143391326Y-71909858D01*
X143392500Y-71933750D01*
X143392500Y-72846250D01*
X143391326Y-72870142D01*
X143387816Y-72893803D01*
X143382004Y-72917007D01*
X143373946Y-72939529D01*
X143363718Y-72961153D01*
X143351421Y-72981670D01*
X143337171Y-73000883D01*
X143321107Y-73018607D01*
X143303383Y-73034671D01*
X143284170Y-73048921D01*
X143263653Y-73061218D01*
X143242029Y-73071446D01*
X143219507Y-73079504D01*
X143196303Y-73085316D01*
X143172642Y-73088826D01*
X143148750Y-73090000D01*
X142661250Y-73090000D01*
X142637358Y-73088826D01*
X142613697Y-73085316D01*
X142590493Y-73079504D01*
X142567971Y-73071446D01*
X142546347Y-73061218D01*
X142525830Y-73048921D01*
X142506617Y-73034671D01*
X142488893Y-73018607D01*
X142472829Y-73000883D01*
X142458579Y-72981670D01*
X142446282Y-72961153D01*
X142436054Y-72939529D01*
X142427996Y-72917007D01*
X142422184Y-72893803D01*
X142418674Y-72870142D01*
X142417500Y-72846250D01*
X142417500Y-71933750D01*
X142418674Y-71909858D01*
X142422184Y-71886197D01*
X142427996Y-71862993D01*
X142436054Y-71840471D01*
X142446282Y-71818847D01*
X142458579Y-71798330D01*
X142472829Y-71779117D01*
X142488893Y-71761393D01*
X142506617Y-71745329D01*
X142525830Y-71731079D01*
X142546347Y-71718782D01*
X142567971Y-71708554D01*
X142590493Y-71700496D01*
X142613697Y-71694684D01*
X142637358Y-71691174D01*
X142661250Y-71690000D01*
X143148750Y-71690000D01*
X143172642Y-71691174D01*
X143172642Y-71691174D01*
G37*
D12*
X142905000Y-72390000D03*
D11*
G36*
X145047642Y-71691174D02*
X145071303Y-71694684D01*
X145094507Y-71700496D01*
X145117029Y-71708554D01*
X145138653Y-71718782D01*
X145159170Y-71731079D01*
X145178383Y-71745329D01*
X145196107Y-71761393D01*
X145212171Y-71779117D01*
X145226421Y-71798330D01*
X145238718Y-71818847D01*
X145248946Y-71840471D01*
X145257004Y-71862993D01*
X145262816Y-71886197D01*
X145266326Y-71909858D01*
X145267500Y-71933750D01*
X145267500Y-72846250D01*
X145266326Y-72870142D01*
X145262816Y-72893803D01*
X145257004Y-72917007D01*
X145248946Y-72939529D01*
X145238718Y-72961153D01*
X145226421Y-72981670D01*
X145212171Y-73000883D01*
X145196107Y-73018607D01*
X145178383Y-73034671D01*
X145159170Y-73048921D01*
X145138653Y-73061218D01*
X145117029Y-73071446D01*
X145094507Y-73079504D01*
X145071303Y-73085316D01*
X145047642Y-73088826D01*
X145023750Y-73090000D01*
X144536250Y-73090000D01*
X144512358Y-73088826D01*
X144488697Y-73085316D01*
X144465493Y-73079504D01*
X144442971Y-73071446D01*
X144421347Y-73061218D01*
X144400830Y-73048921D01*
X144381617Y-73034671D01*
X144363893Y-73018607D01*
X144347829Y-73000883D01*
X144333579Y-72981670D01*
X144321282Y-72961153D01*
X144311054Y-72939529D01*
X144302996Y-72917007D01*
X144297184Y-72893803D01*
X144293674Y-72870142D01*
X144292500Y-72846250D01*
X144292500Y-71933750D01*
X144293674Y-71909858D01*
X144297184Y-71886197D01*
X144302996Y-71862993D01*
X144311054Y-71840471D01*
X144321282Y-71818847D01*
X144333579Y-71798330D01*
X144347829Y-71779117D01*
X144363893Y-71761393D01*
X144381617Y-71745329D01*
X144400830Y-71731079D01*
X144421347Y-71718782D01*
X144442971Y-71708554D01*
X144465493Y-71700496D01*
X144488697Y-71694684D01*
X144512358Y-71691174D01*
X144536250Y-71690000D01*
X145023750Y-71690000D01*
X145047642Y-71691174D01*
X145047642Y-71691174D01*
G37*
D12*
X144780000Y-72390000D03*
G04 #@! TD*
D15*
G04 #@! TO.C,J4*
X146080000Y-56510000D03*
X145430000Y-56510000D03*
X144780000Y-56510000D03*
X144130000Y-56510000D03*
X143480000Y-56510000D03*
G04 #@! TD*
D16*
G04 #@! TO.C,U2*
X148722000Y-62960000D03*
X150622000Y-62960000D03*
X149672000Y-60960000D03*
G04 #@! TD*
M02*
