M48
;DRILL file {KiCad 5.0.1} date do 03 jan 2019 14:35:27 CET
;FORMAT={-:-/ absolute / metric / decimal}
FMAT,2
METRIC,TZ
T1C0.400
T2C0.550
T3C0.650
T4C0.850
T5C1.000
%
G90
G05
M71
T1
X142.875Y-62.23
X144.78Y-72.39
X145.83Y-95.18
X147.828Y-64.262
X147.828Y-86.36
X153.035Y-66.04
X153.035Y-69.088
X153.035Y-71.374
X157.988Y-86.36
X159.741Y-93.193
X160.274Y-69.088
T3
X153.67Y-59.69
X153.67Y-60.96
X154.94Y-59.69
X154.94Y-60.96
X156.21Y-59.69
X156.21Y-60.96
X157.48Y-59.69
X157.48Y-60.96
X158.75Y-59.69
X158.75Y-60.96
T5
X165.1Y-55.88
X165.1Y-58.42
X165.1Y-60.96
X165.1Y-63.5
X165.1Y-66.04
X165.1Y-68.58
X165.1Y-71.12
X165.1Y-73.66
X165.1Y-76.2
X165.1Y-78.74
X165.1Y-81.28
X165.1Y-83.82
X165.1Y-86.36
X165.1Y-88.9
X165.1Y-91.44
X165.1Y-93.98
X165.1Y-96.52
X165.1Y-99.06
X165.1Y-101.6
X165.1Y-104.14
X162.56Y-60.96
X162.56Y-63.5
X137.16Y-55.88
X137.16Y-58.42
X137.16Y-60.96
X137.16Y-63.5
X137.16Y-66.04
X137.16Y-68.58
X137.16Y-71.12
X137.16Y-73.66
X137.16Y-76.2
X137.16Y-78.74
X137.16Y-81.28
X137.16Y-83.82
X137.16Y-86.36
X137.16Y-88.9
X137.16Y-91.44
X137.16Y-93.98
X137.16Y-96.52
X137.16Y-99.06
X137.16Y-101.6
X137.16Y-104.14
X152.4Y-55.88
X154.94Y-55.88
X157.48Y-55.88
X160.02Y-55.88
X162.56Y-55.88
X139.7Y-60.96
X139.7Y-63.5
T2
X140.905Y-52.985G85X140.905Y-52.335
G05
X148.655Y-52.985G85X148.655Y-52.335
G05
T4
X141.055Y-56.735G85X141.055Y-56.185
G05
X148.505Y-56.735G85X148.505Y-56.185
G05
T0
M30
