G04 #@! TF.GenerationSoftware,KiCad,Pcbnew,5.0.1*
G04 #@! TF.CreationDate,2019-01-03T14:35:24+01:00*
G04 #@! TF.ProjectId,e73-ab,6537332D61622E6B696361645F706362,rev?*
G04 #@! TF.SameCoordinates,Original*
G04 #@! TF.FileFunction,Legend,Top*
G04 #@! TF.FilePolarity,Positive*
%FSLAX46Y46*%
G04 Gerber Fmt 4.6, Leading zero omitted, Abs format (unit mm)*
G04 Created by KiCad (PCBNEW 5.0.1) date do 03 jan 2019 14:35:24 CET*
%MOMM*%
%LPD*%
G01*
G04 APERTURE LIST*
%ADD10C,0.250000*%
%ADD11C,0.200000*%
%ADD12C,0.300000*%
%ADD13C,0.150000*%
%ADD14C,0.120000*%
G04 APERTURE END LIST*
D10*
X151852380Y-53530476D02*
X151852380Y-54006666D01*
X152328571Y-54054285D01*
X152280952Y-54006666D01*
X152233333Y-53911428D01*
X152233333Y-53673333D01*
X152280952Y-53578095D01*
X152328571Y-53530476D01*
X152423809Y-53482857D01*
X152661904Y-53482857D01*
X152757142Y-53530476D01*
X152804761Y-53578095D01*
X152852380Y-53673333D01*
X152852380Y-53911428D01*
X152804761Y-54006666D01*
X152757142Y-54054285D01*
X151852380Y-53197142D02*
X152852380Y-52863809D01*
X151852380Y-52530476D01*
X161472666Y-65492380D02*
X161806000Y-66492380D01*
X162139333Y-65492380D01*
X162806000Y-65968571D02*
X162948857Y-66016190D01*
X162996476Y-66063809D01*
X163044095Y-66159047D01*
X163044095Y-66301904D01*
X162996476Y-66397142D01*
X162948857Y-66444761D01*
X162853619Y-66492380D01*
X162472666Y-66492380D01*
X162472666Y-65492380D01*
X162806000Y-65492380D01*
X162901238Y-65540000D01*
X162948857Y-65587619D01*
X162996476Y-65682857D01*
X162996476Y-65778095D01*
X162948857Y-65873333D01*
X162901238Y-65920952D01*
X162806000Y-65968571D01*
X162472666Y-65968571D01*
D11*
X156845000Y-62230000D02*
X155575000Y-62230000D01*
X156845000Y-62865000D02*
X156845000Y-62230000D01*
X155575000Y-62865000D02*
X156845000Y-62865000D01*
X155575000Y-62230000D02*
X155575000Y-62865000D01*
D10*
X166941666Y-60412380D02*
X167275000Y-61412380D01*
X167608333Y-60412380D01*
X167941666Y-61412380D02*
X167941666Y-60412380D01*
X168179761Y-60412380D01*
X168322619Y-60460000D01*
X168417857Y-60555238D01*
X168465476Y-60650476D01*
X168513095Y-60840952D01*
X168513095Y-60983809D01*
X168465476Y-61174285D01*
X168417857Y-61269523D01*
X168322619Y-61364761D01*
X168179761Y-61412380D01*
X167941666Y-61412380D01*
X168941666Y-61412380D02*
X168941666Y-60412380D01*
X169179761Y-60412380D01*
X169322619Y-60460000D01*
X169417857Y-60555238D01*
X169465476Y-60650476D01*
X169513095Y-60840952D01*
X169513095Y-60983809D01*
X169465476Y-61174285D01*
X169417857Y-61269523D01*
X169322619Y-61364761D01*
X169179761Y-61412380D01*
X168941666Y-61412380D01*
X167513095Y-55380000D02*
X167417857Y-55332380D01*
X167275000Y-55332380D01*
X167132142Y-55380000D01*
X167036904Y-55475238D01*
X166989285Y-55570476D01*
X166941666Y-55760952D01*
X166941666Y-55903809D01*
X166989285Y-56094285D01*
X167036904Y-56189523D01*
X167132142Y-56284761D01*
X167275000Y-56332380D01*
X167370238Y-56332380D01*
X167513095Y-56284761D01*
X167560714Y-56237142D01*
X167560714Y-55903809D01*
X167370238Y-55903809D01*
X167989285Y-56332380D02*
X167989285Y-55332380D01*
X168560714Y-56332380D01*
X168560714Y-55332380D01*
X169036904Y-56332380D02*
X169036904Y-55332380D01*
X169275000Y-55332380D01*
X169417857Y-55380000D01*
X169513095Y-55475238D01*
X169560714Y-55570476D01*
X169608333Y-55760952D01*
X169608333Y-55903809D01*
X169560714Y-56094285D01*
X169513095Y-56189523D01*
X169417857Y-56284761D01*
X169275000Y-56332380D01*
X169036904Y-56332380D01*
X166941666Y-62952380D02*
X167275000Y-63952380D01*
X167608333Y-62952380D01*
X167941666Y-63952380D02*
X167941666Y-62952380D01*
X168179761Y-62952380D01*
X168322619Y-63000000D01*
X168417857Y-63095238D01*
X168465476Y-63190476D01*
X168513095Y-63380952D01*
X168513095Y-63523809D01*
X168465476Y-63714285D01*
X168417857Y-63809523D01*
X168322619Y-63904761D01*
X168179761Y-63952380D01*
X167941666Y-63952380D01*
X168941666Y-63952380D02*
X168941666Y-62952380D01*
X169179761Y-62952380D01*
X169322619Y-63000000D01*
X169417857Y-63095238D01*
X169465476Y-63190476D01*
X169513095Y-63380952D01*
X169513095Y-63523809D01*
X169465476Y-63714285D01*
X169417857Y-63809523D01*
X169322619Y-63904761D01*
X169179761Y-63952380D01*
X168941666Y-63952380D01*
X167513095Y-57920000D02*
X167417857Y-57872380D01*
X167275000Y-57872380D01*
X167132142Y-57920000D01*
X167036904Y-58015238D01*
X166989285Y-58110476D01*
X166941666Y-58300952D01*
X166941666Y-58443809D01*
X166989285Y-58634285D01*
X167036904Y-58729523D01*
X167132142Y-58824761D01*
X167275000Y-58872380D01*
X167370238Y-58872380D01*
X167513095Y-58824761D01*
X167560714Y-58777142D01*
X167560714Y-58443809D01*
X167370238Y-58443809D01*
X167989285Y-58872380D02*
X167989285Y-57872380D01*
X168560714Y-58872380D01*
X168560714Y-57872380D01*
X169036904Y-58872380D02*
X169036904Y-57872380D01*
X169275000Y-57872380D01*
X169417857Y-57920000D01*
X169513095Y-58015238D01*
X169560714Y-58110476D01*
X169608333Y-58300952D01*
X169608333Y-58443809D01*
X169560714Y-58634285D01*
X169513095Y-58729523D01*
X169417857Y-58824761D01*
X169275000Y-58872380D01*
X169036904Y-58872380D01*
D12*
X167132142Y-103461428D02*
X167203571Y-103390000D01*
X167346428Y-103318571D01*
X167703571Y-103318571D01*
X167846428Y-103390000D01*
X167917857Y-103461428D01*
X167989285Y-103604285D01*
X167989285Y-103747142D01*
X167917857Y-103961428D01*
X167060714Y-104818571D01*
X167989285Y-104818571D01*
X169346428Y-103318571D02*
X168632142Y-103318571D01*
X168560714Y-104032857D01*
X168632142Y-103961428D01*
X168775000Y-103890000D01*
X169132142Y-103890000D01*
X169275000Y-103961428D01*
X169346428Y-104032857D01*
X169417857Y-104175714D01*
X169417857Y-104532857D01*
X169346428Y-104675714D01*
X169275000Y-104747142D01*
X169132142Y-104818571D01*
X168775000Y-104818571D01*
X168632142Y-104747142D01*
X168560714Y-104675714D01*
X167132142Y-100921428D02*
X167203571Y-100850000D01*
X167346428Y-100778571D01*
X167703571Y-100778571D01*
X167846428Y-100850000D01*
X167917857Y-100921428D01*
X167989285Y-101064285D01*
X167989285Y-101207142D01*
X167917857Y-101421428D01*
X167060714Y-102278571D01*
X167989285Y-102278571D01*
X169275000Y-100778571D02*
X168989285Y-100778571D01*
X168846428Y-100850000D01*
X168775000Y-100921428D01*
X168632142Y-101135714D01*
X168560714Y-101421428D01*
X168560714Y-101992857D01*
X168632142Y-102135714D01*
X168703571Y-102207142D01*
X168846428Y-102278571D01*
X169132142Y-102278571D01*
X169275000Y-102207142D01*
X169346428Y-102135714D01*
X169417857Y-101992857D01*
X169417857Y-101635714D01*
X169346428Y-101492857D01*
X169275000Y-101421428D01*
X169132142Y-101350000D01*
X168846428Y-101350000D01*
X168703571Y-101421428D01*
X168632142Y-101492857D01*
X168560714Y-101635714D01*
X167132142Y-98381428D02*
X167203571Y-98310000D01*
X167346428Y-98238571D01*
X167703571Y-98238571D01*
X167846428Y-98310000D01*
X167917857Y-98381428D01*
X167989285Y-98524285D01*
X167989285Y-98667142D01*
X167917857Y-98881428D01*
X167060714Y-99738571D01*
X167989285Y-99738571D01*
X168489285Y-98238571D02*
X169489285Y-98238571D01*
X168846428Y-99738571D01*
X167132142Y-95841428D02*
X167203571Y-95770000D01*
X167346428Y-95698571D01*
X167703571Y-95698571D01*
X167846428Y-95770000D01*
X167917857Y-95841428D01*
X167989285Y-95984285D01*
X167989285Y-96127142D01*
X167917857Y-96341428D01*
X167060714Y-97198571D01*
X167989285Y-97198571D01*
X168846428Y-96341428D02*
X168703571Y-96270000D01*
X168632142Y-96198571D01*
X168560714Y-96055714D01*
X168560714Y-95984285D01*
X168632142Y-95841428D01*
X168703571Y-95770000D01*
X168846428Y-95698571D01*
X169132142Y-95698571D01*
X169275000Y-95770000D01*
X169346428Y-95841428D01*
X169417857Y-95984285D01*
X169417857Y-96055714D01*
X169346428Y-96198571D01*
X169275000Y-96270000D01*
X169132142Y-96341428D01*
X168846428Y-96341428D01*
X168703571Y-96412857D01*
X168632142Y-96484285D01*
X168560714Y-96627142D01*
X168560714Y-96912857D01*
X168632142Y-97055714D01*
X168703571Y-97127142D01*
X168846428Y-97198571D01*
X169132142Y-97198571D01*
X169275000Y-97127142D01*
X169346428Y-97055714D01*
X169417857Y-96912857D01*
X169417857Y-96627142D01*
X169346428Y-96484285D01*
X169275000Y-96412857D01*
X169132142Y-96341428D01*
X167132142Y-93301428D02*
X167203571Y-93230000D01*
X167346428Y-93158571D01*
X167703571Y-93158571D01*
X167846428Y-93230000D01*
X167917857Y-93301428D01*
X167989285Y-93444285D01*
X167989285Y-93587142D01*
X167917857Y-93801428D01*
X167060714Y-94658571D01*
X167989285Y-94658571D01*
X168703571Y-94658571D02*
X168989285Y-94658571D01*
X169132142Y-94587142D01*
X169203571Y-94515714D01*
X169346428Y-94301428D01*
X169417857Y-94015714D01*
X169417857Y-93444285D01*
X169346428Y-93301428D01*
X169275000Y-93230000D01*
X169132142Y-93158571D01*
X168846428Y-93158571D01*
X168703571Y-93230000D01*
X168632142Y-93301428D01*
X168560714Y-93444285D01*
X168560714Y-93801428D01*
X168632142Y-93944285D01*
X168703571Y-94015714D01*
X168846428Y-94087142D01*
X169132142Y-94087142D01*
X169275000Y-94015714D01*
X169346428Y-93944285D01*
X169417857Y-93801428D01*
X167060714Y-90618571D02*
X167989285Y-90618571D01*
X167489285Y-91190000D01*
X167703571Y-91190000D01*
X167846428Y-91261428D01*
X167917857Y-91332857D01*
X167989285Y-91475714D01*
X167989285Y-91832857D01*
X167917857Y-91975714D01*
X167846428Y-92047142D01*
X167703571Y-92118571D01*
X167275000Y-92118571D01*
X167132142Y-92047142D01*
X167060714Y-91975714D01*
X168917857Y-90618571D02*
X169060714Y-90618571D01*
X169203571Y-90690000D01*
X169275000Y-90761428D01*
X169346428Y-90904285D01*
X169417857Y-91190000D01*
X169417857Y-91547142D01*
X169346428Y-91832857D01*
X169275000Y-91975714D01*
X169203571Y-92047142D01*
X169060714Y-92118571D01*
X168917857Y-92118571D01*
X168775000Y-92047142D01*
X168703571Y-91975714D01*
X168632142Y-91832857D01*
X168560714Y-91547142D01*
X168560714Y-91190000D01*
X168632142Y-90904285D01*
X168703571Y-90761428D01*
X168775000Y-90690000D01*
X168917857Y-90618571D01*
X167060714Y-88078571D02*
X167989285Y-88078571D01*
X167489285Y-88650000D01*
X167703571Y-88650000D01*
X167846428Y-88721428D01*
X167917857Y-88792857D01*
X167989285Y-88935714D01*
X167989285Y-89292857D01*
X167917857Y-89435714D01*
X167846428Y-89507142D01*
X167703571Y-89578571D01*
X167275000Y-89578571D01*
X167132142Y-89507142D01*
X167060714Y-89435714D01*
X169417857Y-89578571D02*
X168560714Y-89578571D01*
X168989285Y-89578571D02*
X168989285Y-88078571D01*
X168846428Y-88292857D01*
X168703571Y-88435714D01*
X168560714Y-88507142D01*
X167846428Y-85681428D02*
X167917857Y-85610000D01*
X168060714Y-85538571D01*
X168417857Y-85538571D01*
X168560714Y-85610000D01*
X168632142Y-85681428D01*
X168703571Y-85824285D01*
X168703571Y-85967142D01*
X168632142Y-86181428D01*
X167775000Y-87038571D01*
X168703571Y-87038571D01*
X167775000Y-82998571D02*
X168703571Y-82998571D01*
X168203571Y-83570000D01*
X168417857Y-83570000D01*
X168560714Y-83641428D01*
X168632142Y-83712857D01*
X168703571Y-83855714D01*
X168703571Y-84212857D01*
X168632142Y-84355714D01*
X168560714Y-84427142D01*
X168417857Y-84498571D01*
X167989285Y-84498571D01*
X167846428Y-84427142D01*
X167775000Y-84355714D01*
X168560714Y-80958571D02*
X168560714Y-81958571D01*
X168203571Y-80387142D02*
X167846428Y-81458571D01*
X168775000Y-81458571D01*
X168632142Y-77918571D02*
X167917857Y-77918571D01*
X167846428Y-78632857D01*
X167917857Y-78561428D01*
X168060714Y-78490000D01*
X168417857Y-78490000D01*
X168560714Y-78561428D01*
X168632142Y-78632857D01*
X168703571Y-78775714D01*
X168703571Y-79132857D01*
X168632142Y-79275714D01*
X168560714Y-79347142D01*
X168417857Y-79418571D01*
X168060714Y-79418571D01*
X167917857Y-79347142D01*
X167846428Y-79275714D01*
X168560714Y-75378571D02*
X168275000Y-75378571D01*
X168132142Y-75450000D01*
X168060714Y-75521428D01*
X167917857Y-75735714D01*
X167846428Y-76021428D01*
X167846428Y-76592857D01*
X167917857Y-76735714D01*
X167989285Y-76807142D01*
X168132142Y-76878571D01*
X168417857Y-76878571D01*
X168560714Y-76807142D01*
X168632142Y-76735714D01*
X168703571Y-76592857D01*
X168703571Y-76235714D01*
X168632142Y-76092857D01*
X168560714Y-76021428D01*
X168417857Y-75950000D01*
X168132142Y-75950000D01*
X167989285Y-76021428D01*
X167917857Y-76092857D01*
X167846428Y-76235714D01*
X167775000Y-72838571D02*
X168775000Y-72838571D01*
X168132142Y-74338571D01*
X168132142Y-70941428D02*
X167989285Y-70870000D01*
X167917857Y-70798571D01*
X167846428Y-70655714D01*
X167846428Y-70584285D01*
X167917857Y-70441428D01*
X167989285Y-70370000D01*
X168132142Y-70298571D01*
X168417857Y-70298571D01*
X168560714Y-70370000D01*
X168632142Y-70441428D01*
X168703571Y-70584285D01*
X168703571Y-70655714D01*
X168632142Y-70798571D01*
X168560714Y-70870000D01*
X168417857Y-70941428D01*
X168132142Y-70941428D01*
X167989285Y-71012857D01*
X167917857Y-71084285D01*
X167846428Y-71227142D01*
X167846428Y-71512857D01*
X167917857Y-71655714D01*
X167989285Y-71727142D01*
X168132142Y-71798571D01*
X168417857Y-71798571D01*
X168560714Y-71727142D01*
X168632142Y-71655714D01*
X168703571Y-71512857D01*
X168703571Y-71227142D01*
X168632142Y-71084285D01*
X168560714Y-71012857D01*
X168417857Y-70941428D01*
X167989285Y-69258571D02*
X168275000Y-69258571D01*
X168417857Y-69187142D01*
X168489285Y-69115714D01*
X168632142Y-68901428D01*
X168703571Y-68615714D01*
X168703571Y-68044285D01*
X168632142Y-67901428D01*
X168560714Y-67830000D01*
X168417857Y-67758571D01*
X168132142Y-67758571D01*
X167989285Y-67830000D01*
X167917857Y-67901428D01*
X167846428Y-68044285D01*
X167846428Y-68401428D01*
X167917857Y-68544285D01*
X167989285Y-68615714D01*
X168132142Y-68687142D01*
X168417857Y-68687142D01*
X168560714Y-68615714D01*
X168632142Y-68544285D01*
X168703571Y-68401428D01*
X133699285Y-69258571D02*
X132842142Y-69258571D01*
X133270714Y-69258571D02*
X133270714Y-67758571D01*
X133127857Y-67972857D01*
X132985000Y-68115714D01*
X132842142Y-68187142D01*
X134627857Y-67758571D02*
X134770714Y-67758571D01*
X134913571Y-67830000D01*
X134985000Y-67901428D01*
X135056428Y-68044285D01*
X135127857Y-68330000D01*
X135127857Y-68687142D01*
X135056428Y-68972857D01*
X134985000Y-69115714D01*
X134913571Y-69187142D01*
X134770714Y-69258571D01*
X134627857Y-69258571D01*
X134485000Y-69187142D01*
X134413571Y-69115714D01*
X134342142Y-68972857D01*
X134270714Y-68687142D01*
X134270714Y-68330000D01*
X134342142Y-68044285D01*
X134413571Y-67901428D01*
X134485000Y-67830000D01*
X134627857Y-67758571D01*
X133699285Y-71798571D02*
X132842142Y-71798571D01*
X133270714Y-71798571D02*
X133270714Y-70298571D01*
X133127857Y-70512857D01*
X132985000Y-70655714D01*
X132842142Y-70727142D01*
X135127857Y-71798571D02*
X134270714Y-71798571D01*
X134699285Y-71798571D02*
X134699285Y-70298571D01*
X134556428Y-70512857D01*
X134413571Y-70655714D01*
X134270714Y-70727142D01*
X133699285Y-74338571D02*
X132842142Y-74338571D01*
X133270714Y-74338571D02*
X133270714Y-72838571D01*
X133127857Y-73052857D01*
X132985000Y-73195714D01*
X132842142Y-73267142D01*
X134270714Y-72981428D02*
X134342142Y-72910000D01*
X134485000Y-72838571D01*
X134842142Y-72838571D01*
X134985000Y-72910000D01*
X135056428Y-72981428D01*
X135127857Y-73124285D01*
X135127857Y-73267142D01*
X135056428Y-73481428D01*
X134199285Y-74338571D01*
X135127857Y-74338571D01*
X133699285Y-76878571D02*
X132842142Y-76878571D01*
X133270714Y-76878571D02*
X133270714Y-75378571D01*
X133127857Y-75592857D01*
X132985000Y-75735714D01*
X132842142Y-75807142D01*
X134199285Y-75378571D02*
X135127857Y-75378571D01*
X134627857Y-75950000D01*
X134842142Y-75950000D01*
X134985000Y-76021428D01*
X135056428Y-76092857D01*
X135127857Y-76235714D01*
X135127857Y-76592857D01*
X135056428Y-76735714D01*
X134985000Y-76807142D01*
X134842142Y-76878571D01*
X134413571Y-76878571D01*
X134270714Y-76807142D01*
X134199285Y-76735714D01*
X133699285Y-79418571D02*
X132842142Y-79418571D01*
X133270714Y-79418571D02*
X133270714Y-77918571D01*
X133127857Y-78132857D01*
X132985000Y-78275714D01*
X132842142Y-78347142D01*
X134985000Y-78418571D02*
X134985000Y-79418571D01*
X134627857Y-77847142D02*
X134270714Y-78918571D01*
X135199285Y-78918571D01*
X133699285Y-81958571D02*
X132842142Y-81958571D01*
X133270714Y-81958571D02*
X133270714Y-80458571D01*
X133127857Y-80672857D01*
X132985000Y-80815714D01*
X132842142Y-80887142D01*
X135056428Y-80458571D02*
X134342142Y-80458571D01*
X134270714Y-81172857D01*
X134342142Y-81101428D01*
X134485000Y-81030000D01*
X134842142Y-81030000D01*
X134985000Y-81101428D01*
X135056428Y-81172857D01*
X135127857Y-81315714D01*
X135127857Y-81672857D01*
X135056428Y-81815714D01*
X134985000Y-81887142D01*
X134842142Y-81958571D01*
X134485000Y-81958571D01*
X134342142Y-81887142D01*
X134270714Y-81815714D01*
X133699285Y-84498571D02*
X132842142Y-84498571D01*
X133270714Y-84498571D02*
X133270714Y-82998571D01*
X133127857Y-83212857D01*
X132985000Y-83355714D01*
X132842142Y-83427142D01*
X134985000Y-82998571D02*
X134699285Y-82998571D01*
X134556428Y-83070000D01*
X134485000Y-83141428D01*
X134342142Y-83355714D01*
X134270714Y-83641428D01*
X134270714Y-84212857D01*
X134342142Y-84355714D01*
X134413571Y-84427142D01*
X134556428Y-84498571D01*
X134842142Y-84498571D01*
X134985000Y-84427142D01*
X135056428Y-84355714D01*
X135127857Y-84212857D01*
X135127857Y-83855714D01*
X135056428Y-83712857D01*
X134985000Y-83641428D01*
X134842142Y-83570000D01*
X134556428Y-83570000D01*
X134413571Y-83641428D01*
X134342142Y-83712857D01*
X134270714Y-83855714D01*
X133699285Y-87038571D02*
X132842142Y-87038571D01*
X133270714Y-87038571D02*
X133270714Y-85538571D01*
X133127857Y-85752857D01*
X132985000Y-85895714D01*
X132842142Y-85967142D01*
X134199285Y-85538571D02*
X135199285Y-85538571D01*
X134556428Y-87038571D01*
X133699285Y-89578571D02*
X132842142Y-89578571D01*
X133270714Y-89578571D02*
X133270714Y-88078571D01*
X133127857Y-88292857D01*
X132985000Y-88435714D01*
X132842142Y-88507142D01*
X134556428Y-88721428D02*
X134413571Y-88650000D01*
X134342142Y-88578571D01*
X134270714Y-88435714D01*
X134270714Y-88364285D01*
X134342142Y-88221428D01*
X134413571Y-88150000D01*
X134556428Y-88078571D01*
X134842142Y-88078571D01*
X134985000Y-88150000D01*
X135056428Y-88221428D01*
X135127857Y-88364285D01*
X135127857Y-88435714D01*
X135056428Y-88578571D01*
X134985000Y-88650000D01*
X134842142Y-88721428D01*
X134556428Y-88721428D01*
X134413571Y-88792857D01*
X134342142Y-88864285D01*
X134270714Y-89007142D01*
X134270714Y-89292857D01*
X134342142Y-89435714D01*
X134413571Y-89507142D01*
X134556428Y-89578571D01*
X134842142Y-89578571D01*
X134985000Y-89507142D01*
X135056428Y-89435714D01*
X135127857Y-89292857D01*
X135127857Y-89007142D01*
X135056428Y-88864285D01*
X134985000Y-88792857D01*
X134842142Y-88721428D01*
X133699285Y-92118571D02*
X132842142Y-92118571D01*
X133270714Y-92118571D02*
X133270714Y-90618571D01*
X133127857Y-90832857D01*
X132985000Y-90975714D01*
X132842142Y-91047142D01*
X134413571Y-92118571D02*
X134699285Y-92118571D01*
X134842142Y-92047142D01*
X134913571Y-91975714D01*
X135056428Y-91761428D01*
X135127857Y-91475714D01*
X135127857Y-90904285D01*
X135056428Y-90761428D01*
X134985000Y-90690000D01*
X134842142Y-90618571D01*
X134556428Y-90618571D01*
X134413571Y-90690000D01*
X134342142Y-90761428D01*
X134270714Y-90904285D01*
X134270714Y-91261428D01*
X134342142Y-91404285D01*
X134413571Y-91475714D01*
X134556428Y-91547142D01*
X134842142Y-91547142D01*
X134985000Y-91475714D01*
X135056428Y-91404285D01*
X135127857Y-91261428D01*
X132842142Y-93301428D02*
X132913571Y-93230000D01*
X133056428Y-93158571D01*
X133413571Y-93158571D01*
X133556428Y-93230000D01*
X133627857Y-93301428D01*
X133699285Y-93444285D01*
X133699285Y-93587142D01*
X133627857Y-93801428D01*
X132770714Y-94658571D01*
X133699285Y-94658571D01*
X134627857Y-93158571D02*
X134770714Y-93158571D01*
X134913571Y-93230000D01*
X134985000Y-93301428D01*
X135056428Y-93444285D01*
X135127857Y-93730000D01*
X135127857Y-94087142D01*
X135056428Y-94372857D01*
X134985000Y-94515714D01*
X134913571Y-94587142D01*
X134770714Y-94658571D01*
X134627857Y-94658571D01*
X134485000Y-94587142D01*
X134413571Y-94515714D01*
X134342142Y-94372857D01*
X134270714Y-94087142D01*
X134270714Y-93730000D01*
X134342142Y-93444285D01*
X134413571Y-93301428D01*
X134485000Y-93230000D01*
X134627857Y-93158571D01*
X132842142Y-95841428D02*
X132913571Y-95770000D01*
X133056428Y-95698571D01*
X133413571Y-95698571D01*
X133556428Y-95770000D01*
X133627857Y-95841428D01*
X133699285Y-95984285D01*
X133699285Y-96127142D01*
X133627857Y-96341428D01*
X132770714Y-97198571D01*
X133699285Y-97198571D01*
X135127857Y-97198571D02*
X134270714Y-97198571D01*
X134699285Y-97198571D02*
X134699285Y-95698571D01*
X134556428Y-95912857D01*
X134413571Y-96055714D01*
X134270714Y-96127142D01*
X132842142Y-98381428D02*
X132913571Y-98310000D01*
X133056428Y-98238571D01*
X133413571Y-98238571D01*
X133556428Y-98310000D01*
X133627857Y-98381428D01*
X133699285Y-98524285D01*
X133699285Y-98667142D01*
X133627857Y-98881428D01*
X132770714Y-99738571D01*
X133699285Y-99738571D01*
X134270714Y-98381428D02*
X134342142Y-98310000D01*
X134485000Y-98238571D01*
X134842142Y-98238571D01*
X134985000Y-98310000D01*
X135056428Y-98381428D01*
X135127857Y-98524285D01*
X135127857Y-98667142D01*
X135056428Y-98881428D01*
X134199285Y-99738571D01*
X135127857Y-99738571D01*
X132842142Y-100921428D02*
X132913571Y-100850000D01*
X133056428Y-100778571D01*
X133413571Y-100778571D01*
X133556428Y-100850000D01*
X133627857Y-100921428D01*
X133699285Y-101064285D01*
X133699285Y-101207142D01*
X133627857Y-101421428D01*
X132770714Y-102278571D01*
X133699285Y-102278571D01*
X134199285Y-100778571D02*
X135127857Y-100778571D01*
X134627857Y-101350000D01*
X134842142Y-101350000D01*
X134985000Y-101421428D01*
X135056428Y-101492857D01*
X135127857Y-101635714D01*
X135127857Y-101992857D01*
X135056428Y-102135714D01*
X134985000Y-102207142D01*
X134842142Y-102278571D01*
X134413571Y-102278571D01*
X134270714Y-102207142D01*
X134199285Y-102135714D01*
X132842142Y-103461428D02*
X132913571Y-103390000D01*
X133056428Y-103318571D01*
X133413571Y-103318571D01*
X133556428Y-103390000D01*
X133627857Y-103461428D01*
X133699285Y-103604285D01*
X133699285Y-103747142D01*
X133627857Y-103961428D01*
X132770714Y-104818571D01*
X133699285Y-104818571D01*
X134985000Y-103818571D02*
X134985000Y-104818571D01*
X134627857Y-103247142D02*
X134270714Y-104318571D01*
X135199285Y-104318571D01*
D10*
X139509523Y-65492380D02*
X139033333Y-65492380D01*
X138985714Y-65968571D01*
X139033333Y-65920952D01*
X139128571Y-65873333D01*
X139366666Y-65873333D01*
X139461904Y-65920952D01*
X139509523Y-65968571D01*
X139557142Y-66063809D01*
X139557142Y-66301904D01*
X139509523Y-66397142D01*
X139461904Y-66444761D01*
X139366666Y-66492380D01*
X139128571Y-66492380D01*
X139033333Y-66444761D01*
X138985714Y-66397142D01*
X139842857Y-65492380D02*
X140176190Y-66492380D01*
X140509523Y-65492380D01*
X132651666Y-60412380D02*
X132985000Y-61412380D01*
X133318333Y-60412380D01*
X133651666Y-61412380D02*
X133651666Y-60412380D01*
X133889761Y-60412380D01*
X134032619Y-60460000D01*
X134127857Y-60555238D01*
X134175476Y-60650476D01*
X134223095Y-60840952D01*
X134223095Y-60983809D01*
X134175476Y-61174285D01*
X134127857Y-61269523D01*
X134032619Y-61364761D01*
X133889761Y-61412380D01*
X133651666Y-61412380D01*
X134651666Y-61412380D02*
X134651666Y-60412380D01*
X134889761Y-60412380D01*
X135032619Y-60460000D01*
X135127857Y-60555238D01*
X135175476Y-60650476D01*
X135223095Y-60840952D01*
X135223095Y-60983809D01*
X135175476Y-61174285D01*
X135127857Y-61269523D01*
X135032619Y-61364761D01*
X134889761Y-61412380D01*
X134651666Y-61412380D01*
X153971904Y-58364380D02*
X153971904Y-57364380D01*
X154210000Y-57364380D01*
X154352857Y-57412000D01*
X154448095Y-57507238D01*
X154495714Y-57602476D01*
X154543333Y-57792952D01*
X154543333Y-57935809D01*
X154495714Y-58126285D01*
X154448095Y-58221523D01*
X154352857Y-58316761D01*
X154210000Y-58364380D01*
X153971904Y-58364380D01*
X154971904Y-57840571D02*
X155305238Y-57840571D01*
X155448095Y-58364380D02*
X154971904Y-58364380D01*
X154971904Y-57364380D01*
X155448095Y-57364380D01*
X156210000Y-57840571D02*
X156352857Y-57888190D01*
X156400476Y-57935809D01*
X156448095Y-58031047D01*
X156448095Y-58173904D01*
X156400476Y-58269142D01*
X156352857Y-58316761D01*
X156257619Y-58364380D01*
X155876666Y-58364380D01*
X155876666Y-57364380D01*
X156210000Y-57364380D01*
X156305238Y-57412000D01*
X156352857Y-57459619D01*
X156400476Y-57554857D01*
X156400476Y-57650095D01*
X156352857Y-57745333D01*
X156305238Y-57792952D01*
X156210000Y-57840571D01*
X155876666Y-57840571D01*
X156876666Y-57364380D02*
X156876666Y-58173904D01*
X156924285Y-58269142D01*
X156971904Y-58316761D01*
X157067142Y-58364380D01*
X157257619Y-58364380D01*
X157352857Y-58316761D01*
X157400476Y-58269142D01*
X157448095Y-58173904D01*
X157448095Y-57364380D01*
X158448095Y-57412000D02*
X158352857Y-57364380D01*
X158210000Y-57364380D01*
X158067142Y-57412000D01*
X157971904Y-57507238D01*
X157924285Y-57602476D01*
X157876666Y-57792952D01*
X157876666Y-57935809D01*
X157924285Y-58126285D01*
X157971904Y-58221523D01*
X158067142Y-58316761D01*
X158210000Y-58364380D01*
X158305238Y-58364380D01*
X158448095Y-58316761D01*
X158495714Y-58269142D01*
X158495714Y-57935809D01*
X158305238Y-57935809D01*
X132651666Y-62952380D02*
X132985000Y-63952380D01*
X133318333Y-62952380D01*
X133651666Y-63952380D02*
X133651666Y-62952380D01*
X133889761Y-62952380D01*
X134032619Y-63000000D01*
X134127857Y-63095238D01*
X134175476Y-63190476D01*
X134223095Y-63380952D01*
X134223095Y-63523809D01*
X134175476Y-63714285D01*
X134127857Y-63809523D01*
X134032619Y-63904761D01*
X133889761Y-63952380D01*
X133651666Y-63952380D01*
X134651666Y-63952380D02*
X134651666Y-62952380D01*
X134889761Y-62952380D01*
X135032619Y-63000000D01*
X135127857Y-63095238D01*
X135175476Y-63190476D01*
X135223095Y-63380952D01*
X135223095Y-63523809D01*
X135175476Y-63714285D01*
X135127857Y-63809523D01*
X135032619Y-63904761D01*
X134889761Y-63952380D01*
X134651666Y-63952380D01*
X133223095Y-55380000D02*
X133127857Y-55332380D01*
X132985000Y-55332380D01*
X132842142Y-55380000D01*
X132746904Y-55475238D01*
X132699285Y-55570476D01*
X132651666Y-55760952D01*
X132651666Y-55903809D01*
X132699285Y-56094285D01*
X132746904Y-56189523D01*
X132842142Y-56284761D01*
X132985000Y-56332380D01*
X133080238Y-56332380D01*
X133223095Y-56284761D01*
X133270714Y-56237142D01*
X133270714Y-55903809D01*
X133080238Y-55903809D01*
X133699285Y-56332380D02*
X133699285Y-55332380D01*
X134270714Y-56332380D01*
X134270714Y-55332380D01*
X134746904Y-56332380D02*
X134746904Y-55332380D01*
X134985000Y-55332380D01*
X135127857Y-55380000D01*
X135223095Y-55475238D01*
X135270714Y-55570476D01*
X135318333Y-55760952D01*
X135318333Y-55903809D01*
X135270714Y-56094285D01*
X135223095Y-56189523D01*
X135127857Y-56284761D01*
X134985000Y-56332380D01*
X134746904Y-56332380D01*
X133223095Y-57920000D02*
X133127857Y-57872380D01*
X132985000Y-57872380D01*
X132842142Y-57920000D01*
X132746904Y-58015238D01*
X132699285Y-58110476D01*
X132651666Y-58300952D01*
X132651666Y-58443809D01*
X132699285Y-58634285D01*
X132746904Y-58729523D01*
X132842142Y-58824761D01*
X132985000Y-58872380D01*
X133080238Y-58872380D01*
X133223095Y-58824761D01*
X133270714Y-58777142D01*
X133270714Y-58443809D01*
X133080238Y-58443809D01*
X133699285Y-58872380D02*
X133699285Y-57872380D01*
X134270714Y-58872380D01*
X134270714Y-57872380D01*
X134746904Y-58872380D02*
X134746904Y-57872380D01*
X134985000Y-57872380D01*
X135127857Y-57920000D01*
X135223095Y-58015238D01*
X135270714Y-58110476D01*
X135318333Y-58300952D01*
X135318333Y-58443809D01*
X135270714Y-58634285D01*
X135223095Y-58729523D01*
X135127857Y-58824761D01*
X134985000Y-58872380D01*
X134746904Y-58872380D01*
X163012380Y-53752619D02*
X162012380Y-53752619D01*
X161964761Y-52562142D02*
X163250476Y-53419285D01*
X162012380Y-52038333D02*
X162012380Y-51847857D01*
X162060000Y-51752619D01*
X162155238Y-51657380D01*
X162345714Y-51609761D01*
X162679047Y-51609761D01*
X162869523Y-51657380D01*
X162964761Y-51752619D01*
X163012380Y-51847857D01*
X163012380Y-52038333D01*
X162964761Y-52133571D01*
X162869523Y-52228809D01*
X162679047Y-52276428D01*
X162345714Y-52276428D01*
X162155238Y-52228809D01*
X162060000Y-52133571D01*
X162012380Y-52038333D01*
X159520000Y-53466904D02*
X159472380Y-53562142D01*
X159472380Y-53705000D01*
X159520000Y-53847857D01*
X159615238Y-53943095D01*
X159710476Y-53990714D01*
X159900952Y-54038333D01*
X160043809Y-54038333D01*
X160234285Y-53990714D01*
X160329523Y-53943095D01*
X160424761Y-53847857D01*
X160472380Y-53705000D01*
X160472380Y-53609761D01*
X160424761Y-53466904D01*
X160377142Y-53419285D01*
X160043809Y-53419285D01*
X160043809Y-53609761D01*
X160472380Y-52990714D02*
X159472380Y-52990714D01*
X160472380Y-52419285D01*
X159472380Y-52419285D01*
X160472380Y-51943095D02*
X159472380Y-51943095D01*
X159472380Y-51705000D01*
X159520000Y-51562142D01*
X159615238Y-51466904D01*
X159710476Y-51419285D01*
X159900952Y-51371666D01*
X160043809Y-51371666D01*
X160234285Y-51419285D01*
X160329523Y-51466904D01*
X160424761Y-51562142D01*
X160472380Y-51705000D01*
X160472380Y-51943095D01*
X157837142Y-53300238D02*
X157884761Y-53347857D01*
X157932380Y-53490714D01*
X157932380Y-53585952D01*
X157884761Y-53728809D01*
X157789523Y-53824047D01*
X157694285Y-53871666D01*
X157503809Y-53919285D01*
X157360952Y-53919285D01*
X157170476Y-53871666D01*
X157075238Y-53824047D01*
X156980000Y-53728809D01*
X156932380Y-53585952D01*
X156932380Y-53490714D01*
X156980000Y-53347857D01*
X157027619Y-53300238D01*
X157932380Y-52395476D02*
X157932380Y-52871666D01*
X156932380Y-52871666D01*
X157932380Y-52062142D02*
X156932380Y-52062142D01*
X157932380Y-51490714D02*
X157360952Y-51919285D01*
X156932380Y-51490714D02*
X157503809Y-52062142D01*
X154392380Y-54038333D02*
X155392380Y-53705000D01*
X154392380Y-53371666D01*
X155392380Y-53038333D02*
X154392380Y-53038333D01*
X154392380Y-52800238D01*
X154440000Y-52657380D01*
X154535238Y-52562142D01*
X154630476Y-52514523D01*
X154820952Y-52466904D01*
X154963809Y-52466904D01*
X155154285Y-52514523D01*
X155249523Y-52562142D01*
X155344761Y-52657380D01*
X155392380Y-52800238D01*
X155392380Y-53038333D01*
X155392380Y-52038333D02*
X154392380Y-52038333D01*
X154392380Y-51800238D01*
X154440000Y-51657380D01*
X154535238Y-51562142D01*
X154630476Y-51514523D01*
X154820952Y-51466904D01*
X154963809Y-51466904D01*
X155154285Y-51514523D01*
X155249523Y-51562142D01*
X155344761Y-51657380D01*
X155392380Y-51800238D01*
X155392380Y-52038333D01*
D13*
G04 #@! TO.C,SW1*
X158635000Y-65540000D02*
X158635000Y-69540000D01*
X158635000Y-69540000D02*
X154635000Y-69540000D01*
X154635000Y-69540000D02*
X154635000Y-65540000D01*
X154635000Y-65540000D02*
X158635000Y-65540000D01*
X157635000Y-67540000D02*
G75*
G03X157635000Y-67540000I-1000000J0D01*
G01*
D14*
G04 #@! TO.C,D2*
X142812500Y-60650000D02*
X145497500Y-60650000D01*
X145497500Y-60650000D02*
X145497500Y-58730000D01*
X145497500Y-58730000D02*
X142812500Y-58730000D01*
G04 #@! TO.C,J3*
X151070000Y-54550000D02*
X151070000Y-57210000D01*
X161290000Y-54550000D02*
X151070000Y-54550000D01*
X161290000Y-57210000D02*
X151070000Y-57210000D01*
X161290000Y-54550000D02*
X161290000Y-57210000D01*
X162560000Y-54550000D02*
X163890000Y-54550000D01*
X163890000Y-54550000D02*
X163890000Y-55880000D01*
D13*
G04 #@! TO.C,U1*
X142240000Y-86360000D02*
X159740000Y-86360000D01*
X159740000Y-86360000D02*
X159740000Y-115060000D01*
X159740000Y-115060000D02*
X142240000Y-115060000D01*
X142240000Y-115060000D02*
X142240000Y-86360000D01*
D14*
G04 #@! TO.C,D1*
X142842500Y-63190000D02*
X145527500Y-63190000D01*
X145527500Y-63190000D02*
X145527500Y-61270000D01*
X145527500Y-61270000D02*
X142842500Y-61270000D01*
G04 #@! TO.C,C2*
X144101078Y-68020000D02*
X143583922Y-68020000D01*
X144101078Y-66600000D02*
X143583922Y-66600000D01*
G04 #@! TO.C,C3*
X144101078Y-69140000D02*
X143583922Y-69140000D01*
X144101078Y-70560000D02*
X143583922Y-70560000D01*
G04 #@! TO.C,C1*
X144101078Y-65480000D02*
X143583922Y-65480000D01*
X144101078Y-64060000D02*
X143583922Y-64060000D01*
G04 #@! TO.C,L1*
X161850000Y-91483922D02*
X161850000Y-92001078D01*
X163270000Y-91483922D02*
X163270000Y-92001078D01*
G04 #@! TO.C,L2*
X163270000Y-87673922D02*
X163270000Y-88191078D01*
X161850000Y-87673922D02*
X161850000Y-88191078D01*
G04 #@! TO.C,R1*
X143583922Y-71680000D02*
X144101078Y-71680000D01*
X143583922Y-73100000D02*
X144101078Y-73100000D01*
D13*
G04 #@! TO.C,J4*
X148930000Y-55260000D02*
X148930000Y-53860000D01*
X148930000Y-51460000D02*
X148930000Y-51310000D01*
X148930000Y-51310000D02*
X148630000Y-51310000D01*
X148630000Y-51310000D02*
X148630000Y-50860000D01*
X140930000Y-50860000D02*
X140930000Y-51310000D01*
X140930000Y-51310000D02*
X140630000Y-51310000D01*
X140630000Y-51310000D02*
X140630000Y-51460000D01*
X140630000Y-53860000D02*
X140630000Y-55260000D01*
X145855000Y-57435000D02*
X146580000Y-57435000D01*
X146580000Y-57435000D02*
X146580000Y-57010000D01*
X146580000Y-57010000D02*
X147580000Y-57010000D01*
X142980000Y-57010000D02*
X141980000Y-57010000D01*
D14*
G04 #@! TO.C,U2*
X151252000Y-61200000D02*
X150322000Y-61200000D01*
X148092000Y-61200000D02*
X149022000Y-61200000D01*
X148092000Y-61200000D02*
X148092000Y-63360000D01*
X151252000Y-61200000D02*
X151252000Y-62660000D01*
G04 #@! TO.C,J8*
X138370000Y-59630000D02*
X139700000Y-59630000D01*
X138370000Y-60960000D02*
X138370000Y-59630000D01*
X138370000Y-62230000D02*
X141030000Y-62230000D01*
X141030000Y-62230000D02*
X141030000Y-64830000D01*
X138370000Y-62230000D02*
X138370000Y-64830000D01*
X138370000Y-64830000D02*
X141030000Y-64830000D01*
G04 #@! TO.C,J7*
X161230000Y-64830000D02*
X163890000Y-64830000D01*
X161230000Y-62230000D02*
X161230000Y-64830000D01*
X163890000Y-62230000D02*
X163890000Y-64830000D01*
X161230000Y-62230000D02*
X163890000Y-62230000D01*
X161230000Y-60960000D02*
X161230000Y-59630000D01*
X161230000Y-59630000D02*
X162560000Y-59630000D01*
G04 #@! TO.C,J1*
X163770000Y-105470000D02*
X166430000Y-105470000D01*
X163770000Y-57150000D02*
X163770000Y-105470000D01*
X166430000Y-57150000D02*
X166430000Y-105470000D01*
X163770000Y-57150000D02*
X166430000Y-57150000D01*
X163770000Y-55880000D02*
X163770000Y-54550000D01*
X163770000Y-54550000D02*
X165100000Y-54550000D01*
G04 #@! TO.C,J2*
X135830000Y-54550000D02*
X137160000Y-54550000D01*
X135830000Y-55880000D02*
X135830000Y-54550000D01*
X135830000Y-57150000D02*
X138490000Y-57150000D01*
X138490000Y-57150000D02*
X138490000Y-105470000D01*
X135830000Y-57150000D02*
X135830000Y-105470000D01*
X135830000Y-105470000D02*
X138490000Y-105470000D01*
G04 #@! TO.C,J6*
X159445000Y-62090000D02*
X159445000Y-61267530D01*
X159445000Y-59382470D02*
X159445000Y-58560000D01*
X159445000Y-60652470D02*
X159445000Y-59997530D01*
X154430000Y-62090000D02*
X159445000Y-62090000D01*
X152975000Y-58560000D02*
X159445000Y-58560000D01*
X154430000Y-62090000D02*
X154430000Y-61523471D01*
X154430000Y-60396529D02*
X154430000Y-60253471D01*
X154376529Y-60200000D02*
X154233471Y-60200000D01*
X153106529Y-60200000D02*
X152975000Y-60200000D01*
X152975000Y-60200000D02*
X152975000Y-59997530D01*
X152975000Y-59382470D02*
X152975000Y-58560000D01*
X153670000Y-62090000D02*
X152910000Y-62090000D01*
X152910000Y-62090000D02*
X152910000Y-60960000D01*
G04 #@! TO.C,SW1*
D13*
X155301666Y-64944761D02*
X155444523Y-64992380D01*
X155682619Y-64992380D01*
X155777857Y-64944761D01*
X155825476Y-64897142D01*
X155873095Y-64801904D01*
X155873095Y-64706666D01*
X155825476Y-64611428D01*
X155777857Y-64563809D01*
X155682619Y-64516190D01*
X155492142Y-64468571D01*
X155396904Y-64420952D01*
X155349285Y-64373333D01*
X155301666Y-64278095D01*
X155301666Y-64182857D01*
X155349285Y-64087619D01*
X155396904Y-64040000D01*
X155492142Y-63992380D01*
X155730238Y-63992380D01*
X155873095Y-64040000D01*
X156206428Y-63992380D02*
X156444523Y-64992380D01*
X156635000Y-64278095D01*
X156825476Y-64992380D01*
X157063571Y-63992380D01*
X157968333Y-64992380D02*
X157396904Y-64992380D01*
X157682619Y-64992380D02*
X157682619Y-63992380D01*
X157587380Y-64135238D01*
X157492142Y-64230476D01*
X157396904Y-64278095D01*
G04 #@! TO.C,D2*
X145946904Y-60142380D02*
X145946904Y-59142380D01*
X146185000Y-59142380D01*
X146327857Y-59190000D01*
X146423095Y-59285238D01*
X146470714Y-59380476D01*
X146518333Y-59570952D01*
X146518333Y-59713809D01*
X146470714Y-59904285D01*
X146423095Y-59999523D01*
X146327857Y-60094761D01*
X146185000Y-60142380D01*
X145946904Y-60142380D01*
X146899285Y-59237619D02*
X146946904Y-59190000D01*
X147042142Y-59142380D01*
X147280238Y-59142380D01*
X147375476Y-59190000D01*
X147423095Y-59237619D01*
X147470714Y-59332857D01*
X147470714Y-59428095D01*
X147423095Y-59570952D01*
X146851666Y-60142380D01*
X147470714Y-60142380D01*
G04 #@! TO.C,J3*
X164342380Y-56213333D02*
X165056666Y-56213333D01*
X165199523Y-56260952D01*
X165294761Y-56356190D01*
X165342380Y-56499047D01*
X165342380Y-56594285D01*
X164342380Y-55832380D02*
X164342380Y-55213333D01*
X164723333Y-55546666D01*
X164723333Y-55403809D01*
X164770952Y-55308571D01*
X164818571Y-55260952D01*
X164913809Y-55213333D01*
X165151904Y-55213333D01*
X165247142Y-55260952D01*
X165294761Y-55308571D01*
X165342380Y-55403809D01*
X165342380Y-55689523D01*
X165294761Y-55784761D01*
X165247142Y-55832380D01*
G04 #@! TO.C,U1*
X161798095Y-109942380D02*
X161798095Y-110751904D01*
X161845714Y-110847142D01*
X161893333Y-110894761D01*
X161988571Y-110942380D01*
X162179047Y-110942380D01*
X162274285Y-110894761D01*
X162321904Y-110847142D01*
X162369523Y-110751904D01*
X162369523Y-109942380D01*
X163369523Y-110942380D02*
X162798095Y-110942380D01*
X163083809Y-110942380D02*
X163083809Y-109942380D01*
X162988571Y-110085238D01*
X162893333Y-110180476D01*
X162798095Y-110228095D01*
G04 #@! TO.C,D1*
X145819904Y-62682380D02*
X145819904Y-61682380D01*
X146058000Y-61682380D01*
X146200857Y-61730000D01*
X146296095Y-61825238D01*
X146343714Y-61920476D01*
X146391333Y-62110952D01*
X146391333Y-62253809D01*
X146343714Y-62444285D01*
X146296095Y-62539523D01*
X146200857Y-62634761D01*
X146058000Y-62682380D01*
X145819904Y-62682380D01*
X147343714Y-62682380D02*
X146772285Y-62682380D01*
X147058000Y-62682380D02*
X147058000Y-61682380D01*
X146962761Y-61825238D01*
X146867523Y-61920476D01*
X146772285Y-61968095D01*
G04 #@! TO.C,C2*
X146518333Y-67667142D02*
X146470714Y-67714761D01*
X146327857Y-67762380D01*
X146232619Y-67762380D01*
X146089761Y-67714761D01*
X145994523Y-67619523D01*
X145946904Y-67524285D01*
X145899285Y-67333809D01*
X145899285Y-67190952D01*
X145946904Y-67000476D01*
X145994523Y-66905238D01*
X146089761Y-66810000D01*
X146232619Y-66762380D01*
X146327857Y-66762380D01*
X146470714Y-66810000D01*
X146518333Y-66857619D01*
X146899285Y-66857619D02*
X146946904Y-66810000D01*
X147042142Y-66762380D01*
X147280238Y-66762380D01*
X147375476Y-66810000D01*
X147423095Y-66857619D01*
X147470714Y-66952857D01*
X147470714Y-67048095D01*
X147423095Y-67190952D01*
X146851666Y-67762380D01*
X147470714Y-67762380D01*
G04 #@! TO.C,C3*
X146421333Y-70207142D02*
X146373714Y-70254761D01*
X146230857Y-70302380D01*
X146135619Y-70302380D01*
X145992761Y-70254761D01*
X145897523Y-70159523D01*
X145849904Y-70064285D01*
X145802285Y-69873809D01*
X145802285Y-69730952D01*
X145849904Y-69540476D01*
X145897523Y-69445238D01*
X145992761Y-69350000D01*
X146135619Y-69302380D01*
X146230857Y-69302380D01*
X146373714Y-69350000D01*
X146421333Y-69397619D01*
X146754666Y-69302380D02*
X147373714Y-69302380D01*
X147040380Y-69683333D01*
X147183238Y-69683333D01*
X147278476Y-69730952D01*
X147326095Y-69778571D01*
X147373714Y-69873809D01*
X147373714Y-70111904D01*
X147326095Y-70207142D01*
X147278476Y-70254761D01*
X147183238Y-70302380D01*
X146897523Y-70302380D01*
X146802285Y-70254761D01*
X146754666Y-70207142D01*
G04 #@! TO.C,C1*
X146391333Y-65127142D02*
X146343714Y-65174761D01*
X146200857Y-65222380D01*
X146105619Y-65222380D01*
X145962761Y-65174761D01*
X145867523Y-65079523D01*
X145819904Y-64984285D01*
X145772285Y-64793809D01*
X145772285Y-64650952D01*
X145819904Y-64460476D01*
X145867523Y-64365238D01*
X145962761Y-64270000D01*
X146105619Y-64222380D01*
X146200857Y-64222380D01*
X146343714Y-64270000D01*
X146391333Y-64317619D01*
X147343714Y-65222380D02*
X146772285Y-65222380D01*
X147058000Y-65222380D02*
X147058000Y-64222380D01*
X146962761Y-64365238D01*
X146867523Y-64460476D01*
X146772285Y-64508095D01*
G04 #@! TO.C,L1*
X161488380Y-91606666D02*
X161488380Y-92082857D01*
X160488380Y-92082857D01*
X161488380Y-90749523D02*
X161488380Y-91320952D01*
X161488380Y-91035238D02*
X160488380Y-91035238D01*
X160631238Y-91130476D01*
X160726476Y-91225714D01*
X160774095Y-91320952D01*
G04 #@! TO.C,L2*
X161488380Y-88099166D02*
X161488380Y-88575357D01*
X160488380Y-88575357D01*
X160583619Y-87813452D02*
X160536000Y-87765833D01*
X160488380Y-87670595D01*
X160488380Y-87432500D01*
X160536000Y-87337261D01*
X160583619Y-87289642D01*
X160678857Y-87242023D01*
X160774095Y-87242023D01*
X160916952Y-87289642D01*
X161488380Y-87861071D01*
X161488380Y-87242023D01*
G04 #@! TO.C,R1*
X146421333Y-72842380D02*
X146088000Y-72366190D01*
X145849904Y-72842380D02*
X145849904Y-71842380D01*
X146230857Y-71842380D01*
X146326095Y-71890000D01*
X146373714Y-71937619D01*
X146421333Y-72032857D01*
X146421333Y-72175714D01*
X146373714Y-72270952D01*
X146326095Y-72318571D01*
X146230857Y-72366190D01*
X145849904Y-72366190D01*
X147373714Y-72842380D02*
X146802285Y-72842380D01*
X147088000Y-72842380D02*
X147088000Y-71842380D01*
X146992761Y-71985238D01*
X146897523Y-72080476D01*
X146802285Y-72128095D01*
G04 #@! TO.C,J4*
X144446666Y-57562380D02*
X144446666Y-58276666D01*
X144399047Y-58419523D01*
X144303809Y-58514761D01*
X144160952Y-58562380D01*
X144065714Y-58562380D01*
X145351428Y-57895714D02*
X145351428Y-58562380D01*
X145113333Y-57514761D02*
X144875238Y-58229047D01*
X145494285Y-58229047D01*
G04 #@! TO.C,U2*
X148910095Y-63968380D02*
X148910095Y-64777904D01*
X148957714Y-64873142D01*
X149005333Y-64920761D01*
X149100571Y-64968380D01*
X149291047Y-64968380D01*
X149386285Y-64920761D01*
X149433904Y-64873142D01*
X149481523Y-64777904D01*
X149481523Y-63968380D01*
X149910095Y-64063619D02*
X149957714Y-64016000D01*
X150052952Y-63968380D01*
X150291047Y-63968380D01*
X150386285Y-64016000D01*
X150433904Y-64063619D01*
X150481523Y-64158857D01*
X150481523Y-64254095D01*
X150433904Y-64396952D01*
X149862476Y-64968380D01*
X150481523Y-64968380D01*
G04 #@! TO.C,J8*
X139366666Y-58082380D02*
X139366666Y-58796666D01*
X139319047Y-58939523D01*
X139223809Y-59034761D01*
X139080952Y-59082380D01*
X138985714Y-59082380D01*
X139985714Y-58510952D02*
X139890476Y-58463333D01*
X139842857Y-58415714D01*
X139795238Y-58320476D01*
X139795238Y-58272857D01*
X139842857Y-58177619D01*
X139890476Y-58130000D01*
X139985714Y-58082380D01*
X140176190Y-58082380D01*
X140271428Y-58130000D01*
X140319047Y-58177619D01*
X140366666Y-58272857D01*
X140366666Y-58320476D01*
X140319047Y-58415714D01*
X140271428Y-58463333D01*
X140176190Y-58510952D01*
X139985714Y-58510952D01*
X139890476Y-58558571D01*
X139842857Y-58606190D01*
X139795238Y-58701428D01*
X139795238Y-58891904D01*
X139842857Y-58987142D01*
X139890476Y-59034761D01*
X139985714Y-59082380D01*
X140176190Y-59082380D01*
X140271428Y-59034761D01*
X140319047Y-58987142D01*
X140366666Y-58891904D01*
X140366666Y-58701428D01*
X140319047Y-58606190D01*
X140271428Y-58558571D01*
X140176190Y-58510952D01*
G04 #@! TO.C,J7*
X162226666Y-58082380D02*
X162226666Y-58796666D01*
X162179047Y-58939523D01*
X162083809Y-59034761D01*
X161940952Y-59082380D01*
X161845714Y-59082380D01*
X162607619Y-58082380D02*
X163274285Y-58082380D01*
X162845714Y-59082380D01*
G04 #@! TO.C,J1*
X164766666Y-53002380D02*
X164766666Y-53716666D01*
X164719047Y-53859523D01*
X164623809Y-53954761D01*
X164480952Y-54002380D01*
X164385714Y-54002380D01*
X165766666Y-54002380D02*
X165195238Y-54002380D01*
X165480952Y-54002380D02*
X165480952Y-53002380D01*
X165385714Y-53145238D01*
X165290476Y-53240476D01*
X165195238Y-53288095D01*
G04 #@! TO.C,J2*
X136826666Y-53002380D02*
X136826666Y-53716666D01*
X136779047Y-53859523D01*
X136683809Y-53954761D01*
X136540952Y-54002380D01*
X136445714Y-54002380D01*
X137255238Y-53097619D02*
X137302857Y-53050000D01*
X137398095Y-53002380D01*
X137636190Y-53002380D01*
X137731428Y-53050000D01*
X137779047Y-53097619D01*
X137826666Y-53192857D01*
X137826666Y-53288095D01*
X137779047Y-53430952D01*
X137207619Y-54002380D01*
X137826666Y-54002380D01*
G04 #@! TO.C,J6*
X151641666Y-59777380D02*
X151641666Y-60491666D01*
X151594047Y-60634523D01*
X151498809Y-60729761D01*
X151355952Y-60777380D01*
X151260714Y-60777380D01*
X152546428Y-59777380D02*
X152355952Y-59777380D01*
X152260714Y-59825000D01*
X152213095Y-59872619D01*
X152117857Y-60015476D01*
X152070238Y-60205952D01*
X152070238Y-60586904D01*
X152117857Y-60682142D01*
X152165476Y-60729761D01*
X152260714Y-60777380D01*
X152451190Y-60777380D01*
X152546428Y-60729761D01*
X152594047Y-60682142D01*
X152641666Y-60586904D01*
X152641666Y-60348809D01*
X152594047Y-60253571D01*
X152546428Y-60205952D01*
X152451190Y-60158333D01*
X152260714Y-60158333D01*
X152165476Y-60205952D01*
X152117857Y-60253571D01*
X152070238Y-60348809D01*
G04 #@! TD*
M02*
