G04 #@! TF.GenerationSoftware,KiCad,Pcbnew,5.0.1*
G04 #@! TF.CreationDate,2019-01-03T14:35:23+01:00*
G04 #@! TF.ProjectId,e73-ab,6537332D61622E6B696361645F706362,rev?*
G04 #@! TF.SameCoordinates,Original*
G04 #@! TF.FileFunction,Copper,L1,Top,Signal*
G04 #@! TF.FilePolarity,Positive*
%FSLAX46Y46*%
G04 Gerber Fmt 4.6, Leading zero omitted, Abs format (unit mm)*
G04 Created by KiCad (PCBNEW 5.0.1) date do 03 jan 2019 14:35:23 CET*
%MOMM*%
%LPD*%
G01*
G04 APERTURE LIST*
G04 #@! TA.AperFunction,SMDPad,CuDef*
%ADD10R,1.800000X1.100000*%
G04 #@! TD*
G04 #@! TA.AperFunction,Conductor*
%ADD11C,0.100000*%
G04 #@! TD*
G04 #@! TA.AperFunction,SMDPad,CuDef*
%ADD12C,0.975000*%
G04 #@! TD*
G04 #@! TA.AperFunction,ComponentPad*
%ADD13R,1.700000X1.700000*%
G04 #@! TD*
G04 #@! TA.AperFunction,ComponentPad*
%ADD14O,1.700000X1.700000*%
G04 #@! TD*
G04 #@! TA.AperFunction,SMDPad,CuDef*
%ADD15R,1.500000X0.500000*%
G04 #@! TD*
G04 #@! TA.AperFunction,SMDPad,CuDef*
%ADD16R,0.500000X1.500000*%
G04 #@! TD*
G04 #@! TA.AperFunction,SMDPad,CuDef*
%ADD17R,0.450000X1.300000*%
G04 #@! TD*
G04 #@! TA.AperFunction,ComponentPad*
%ADD18O,1.450000X2.000000*%
G04 #@! TD*
G04 #@! TA.AperFunction,ComponentPad*
%ADD19O,1.150000X1.800000*%
G04 #@! TD*
G04 #@! TA.AperFunction,SMDPad,CuDef*
%ADD20R,0.800000X0.900000*%
G04 #@! TD*
G04 #@! TA.AperFunction,ComponentPad*
%ADD21R,1.000000X1.000000*%
G04 #@! TD*
G04 #@! TA.AperFunction,ComponentPad*
%ADD22O,1.000000X1.000000*%
G04 #@! TD*
G04 #@! TA.AperFunction,ViaPad*
%ADD23C,0.800000*%
G04 #@! TD*
G04 #@! TA.AperFunction,Conductor*
%ADD24C,0.200000*%
G04 #@! TD*
G04 #@! TA.AperFunction,Conductor*
%ADD25C,0.254000*%
G04 #@! TD*
G04 APERTURE END LIST*
D10*
G04 #@! TO.P,SW1,1*
G04 #@! TO.N,!RST*
X159785000Y-69390000D03*
G04 #@! TO.P,SW1,2*
G04 #@! TO.N,GND*
X159785000Y-65690000D03*
G04 #@! TO.P,SW1,1*
G04 #@! TO.N,!RST*
X153485000Y-69390000D03*
G04 #@! TO.P,SW1,2*
G04 #@! TO.N,GND*
X153485000Y-65690000D03*
G04 #@! TD*
D11*
G04 #@! TO.N,5V*
G04 #@! TO.C,D2*
G36*
X145017642Y-58991174D02*
X145041303Y-58994684D01*
X145064507Y-59000496D01*
X145087029Y-59008554D01*
X145108653Y-59018782D01*
X145129170Y-59031079D01*
X145148383Y-59045329D01*
X145166107Y-59061393D01*
X145182171Y-59079117D01*
X145196421Y-59098330D01*
X145208718Y-59118847D01*
X145218946Y-59140471D01*
X145227004Y-59162993D01*
X145232816Y-59186197D01*
X145236326Y-59209858D01*
X145237500Y-59233750D01*
X145237500Y-60146250D01*
X145236326Y-60170142D01*
X145232816Y-60193803D01*
X145227004Y-60217007D01*
X145218946Y-60239529D01*
X145208718Y-60261153D01*
X145196421Y-60281670D01*
X145182171Y-60300883D01*
X145166107Y-60318607D01*
X145148383Y-60334671D01*
X145129170Y-60348921D01*
X145108653Y-60361218D01*
X145087029Y-60371446D01*
X145064507Y-60379504D01*
X145041303Y-60385316D01*
X145017642Y-60388826D01*
X144993750Y-60390000D01*
X144506250Y-60390000D01*
X144482358Y-60388826D01*
X144458697Y-60385316D01*
X144435493Y-60379504D01*
X144412971Y-60371446D01*
X144391347Y-60361218D01*
X144370830Y-60348921D01*
X144351617Y-60334671D01*
X144333893Y-60318607D01*
X144317829Y-60300883D01*
X144303579Y-60281670D01*
X144291282Y-60261153D01*
X144281054Y-60239529D01*
X144272996Y-60217007D01*
X144267184Y-60193803D01*
X144263674Y-60170142D01*
X144262500Y-60146250D01*
X144262500Y-59233750D01*
X144263674Y-59209858D01*
X144267184Y-59186197D01*
X144272996Y-59162993D01*
X144281054Y-59140471D01*
X144291282Y-59118847D01*
X144303579Y-59098330D01*
X144317829Y-59079117D01*
X144333893Y-59061393D01*
X144351617Y-59045329D01*
X144370830Y-59031079D01*
X144391347Y-59018782D01*
X144412971Y-59008554D01*
X144435493Y-59000496D01*
X144458697Y-58994684D01*
X144482358Y-58991174D01*
X144506250Y-58990000D01*
X144993750Y-58990000D01*
X145017642Y-58991174D01*
X145017642Y-58991174D01*
G37*
D12*
G04 #@! TD*
G04 #@! TO.P,D2,1*
G04 #@! TO.N,5V*
X144750000Y-59690000D03*
D11*
G04 #@! TO.N,VBUS*
G04 #@! TO.C,D2*
G36*
X143142642Y-58991174D02*
X143166303Y-58994684D01*
X143189507Y-59000496D01*
X143212029Y-59008554D01*
X143233653Y-59018782D01*
X143254170Y-59031079D01*
X143273383Y-59045329D01*
X143291107Y-59061393D01*
X143307171Y-59079117D01*
X143321421Y-59098330D01*
X143333718Y-59118847D01*
X143343946Y-59140471D01*
X143352004Y-59162993D01*
X143357816Y-59186197D01*
X143361326Y-59209858D01*
X143362500Y-59233750D01*
X143362500Y-60146250D01*
X143361326Y-60170142D01*
X143357816Y-60193803D01*
X143352004Y-60217007D01*
X143343946Y-60239529D01*
X143333718Y-60261153D01*
X143321421Y-60281670D01*
X143307171Y-60300883D01*
X143291107Y-60318607D01*
X143273383Y-60334671D01*
X143254170Y-60348921D01*
X143233653Y-60361218D01*
X143212029Y-60371446D01*
X143189507Y-60379504D01*
X143166303Y-60385316D01*
X143142642Y-60388826D01*
X143118750Y-60390000D01*
X142631250Y-60390000D01*
X142607358Y-60388826D01*
X142583697Y-60385316D01*
X142560493Y-60379504D01*
X142537971Y-60371446D01*
X142516347Y-60361218D01*
X142495830Y-60348921D01*
X142476617Y-60334671D01*
X142458893Y-60318607D01*
X142442829Y-60300883D01*
X142428579Y-60281670D01*
X142416282Y-60261153D01*
X142406054Y-60239529D01*
X142397996Y-60217007D01*
X142392184Y-60193803D01*
X142388674Y-60170142D01*
X142387500Y-60146250D01*
X142387500Y-59233750D01*
X142388674Y-59209858D01*
X142392184Y-59186197D01*
X142397996Y-59162993D01*
X142406054Y-59140471D01*
X142416282Y-59118847D01*
X142428579Y-59098330D01*
X142442829Y-59079117D01*
X142458893Y-59061393D01*
X142476617Y-59045329D01*
X142495830Y-59031079D01*
X142516347Y-59018782D01*
X142537971Y-59008554D01*
X142560493Y-59000496D01*
X142583697Y-58994684D01*
X142607358Y-58991174D01*
X142631250Y-58990000D01*
X143118750Y-58990000D01*
X143142642Y-58991174D01*
X143142642Y-58991174D01*
G37*
D12*
G04 #@! TD*
G04 #@! TO.P,D2,2*
G04 #@! TO.N,VBUS*
X142875000Y-59690000D03*
D13*
G04 #@! TO.P,J3,1*
G04 #@! TO.N,SWDIO*
X162560000Y-55880000D03*
D14*
G04 #@! TO.P,J3,2*
G04 #@! TO.N,GND*
X160020000Y-55880000D03*
G04 #@! TO.P,J3,3*
G04 #@! TO.N,SWDCLK*
X157480000Y-55880000D03*
G04 #@! TO.P,J3,4*
G04 #@! TO.N,VDD*
X154940000Y-55880000D03*
G04 #@! TO.P,J3,5*
G04 #@! TO.N,5V*
X152400000Y-55880000D03*
G04 #@! TD*
D15*
G04 #@! TO.P,U1,0*
G04 #@! TO.N,GND*
X159740000Y-108430000D03*
G04 #@! TO.P,U1,43*
X142240000Y-108430000D03*
G04 #@! TO.P,U1,42*
X142240000Y-107160000D03*
G04 #@! TO.P,U1,28*
G04 #@! TO.N,13*
X142240000Y-88110000D03*
G04 #@! TO.P,U1,29*
G04 #@! TO.N,14*
X142240000Y-89380000D03*
G04 #@! TO.P,U1,30*
G04 #@! TO.N,15*
X142240000Y-90650000D03*
G04 #@! TO.P,U1,31*
G04 #@! TO.N,16*
X142240000Y-91920000D03*
G04 #@! TO.P,U1,32*
G04 #@! TO.N,17*
X142240000Y-93190000D03*
G04 #@! TO.P,U1,33*
G04 #@! TO.N,18*
X142240000Y-94460000D03*
G04 #@! TO.P,U1,34*
G04 #@! TO.N,19*
X142240000Y-95730000D03*
G04 #@! TO.P,U1,35*
G04 #@! TO.N,20*
X142240000Y-97000000D03*
G04 #@! TO.P,U1,36*
G04 #@! TO.N,21*
X142240000Y-98270000D03*
G04 #@! TO.P,U1,37*
G04 #@! TO.N,SWDCLK*
X142240000Y-99540000D03*
G04 #@! TO.P,U1,38*
G04 #@! TO.N,SWDIO*
X142240000Y-100810000D03*
G04 #@! TO.P,U1,39*
G04 #@! TO.N,22*
X142240000Y-102080000D03*
G04 #@! TO.P,U1,40*
G04 #@! TO.N,23*
X142240000Y-103350000D03*
G04 #@! TO.P,U1,41*
G04 #@! TO.N,24*
X142240000Y-104620000D03*
G04 #@! TO.P,U1,1*
G04 #@! TO.N,GND*
X159740000Y-107160000D03*
G04 #@! TO.P,U1,2*
X159740000Y-104620000D03*
G04 #@! TO.P,U1,3*
G04 #@! TO.N,Net-(U1-Pad3)*
X159740000Y-103350000D03*
G04 #@! TO.P,U1,4*
G04 #@! TO.N,Net-(U1-Pad4)*
X159740000Y-102080000D03*
G04 #@! TO.P,U1,5*
G04 #@! TO.N,25*
X159740000Y-100810000D03*
G04 #@! TO.P,U1,6*
G04 #@! TO.N,26*
X159740000Y-99540000D03*
G04 #@! TO.P,U1,7*
G04 #@! TO.N,27*
X159740000Y-98270000D03*
G04 #@! TO.P,U1,8*
G04 #@! TO.N,28*
X159740000Y-97000000D03*
G04 #@! TO.P,U1,9*
G04 #@! TO.N,29*
X159740000Y-95730000D03*
G04 #@! TO.P,U1,10*
G04 #@! TO.N,30*
X159740000Y-94460000D03*
G04 #@! TO.P,U1,11*
G04 #@! TO.N,31*
X159740000Y-93190000D03*
G04 #@! TO.P,U1,12*
G04 #@! TO.N,Net-(L1-Pad2)*
X159740000Y-91920000D03*
G04 #@! TO.P,U1,13*
G04 #@! TO.N,Net-(L2-Pad1)*
X159740000Y-90650000D03*
G04 #@! TO.P,U1,14*
G04 #@! TO.N,Net-(U1-Pad14)*
X159740000Y-89380000D03*
G04 #@! TO.P,U1,15*
G04 #@! TO.N,GND*
X159740000Y-88110000D03*
D16*
G04 #@! TO.P,U1,16*
G04 #@! TO.N,VDD*
X157980000Y-86360000D03*
G04 #@! TO.P,U1,17*
G04 #@! TO.N,2*
X156710000Y-86360000D03*
G04 #@! TO.P,U1,18*
G04 #@! TO.N,3*
X155440000Y-86360000D03*
G04 #@! TO.P,U1,19*
G04 #@! TO.N,4*
X154170000Y-86360000D03*
G04 #@! TO.P,U1,20*
G04 #@! TO.N,5*
X152900000Y-86360000D03*
G04 #@! TO.P,U1,21*
G04 #@! TO.N,6*
X151630000Y-86360000D03*
G04 #@! TO.P,U1,24*
G04 #@! TO.N,9*
X147820000Y-86360000D03*
G04 #@! TO.P,U1,25*
G04 #@! TO.N,10*
X146550000Y-86360000D03*
G04 #@! TO.P,U1,26*
G04 #@! TO.N,11*
X145280000Y-86360000D03*
G04 #@! TO.P,U1,27*
G04 #@! TO.N,12*
X144010000Y-86360000D03*
G04 #@! TO.P,U1,22*
G04 #@! TO.N,7*
X150360000Y-86360000D03*
G04 #@! TO.P,U1,23*
G04 #@! TO.N,8*
X149090000Y-86360000D03*
G04 #@! TD*
D11*
G04 #@! TO.N,5V*
G04 #@! TO.C,D1*
G36*
X145047642Y-61531174D02*
X145071303Y-61534684D01*
X145094507Y-61540496D01*
X145117029Y-61548554D01*
X145138653Y-61558782D01*
X145159170Y-61571079D01*
X145178383Y-61585329D01*
X145196107Y-61601393D01*
X145212171Y-61619117D01*
X145226421Y-61638330D01*
X145238718Y-61658847D01*
X145248946Y-61680471D01*
X145257004Y-61702993D01*
X145262816Y-61726197D01*
X145266326Y-61749858D01*
X145267500Y-61773750D01*
X145267500Y-62686250D01*
X145266326Y-62710142D01*
X145262816Y-62733803D01*
X145257004Y-62757007D01*
X145248946Y-62779529D01*
X145238718Y-62801153D01*
X145226421Y-62821670D01*
X145212171Y-62840883D01*
X145196107Y-62858607D01*
X145178383Y-62874671D01*
X145159170Y-62888921D01*
X145138653Y-62901218D01*
X145117029Y-62911446D01*
X145094507Y-62919504D01*
X145071303Y-62925316D01*
X145047642Y-62928826D01*
X145023750Y-62930000D01*
X144536250Y-62930000D01*
X144512358Y-62928826D01*
X144488697Y-62925316D01*
X144465493Y-62919504D01*
X144442971Y-62911446D01*
X144421347Y-62901218D01*
X144400830Y-62888921D01*
X144381617Y-62874671D01*
X144363893Y-62858607D01*
X144347829Y-62840883D01*
X144333579Y-62821670D01*
X144321282Y-62801153D01*
X144311054Y-62779529D01*
X144302996Y-62757007D01*
X144297184Y-62733803D01*
X144293674Y-62710142D01*
X144292500Y-62686250D01*
X144292500Y-61773750D01*
X144293674Y-61749858D01*
X144297184Y-61726197D01*
X144302996Y-61702993D01*
X144311054Y-61680471D01*
X144321282Y-61658847D01*
X144333579Y-61638330D01*
X144347829Y-61619117D01*
X144363893Y-61601393D01*
X144381617Y-61585329D01*
X144400830Y-61571079D01*
X144421347Y-61558782D01*
X144442971Y-61548554D01*
X144465493Y-61540496D01*
X144488697Y-61534684D01*
X144512358Y-61531174D01*
X144536250Y-61530000D01*
X145023750Y-61530000D01*
X145047642Y-61531174D01*
X145047642Y-61531174D01*
G37*
D12*
G04 #@! TD*
G04 #@! TO.P,D1,1*
G04 #@! TO.N,5V*
X144780000Y-62230000D03*
D11*
G04 #@! TO.N,VBAT*
G04 #@! TO.C,D1*
G36*
X143172642Y-61531174D02*
X143196303Y-61534684D01*
X143219507Y-61540496D01*
X143242029Y-61548554D01*
X143263653Y-61558782D01*
X143284170Y-61571079D01*
X143303383Y-61585329D01*
X143321107Y-61601393D01*
X143337171Y-61619117D01*
X143351421Y-61638330D01*
X143363718Y-61658847D01*
X143373946Y-61680471D01*
X143382004Y-61702993D01*
X143387816Y-61726197D01*
X143391326Y-61749858D01*
X143392500Y-61773750D01*
X143392500Y-62686250D01*
X143391326Y-62710142D01*
X143387816Y-62733803D01*
X143382004Y-62757007D01*
X143373946Y-62779529D01*
X143363718Y-62801153D01*
X143351421Y-62821670D01*
X143337171Y-62840883D01*
X143321107Y-62858607D01*
X143303383Y-62874671D01*
X143284170Y-62888921D01*
X143263653Y-62901218D01*
X143242029Y-62911446D01*
X143219507Y-62919504D01*
X143196303Y-62925316D01*
X143172642Y-62928826D01*
X143148750Y-62930000D01*
X142661250Y-62930000D01*
X142637358Y-62928826D01*
X142613697Y-62925316D01*
X142590493Y-62919504D01*
X142567971Y-62911446D01*
X142546347Y-62901218D01*
X142525830Y-62888921D01*
X142506617Y-62874671D01*
X142488893Y-62858607D01*
X142472829Y-62840883D01*
X142458579Y-62821670D01*
X142446282Y-62801153D01*
X142436054Y-62779529D01*
X142427996Y-62757007D01*
X142422184Y-62733803D01*
X142418674Y-62710142D01*
X142417500Y-62686250D01*
X142417500Y-61773750D01*
X142418674Y-61749858D01*
X142422184Y-61726197D01*
X142427996Y-61702993D01*
X142436054Y-61680471D01*
X142446282Y-61658847D01*
X142458579Y-61638330D01*
X142472829Y-61619117D01*
X142488893Y-61601393D01*
X142506617Y-61585329D01*
X142525830Y-61571079D01*
X142546347Y-61558782D01*
X142567971Y-61548554D01*
X142590493Y-61540496D01*
X142613697Y-61534684D01*
X142637358Y-61531174D01*
X142661250Y-61530000D01*
X143148750Y-61530000D01*
X143172642Y-61531174D01*
X143172642Y-61531174D01*
G37*
D12*
G04 #@! TD*
G04 #@! TO.P,D1,2*
G04 #@! TO.N,VBAT*
X142905000Y-62230000D03*
D11*
G04 #@! TO.N,VDD*
G04 #@! TO.C,C2*
G36*
X145047642Y-66611174D02*
X145071303Y-66614684D01*
X145094507Y-66620496D01*
X145117029Y-66628554D01*
X145138653Y-66638782D01*
X145159170Y-66651079D01*
X145178383Y-66665329D01*
X145196107Y-66681393D01*
X145212171Y-66699117D01*
X145226421Y-66718330D01*
X145238718Y-66738847D01*
X145248946Y-66760471D01*
X145257004Y-66782993D01*
X145262816Y-66806197D01*
X145266326Y-66829858D01*
X145267500Y-66853750D01*
X145267500Y-67766250D01*
X145266326Y-67790142D01*
X145262816Y-67813803D01*
X145257004Y-67837007D01*
X145248946Y-67859529D01*
X145238718Y-67881153D01*
X145226421Y-67901670D01*
X145212171Y-67920883D01*
X145196107Y-67938607D01*
X145178383Y-67954671D01*
X145159170Y-67968921D01*
X145138653Y-67981218D01*
X145117029Y-67991446D01*
X145094507Y-67999504D01*
X145071303Y-68005316D01*
X145047642Y-68008826D01*
X145023750Y-68010000D01*
X144536250Y-68010000D01*
X144512358Y-68008826D01*
X144488697Y-68005316D01*
X144465493Y-67999504D01*
X144442971Y-67991446D01*
X144421347Y-67981218D01*
X144400830Y-67968921D01*
X144381617Y-67954671D01*
X144363893Y-67938607D01*
X144347829Y-67920883D01*
X144333579Y-67901670D01*
X144321282Y-67881153D01*
X144311054Y-67859529D01*
X144302996Y-67837007D01*
X144297184Y-67813803D01*
X144293674Y-67790142D01*
X144292500Y-67766250D01*
X144292500Y-66853750D01*
X144293674Y-66829858D01*
X144297184Y-66806197D01*
X144302996Y-66782993D01*
X144311054Y-66760471D01*
X144321282Y-66738847D01*
X144333579Y-66718330D01*
X144347829Y-66699117D01*
X144363893Y-66681393D01*
X144381617Y-66665329D01*
X144400830Y-66651079D01*
X144421347Y-66638782D01*
X144442971Y-66628554D01*
X144465493Y-66620496D01*
X144488697Y-66614684D01*
X144512358Y-66611174D01*
X144536250Y-66610000D01*
X145023750Y-66610000D01*
X145047642Y-66611174D01*
X145047642Y-66611174D01*
G37*
D12*
G04 #@! TD*
G04 #@! TO.P,C2,1*
G04 #@! TO.N,VDD*
X144780000Y-67310000D03*
D11*
G04 #@! TO.N,GND*
G04 #@! TO.C,C2*
G36*
X143172642Y-66611174D02*
X143196303Y-66614684D01*
X143219507Y-66620496D01*
X143242029Y-66628554D01*
X143263653Y-66638782D01*
X143284170Y-66651079D01*
X143303383Y-66665329D01*
X143321107Y-66681393D01*
X143337171Y-66699117D01*
X143351421Y-66718330D01*
X143363718Y-66738847D01*
X143373946Y-66760471D01*
X143382004Y-66782993D01*
X143387816Y-66806197D01*
X143391326Y-66829858D01*
X143392500Y-66853750D01*
X143392500Y-67766250D01*
X143391326Y-67790142D01*
X143387816Y-67813803D01*
X143382004Y-67837007D01*
X143373946Y-67859529D01*
X143363718Y-67881153D01*
X143351421Y-67901670D01*
X143337171Y-67920883D01*
X143321107Y-67938607D01*
X143303383Y-67954671D01*
X143284170Y-67968921D01*
X143263653Y-67981218D01*
X143242029Y-67991446D01*
X143219507Y-67999504D01*
X143196303Y-68005316D01*
X143172642Y-68008826D01*
X143148750Y-68010000D01*
X142661250Y-68010000D01*
X142637358Y-68008826D01*
X142613697Y-68005316D01*
X142590493Y-67999504D01*
X142567971Y-67991446D01*
X142546347Y-67981218D01*
X142525830Y-67968921D01*
X142506617Y-67954671D01*
X142488893Y-67938607D01*
X142472829Y-67920883D01*
X142458579Y-67901670D01*
X142446282Y-67881153D01*
X142436054Y-67859529D01*
X142427996Y-67837007D01*
X142422184Y-67813803D01*
X142418674Y-67790142D01*
X142417500Y-67766250D01*
X142417500Y-66853750D01*
X142418674Y-66829858D01*
X142422184Y-66806197D01*
X142427996Y-66782993D01*
X142436054Y-66760471D01*
X142446282Y-66738847D01*
X142458579Y-66718330D01*
X142472829Y-66699117D01*
X142488893Y-66681393D01*
X142506617Y-66665329D01*
X142525830Y-66651079D01*
X142546347Y-66638782D01*
X142567971Y-66628554D01*
X142590493Y-66620496D01*
X142613697Y-66614684D01*
X142637358Y-66611174D01*
X142661250Y-66610000D01*
X143148750Y-66610000D01*
X143172642Y-66611174D01*
X143172642Y-66611174D01*
G37*
D12*
G04 #@! TD*
G04 #@! TO.P,C2,2*
G04 #@! TO.N,GND*
X142905000Y-67310000D03*
D11*
G04 #@! TO.N,GND*
G04 #@! TO.C,C3*
G36*
X143172642Y-69151174D02*
X143196303Y-69154684D01*
X143219507Y-69160496D01*
X143242029Y-69168554D01*
X143263653Y-69178782D01*
X143284170Y-69191079D01*
X143303383Y-69205329D01*
X143321107Y-69221393D01*
X143337171Y-69239117D01*
X143351421Y-69258330D01*
X143363718Y-69278847D01*
X143373946Y-69300471D01*
X143382004Y-69322993D01*
X143387816Y-69346197D01*
X143391326Y-69369858D01*
X143392500Y-69393750D01*
X143392500Y-70306250D01*
X143391326Y-70330142D01*
X143387816Y-70353803D01*
X143382004Y-70377007D01*
X143373946Y-70399529D01*
X143363718Y-70421153D01*
X143351421Y-70441670D01*
X143337171Y-70460883D01*
X143321107Y-70478607D01*
X143303383Y-70494671D01*
X143284170Y-70508921D01*
X143263653Y-70521218D01*
X143242029Y-70531446D01*
X143219507Y-70539504D01*
X143196303Y-70545316D01*
X143172642Y-70548826D01*
X143148750Y-70550000D01*
X142661250Y-70550000D01*
X142637358Y-70548826D01*
X142613697Y-70545316D01*
X142590493Y-70539504D01*
X142567971Y-70531446D01*
X142546347Y-70521218D01*
X142525830Y-70508921D01*
X142506617Y-70494671D01*
X142488893Y-70478607D01*
X142472829Y-70460883D01*
X142458579Y-70441670D01*
X142446282Y-70421153D01*
X142436054Y-70399529D01*
X142427996Y-70377007D01*
X142422184Y-70353803D01*
X142418674Y-70330142D01*
X142417500Y-70306250D01*
X142417500Y-69393750D01*
X142418674Y-69369858D01*
X142422184Y-69346197D01*
X142427996Y-69322993D01*
X142436054Y-69300471D01*
X142446282Y-69278847D01*
X142458579Y-69258330D01*
X142472829Y-69239117D01*
X142488893Y-69221393D01*
X142506617Y-69205329D01*
X142525830Y-69191079D01*
X142546347Y-69178782D01*
X142567971Y-69168554D01*
X142590493Y-69160496D01*
X142613697Y-69154684D01*
X142637358Y-69151174D01*
X142661250Y-69150000D01*
X143148750Y-69150000D01*
X143172642Y-69151174D01*
X143172642Y-69151174D01*
G37*
D12*
G04 #@! TD*
G04 #@! TO.P,C3,2*
G04 #@! TO.N,GND*
X142905000Y-69850000D03*
D11*
G04 #@! TO.N,!RST*
G04 #@! TO.C,C3*
G36*
X145047642Y-69151174D02*
X145071303Y-69154684D01*
X145094507Y-69160496D01*
X145117029Y-69168554D01*
X145138653Y-69178782D01*
X145159170Y-69191079D01*
X145178383Y-69205329D01*
X145196107Y-69221393D01*
X145212171Y-69239117D01*
X145226421Y-69258330D01*
X145238718Y-69278847D01*
X145248946Y-69300471D01*
X145257004Y-69322993D01*
X145262816Y-69346197D01*
X145266326Y-69369858D01*
X145267500Y-69393750D01*
X145267500Y-70306250D01*
X145266326Y-70330142D01*
X145262816Y-70353803D01*
X145257004Y-70377007D01*
X145248946Y-70399529D01*
X145238718Y-70421153D01*
X145226421Y-70441670D01*
X145212171Y-70460883D01*
X145196107Y-70478607D01*
X145178383Y-70494671D01*
X145159170Y-70508921D01*
X145138653Y-70521218D01*
X145117029Y-70531446D01*
X145094507Y-70539504D01*
X145071303Y-70545316D01*
X145047642Y-70548826D01*
X145023750Y-70550000D01*
X144536250Y-70550000D01*
X144512358Y-70548826D01*
X144488697Y-70545316D01*
X144465493Y-70539504D01*
X144442971Y-70531446D01*
X144421347Y-70521218D01*
X144400830Y-70508921D01*
X144381617Y-70494671D01*
X144363893Y-70478607D01*
X144347829Y-70460883D01*
X144333579Y-70441670D01*
X144321282Y-70421153D01*
X144311054Y-70399529D01*
X144302996Y-70377007D01*
X144297184Y-70353803D01*
X144293674Y-70330142D01*
X144292500Y-70306250D01*
X144292500Y-69393750D01*
X144293674Y-69369858D01*
X144297184Y-69346197D01*
X144302996Y-69322993D01*
X144311054Y-69300471D01*
X144321282Y-69278847D01*
X144333579Y-69258330D01*
X144347829Y-69239117D01*
X144363893Y-69221393D01*
X144381617Y-69205329D01*
X144400830Y-69191079D01*
X144421347Y-69178782D01*
X144442971Y-69168554D01*
X144465493Y-69160496D01*
X144488697Y-69154684D01*
X144512358Y-69151174D01*
X144536250Y-69150000D01*
X145023750Y-69150000D01*
X145047642Y-69151174D01*
X145047642Y-69151174D01*
G37*
D12*
G04 #@! TD*
G04 #@! TO.P,C3,1*
G04 #@! TO.N,!RST*
X144780000Y-69850000D03*
D11*
G04 #@! TO.N,5V*
G04 #@! TO.C,C1*
G36*
X145047642Y-64071174D02*
X145071303Y-64074684D01*
X145094507Y-64080496D01*
X145117029Y-64088554D01*
X145138653Y-64098782D01*
X145159170Y-64111079D01*
X145178383Y-64125329D01*
X145196107Y-64141393D01*
X145212171Y-64159117D01*
X145226421Y-64178330D01*
X145238718Y-64198847D01*
X145248946Y-64220471D01*
X145257004Y-64242993D01*
X145262816Y-64266197D01*
X145266326Y-64289858D01*
X145267500Y-64313750D01*
X145267500Y-65226250D01*
X145266326Y-65250142D01*
X145262816Y-65273803D01*
X145257004Y-65297007D01*
X145248946Y-65319529D01*
X145238718Y-65341153D01*
X145226421Y-65361670D01*
X145212171Y-65380883D01*
X145196107Y-65398607D01*
X145178383Y-65414671D01*
X145159170Y-65428921D01*
X145138653Y-65441218D01*
X145117029Y-65451446D01*
X145094507Y-65459504D01*
X145071303Y-65465316D01*
X145047642Y-65468826D01*
X145023750Y-65470000D01*
X144536250Y-65470000D01*
X144512358Y-65468826D01*
X144488697Y-65465316D01*
X144465493Y-65459504D01*
X144442971Y-65451446D01*
X144421347Y-65441218D01*
X144400830Y-65428921D01*
X144381617Y-65414671D01*
X144363893Y-65398607D01*
X144347829Y-65380883D01*
X144333579Y-65361670D01*
X144321282Y-65341153D01*
X144311054Y-65319529D01*
X144302996Y-65297007D01*
X144297184Y-65273803D01*
X144293674Y-65250142D01*
X144292500Y-65226250D01*
X144292500Y-64313750D01*
X144293674Y-64289858D01*
X144297184Y-64266197D01*
X144302996Y-64242993D01*
X144311054Y-64220471D01*
X144321282Y-64198847D01*
X144333579Y-64178330D01*
X144347829Y-64159117D01*
X144363893Y-64141393D01*
X144381617Y-64125329D01*
X144400830Y-64111079D01*
X144421347Y-64098782D01*
X144442971Y-64088554D01*
X144465493Y-64080496D01*
X144488697Y-64074684D01*
X144512358Y-64071174D01*
X144536250Y-64070000D01*
X145023750Y-64070000D01*
X145047642Y-64071174D01*
X145047642Y-64071174D01*
G37*
D12*
G04 #@! TD*
G04 #@! TO.P,C1,1*
G04 #@! TO.N,5V*
X144780000Y-64770000D03*
D11*
G04 #@! TO.N,GND*
G04 #@! TO.C,C1*
G36*
X143172642Y-64071174D02*
X143196303Y-64074684D01*
X143219507Y-64080496D01*
X143242029Y-64088554D01*
X143263653Y-64098782D01*
X143284170Y-64111079D01*
X143303383Y-64125329D01*
X143321107Y-64141393D01*
X143337171Y-64159117D01*
X143351421Y-64178330D01*
X143363718Y-64198847D01*
X143373946Y-64220471D01*
X143382004Y-64242993D01*
X143387816Y-64266197D01*
X143391326Y-64289858D01*
X143392500Y-64313750D01*
X143392500Y-65226250D01*
X143391326Y-65250142D01*
X143387816Y-65273803D01*
X143382004Y-65297007D01*
X143373946Y-65319529D01*
X143363718Y-65341153D01*
X143351421Y-65361670D01*
X143337171Y-65380883D01*
X143321107Y-65398607D01*
X143303383Y-65414671D01*
X143284170Y-65428921D01*
X143263653Y-65441218D01*
X143242029Y-65451446D01*
X143219507Y-65459504D01*
X143196303Y-65465316D01*
X143172642Y-65468826D01*
X143148750Y-65470000D01*
X142661250Y-65470000D01*
X142637358Y-65468826D01*
X142613697Y-65465316D01*
X142590493Y-65459504D01*
X142567971Y-65451446D01*
X142546347Y-65441218D01*
X142525830Y-65428921D01*
X142506617Y-65414671D01*
X142488893Y-65398607D01*
X142472829Y-65380883D01*
X142458579Y-65361670D01*
X142446282Y-65341153D01*
X142436054Y-65319529D01*
X142427996Y-65297007D01*
X142422184Y-65273803D01*
X142418674Y-65250142D01*
X142417500Y-65226250D01*
X142417500Y-64313750D01*
X142418674Y-64289858D01*
X142422184Y-64266197D01*
X142427996Y-64242993D01*
X142436054Y-64220471D01*
X142446282Y-64198847D01*
X142458579Y-64178330D01*
X142472829Y-64159117D01*
X142488893Y-64141393D01*
X142506617Y-64125329D01*
X142525830Y-64111079D01*
X142546347Y-64098782D01*
X142567971Y-64088554D01*
X142590493Y-64080496D01*
X142613697Y-64074684D01*
X142637358Y-64071174D01*
X142661250Y-64070000D01*
X143148750Y-64070000D01*
X143172642Y-64071174D01*
X143172642Y-64071174D01*
G37*
D12*
G04 #@! TD*
G04 #@! TO.P,C1,2*
G04 #@! TO.N,GND*
X142905000Y-64770000D03*
D11*
G04 #@! TO.N,Net-(L1-Pad2)*
G04 #@! TO.C,L1*
G36*
X163040142Y-92193674D02*
X163063803Y-92197184D01*
X163087007Y-92202996D01*
X163109529Y-92211054D01*
X163131153Y-92221282D01*
X163151670Y-92233579D01*
X163170883Y-92247829D01*
X163188607Y-92263893D01*
X163204671Y-92281617D01*
X163218921Y-92300830D01*
X163231218Y-92321347D01*
X163241446Y-92342971D01*
X163249504Y-92365493D01*
X163255316Y-92388697D01*
X163258826Y-92412358D01*
X163260000Y-92436250D01*
X163260000Y-92923750D01*
X163258826Y-92947642D01*
X163255316Y-92971303D01*
X163249504Y-92994507D01*
X163241446Y-93017029D01*
X163231218Y-93038653D01*
X163218921Y-93059170D01*
X163204671Y-93078383D01*
X163188607Y-93096107D01*
X163170883Y-93112171D01*
X163151670Y-93126421D01*
X163131153Y-93138718D01*
X163109529Y-93148946D01*
X163087007Y-93157004D01*
X163063803Y-93162816D01*
X163040142Y-93166326D01*
X163016250Y-93167500D01*
X162103750Y-93167500D01*
X162079858Y-93166326D01*
X162056197Y-93162816D01*
X162032993Y-93157004D01*
X162010471Y-93148946D01*
X161988847Y-93138718D01*
X161968330Y-93126421D01*
X161949117Y-93112171D01*
X161931393Y-93096107D01*
X161915329Y-93078383D01*
X161901079Y-93059170D01*
X161888782Y-93038653D01*
X161878554Y-93017029D01*
X161870496Y-92994507D01*
X161864684Y-92971303D01*
X161861174Y-92947642D01*
X161860000Y-92923750D01*
X161860000Y-92436250D01*
X161861174Y-92412358D01*
X161864684Y-92388697D01*
X161870496Y-92365493D01*
X161878554Y-92342971D01*
X161888782Y-92321347D01*
X161901079Y-92300830D01*
X161915329Y-92281617D01*
X161931393Y-92263893D01*
X161949117Y-92247829D01*
X161968330Y-92233579D01*
X161988847Y-92221282D01*
X162010471Y-92211054D01*
X162032993Y-92202996D01*
X162056197Y-92197184D01*
X162079858Y-92193674D01*
X162103750Y-92192500D01*
X163016250Y-92192500D01*
X163040142Y-92193674D01*
X163040142Y-92193674D01*
G37*
D12*
G04 #@! TD*
G04 #@! TO.P,L1,2*
G04 #@! TO.N,Net-(L1-Pad2)*
X162560000Y-92680000D03*
D11*
G04 #@! TO.N,Net-(L1-Pad1)*
G04 #@! TO.C,L1*
G36*
X163040142Y-90318674D02*
X163063803Y-90322184D01*
X163087007Y-90327996D01*
X163109529Y-90336054D01*
X163131153Y-90346282D01*
X163151670Y-90358579D01*
X163170883Y-90372829D01*
X163188607Y-90388893D01*
X163204671Y-90406617D01*
X163218921Y-90425830D01*
X163231218Y-90446347D01*
X163241446Y-90467971D01*
X163249504Y-90490493D01*
X163255316Y-90513697D01*
X163258826Y-90537358D01*
X163260000Y-90561250D01*
X163260000Y-91048750D01*
X163258826Y-91072642D01*
X163255316Y-91096303D01*
X163249504Y-91119507D01*
X163241446Y-91142029D01*
X163231218Y-91163653D01*
X163218921Y-91184170D01*
X163204671Y-91203383D01*
X163188607Y-91221107D01*
X163170883Y-91237171D01*
X163151670Y-91251421D01*
X163131153Y-91263718D01*
X163109529Y-91273946D01*
X163087007Y-91282004D01*
X163063803Y-91287816D01*
X163040142Y-91291326D01*
X163016250Y-91292500D01*
X162103750Y-91292500D01*
X162079858Y-91291326D01*
X162056197Y-91287816D01*
X162032993Y-91282004D01*
X162010471Y-91273946D01*
X161988847Y-91263718D01*
X161968330Y-91251421D01*
X161949117Y-91237171D01*
X161931393Y-91221107D01*
X161915329Y-91203383D01*
X161901079Y-91184170D01*
X161888782Y-91163653D01*
X161878554Y-91142029D01*
X161870496Y-91119507D01*
X161864684Y-91096303D01*
X161861174Y-91072642D01*
X161860000Y-91048750D01*
X161860000Y-90561250D01*
X161861174Y-90537358D01*
X161864684Y-90513697D01*
X161870496Y-90490493D01*
X161878554Y-90467971D01*
X161888782Y-90446347D01*
X161901079Y-90425830D01*
X161915329Y-90406617D01*
X161931393Y-90388893D01*
X161949117Y-90372829D01*
X161968330Y-90358579D01*
X161988847Y-90346282D01*
X162010471Y-90336054D01*
X162032993Y-90327996D01*
X162056197Y-90322184D01*
X162079858Y-90318674D01*
X162103750Y-90317500D01*
X163016250Y-90317500D01*
X163040142Y-90318674D01*
X163040142Y-90318674D01*
G37*
D12*
G04 #@! TD*
G04 #@! TO.P,L1,1*
G04 #@! TO.N,Net-(L1-Pad1)*
X162560000Y-90805000D03*
D11*
G04 #@! TO.N,Net-(L2-Pad1)*
G04 #@! TO.C,L2*
G36*
X163040142Y-86508674D02*
X163063803Y-86512184D01*
X163087007Y-86517996D01*
X163109529Y-86526054D01*
X163131153Y-86536282D01*
X163151670Y-86548579D01*
X163170883Y-86562829D01*
X163188607Y-86578893D01*
X163204671Y-86596617D01*
X163218921Y-86615830D01*
X163231218Y-86636347D01*
X163241446Y-86657971D01*
X163249504Y-86680493D01*
X163255316Y-86703697D01*
X163258826Y-86727358D01*
X163260000Y-86751250D01*
X163260000Y-87238750D01*
X163258826Y-87262642D01*
X163255316Y-87286303D01*
X163249504Y-87309507D01*
X163241446Y-87332029D01*
X163231218Y-87353653D01*
X163218921Y-87374170D01*
X163204671Y-87393383D01*
X163188607Y-87411107D01*
X163170883Y-87427171D01*
X163151670Y-87441421D01*
X163131153Y-87453718D01*
X163109529Y-87463946D01*
X163087007Y-87472004D01*
X163063803Y-87477816D01*
X163040142Y-87481326D01*
X163016250Y-87482500D01*
X162103750Y-87482500D01*
X162079858Y-87481326D01*
X162056197Y-87477816D01*
X162032993Y-87472004D01*
X162010471Y-87463946D01*
X161988847Y-87453718D01*
X161968330Y-87441421D01*
X161949117Y-87427171D01*
X161931393Y-87411107D01*
X161915329Y-87393383D01*
X161901079Y-87374170D01*
X161888782Y-87353653D01*
X161878554Y-87332029D01*
X161870496Y-87309507D01*
X161864684Y-87286303D01*
X161861174Y-87262642D01*
X161860000Y-87238750D01*
X161860000Y-86751250D01*
X161861174Y-86727358D01*
X161864684Y-86703697D01*
X161870496Y-86680493D01*
X161878554Y-86657971D01*
X161888782Y-86636347D01*
X161901079Y-86615830D01*
X161915329Y-86596617D01*
X161931393Y-86578893D01*
X161949117Y-86562829D01*
X161968330Y-86548579D01*
X161988847Y-86536282D01*
X162010471Y-86526054D01*
X162032993Y-86517996D01*
X162056197Y-86512184D01*
X162079858Y-86508674D01*
X162103750Y-86507500D01*
X163016250Y-86507500D01*
X163040142Y-86508674D01*
X163040142Y-86508674D01*
G37*
D12*
G04 #@! TD*
G04 #@! TO.P,L2,1*
G04 #@! TO.N,Net-(L2-Pad1)*
X162560000Y-86995000D03*
D11*
G04 #@! TO.N,Net-(L1-Pad1)*
G04 #@! TO.C,L2*
G36*
X163040142Y-88383674D02*
X163063803Y-88387184D01*
X163087007Y-88392996D01*
X163109529Y-88401054D01*
X163131153Y-88411282D01*
X163151670Y-88423579D01*
X163170883Y-88437829D01*
X163188607Y-88453893D01*
X163204671Y-88471617D01*
X163218921Y-88490830D01*
X163231218Y-88511347D01*
X163241446Y-88532971D01*
X163249504Y-88555493D01*
X163255316Y-88578697D01*
X163258826Y-88602358D01*
X163260000Y-88626250D01*
X163260000Y-89113750D01*
X163258826Y-89137642D01*
X163255316Y-89161303D01*
X163249504Y-89184507D01*
X163241446Y-89207029D01*
X163231218Y-89228653D01*
X163218921Y-89249170D01*
X163204671Y-89268383D01*
X163188607Y-89286107D01*
X163170883Y-89302171D01*
X163151670Y-89316421D01*
X163131153Y-89328718D01*
X163109529Y-89338946D01*
X163087007Y-89347004D01*
X163063803Y-89352816D01*
X163040142Y-89356326D01*
X163016250Y-89357500D01*
X162103750Y-89357500D01*
X162079858Y-89356326D01*
X162056197Y-89352816D01*
X162032993Y-89347004D01*
X162010471Y-89338946D01*
X161988847Y-89328718D01*
X161968330Y-89316421D01*
X161949117Y-89302171D01*
X161931393Y-89286107D01*
X161915329Y-89268383D01*
X161901079Y-89249170D01*
X161888782Y-89228653D01*
X161878554Y-89207029D01*
X161870496Y-89184507D01*
X161864684Y-89161303D01*
X161861174Y-89137642D01*
X161860000Y-89113750D01*
X161860000Y-88626250D01*
X161861174Y-88602358D01*
X161864684Y-88578697D01*
X161870496Y-88555493D01*
X161878554Y-88532971D01*
X161888782Y-88511347D01*
X161901079Y-88490830D01*
X161915329Y-88471617D01*
X161931393Y-88453893D01*
X161949117Y-88437829D01*
X161968330Y-88423579D01*
X161988847Y-88411282D01*
X162010471Y-88401054D01*
X162032993Y-88392996D01*
X162056197Y-88387184D01*
X162079858Y-88383674D01*
X162103750Y-88382500D01*
X163016250Y-88382500D01*
X163040142Y-88383674D01*
X163040142Y-88383674D01*
G37*
D12*
G04 #@! TD*
G04 #@! TO.P,L2,2*
G04 #@! TO.N,Net-(L1-Pad1)*
X162560000Y-88870000D03*
D11*
G04 #@! TO.N,VDD*
G04 #@! TO.C,R1*
G36*
X143172642Y-71691174D02*
X143196303Y-71694684D01*
X143219507Y-71700496D01*
X143242029Y-71708554D01*
X143263653Y-71718782D01*
X143284170Y-71731079D01*
X143303383Y-71745329D01*
X143321107Y-71761393D01*
X143337171Y-71779117D01*
X143351421Y-71798330D01*
X143363718Y-71818847D01*
X143373946Y-71840471D01*
X143382004Y-71862993D01*
X143387816Y-71886197D01*
X143391326Y-71909858D01*
X143392500Y-71933750D01*
X143392500Y-72846250D01*
X143391326Y-72870142D01*
X143387816Y-72893803D01*
X143382004Y-72917007D01*
X143373946Y-72939529D01*
X143363718Y-72961153D01*
X143351421Y-72981670D01*
X143337171Y-73000883D01*
X143321107Y-73018607D01*
X143303383Y-73034671D01*
X143284170Y-73048921D01*
X143263653Y-73061218D01*
X143242029Y-73071446D01*
X143219507Y-73079504D01*
X143196303Y-73085316D01*
X143172642Y-73088826D01*
X143148750Y-73090000D01*
X142661250Y-73090000D01*
X142637358Y-73088826D01*
X142613697Y-73085316D01*
X142590493Y-73079504D01*
X142567971Y-73071446D01*
X142546347Y-73061218D01*
X142525830Y-73048921D01*
X142506617Y-73034671D01*
X142488893Y-73018607D01*
X142472829Y-73000883D01*
X142458579Y-72981670D01*
X142446282Y-72961153D01*
X142436054Y-72939529D01*
X142427996Y-72917007D01*
X142422184Y-72893803D01*
X142418674Y-72870142D01*
X142417500Y-72846250D01*
X142417500Y-71933750D01*
X142418674Y-71909858D01*
X142422184Y-71886197D01*
X142427996Y-71862993D01*
X142436054Y-71840471D01*
X142446282Y-71818847D01*
X142458579Y-71798330D01*
X142472829Y-71779117D01*
X142488893Y-71761393D01*
X142506617Y-71745329D01*
X142525830Y-71731079D01*
X142546347Y-71718782D01*
X142567971Y-71708554D01*
X142590493Y-71700496D01*
X142613697Y-71694684D01*
X142637358Y-71691174D01*
X142661250Y-71690000D01*
X143148750Y-71690000D01*
X143172642Y-71691174D01*
X143172642Y-71691174D01*
G37*
D12*
G04 #@! TD*
G04 #@! TO.P,R1,1*
G04 #@! TO.N,VDD*
X142905000Y-72390000D03*
D11*
G04 #@! TO.N,!RST*
G04 #@! TO.C,R1*
G36*
X145047642Y-71691174D02*
X145071303Y-71694684D01*
X145094507Y-71700496D01*
X145117029Y-71708554D01*
X145138653Y-71718782D01*
X145159170Y-71731079D01*
X145178383Y-71745329D01*
X145196107Y-71761393D01*
X145212171Y-71779117D01*
X145226421Y-71798330D01*
X145238718Y-71818847D01*
X145248946Y-71840471D01*
X145257004Y-71862993D01*
X145262816Y-71886197D01*
X145266326Y-71909858D01*
X145267500Y-71933750D01*
X145267500Y-72846250D01*
X145266326Y-72870142D01*
X145262816Y-72893803D01*
X145257004Y-72917007D01*
X145248946Y-72939529D01*
X145238718Y-72961153D01*
X145226421Y-72981670D01*
X145212171Y-73000883D01*
X145196107Y-73018607D01*
X145178383Y-73034671D01*
X145159170Y-73048921D01*
X145138653Y-73061218D01*
X145117029Y-73071446D01*
X145094507Y-73079504D01*
X145071303Y-73085316D01*
X145047642Y-73088826D01*
X145023750Y-73090000D01*
X144536250Y-73090000D01*
X144512358Y-73088826D01*
X144488697Y-73085316D01*
X144465493Y-73079504D01*
X144442971Y-73071446D01*
X144421347Y-73061218D01*
X144400830Y-73048921D01*
X144381617Y-73034671D01*
X144363893Y-73018607D01*
X144347829Y-73000883D01*
X144333579Y-72981670D01*
X144321282Y-72961153D01*
X144311054Y-72939529D01*
X144302996Y-72917007D01*
X144297184Y-72893803D01*
X144293674Y-72870142D01*
X144292500Y-72846250D01*
X144292500Y-71933750D01*
X144293674Y-71909858D01*
X144297184Y-71886197D01*
X144302996Y-71862993D01*
X144311054Y-71840471D01*
X144321282Y-71818847D01*
X144333579Y-71798330D01*
X144347829Y-71779117D01*
X144363893Y-71761393D01*
X144381617Y-71745329D01*
X144400830Y-71731079D01*
X144421347Y-71718782D01*
X144442971Y-71708554D01*
X144465493Y-71700496D01*
X144488697Y-71694684D01*
X144512358Y-71691174D01*
X144536250Y-71690000D01*
X145023750Y-71690000D01*
X145047642Y-71691174D01*
X145047642Y-71691174D01*
G37*
D12*
G04 #@! TD*
G04 #@! TO.P,R1,2*
G04 #@! TO.N,!RST*
X144780000Y-72390000D03*
D17*
G04 #@! TO.P,J4,1*
G04 #@! TO.N,VBUS*
X146080000Y-56510000D03*
G04 #@! TO.P,J4,2*
G04 #@! TO.N,Net-(J4-Pad2)*
X145430000Y-56510000D03*
G04 #@! TO.P,J4,3*
G04 #@! TO.N,Net-(J4-Pad3)*
X144780000Y-56510000D03*
G04 #@! TO.P,J4,4*
G04 #@! TO.N,Net-(J4-Pad4)*
X144130000Y-56510000D03*
G04 #@! TO.P,J4,5*
G04 #@! TO.N,GND*
X143480000Y-56510000D03*
D18*
G04 #@! TO.P,J4,6*
X148505000Y-56460000D03*
X141055000Y-56460000D03*
D19*
X148655000Y-52660000D03*
X140905000Y-52660000D03*
G04 #@! TD*
D20*
G04 #@! TO.P,U2,1*
G04 #@! TO.N,GND*
X148722000Y-62960000D03*
G04 #@! TO.P,U2,2*
G04 #@! TO.N,VDD*
X150622000Y-62960000D03*
G04 #@! TO.P,U2,3*
G04 #@! TO.N,5V*
X149672000Y-60960000D03*
G04 #@! TD*
D14*
G04 #@! TO.P,J8,2*
G04 #@! TO.N,5V*
X139700000Y-63500000D03*
D13*
G04 #@! TO.P,J8,1*
X139700000Y-60960000D03*
G04 #@! TD*
G04 #@! TO.P,J7,1*
G04 #@! TO.N,VBAT*
X162560000Y-60960000D03*
D14*
G04 #@! TO.P,J7,2*
X162560000Y-63500000D03*
G04 #@! TD*
D13*
G04 #@! TO.P,J1,1*
G04 #@! TO.N,GND*
X165100000Y-55880000D03*
D14*
G04 #@! TO.P,J1,2*
X165100000Y-58420000D03*
G04 #@! TO.P,J1,3*
G04 #@! TO.N,VDD*
X165100000Y-60960000D03*
G04 #@! TO.P,J1,4*
X165100000Y-63500000D03*
G04 #@! TO.P,J1,5*
G04 #@! TO.N,Net-(J1-Pad5)*
X165100000Y-66040000D03*
G04 #@! TO.P,J1,6*
G04 #@! TO.N,9*
X165100000Y-68580000D03*
G04 #@! TO.P,J1,7*
G04 #@! TO.N,8*
X165100000Y-71120000D03*
G04 #@! TO.P,J1,8*
G04 #@! TO.N,7*
X165100000Y-73660000D03*
G04 #@! TO.P,J1,9*
G04 #@! TO.N,6*
X165100000Y-76200000D03*
G04 #@! TO.P,J1,10*
G04 #@! TO.N,5*
X165100000Y-78740000D03*
G04 #@! TO.P,J1,11*
G04 #@! TO.N,4*
X165100000Y-81280000D03*
G04 #@! TO.P,J1,12*
G04 #@! TO.N,3*
X165100000Y-83820000D03*
G04 #@! TO.P,J1,13*
G04 #@! TO.N,2*
X165100000Y-86360000D03*
G04 #@! TO.P,J1,14*
G04 #@! TO.N,31*
X165100000Y-88900000D03*
G04 #@! TO.P,J1,15*
G04 #@! TO.N,30*
X165100000Y-91440000D03*
G04 #@! TO.P,J1,16*
G04 #@! TO.N,29*
X165100000Y-93980000D03*
G04 #@! TO.P,J1,17*
G04 #@! TO.N,28*
X165100000Y-96520000D03*
G04 #@! TO.P,J1,18*
G04 #@! TO.N,27*
X165100000Y-99060000D03*
G04 #@! TO.P,J1,19*
G04 #@! TO.N,26*
X165100000Y-101600000D03*
G04 #@! TO.P,J1,20*
G04 #@! TO.N,25*
X165100000Y-104140000D03*
G04 #@! TD*
G04 #@! TO.P,J2,20*
G04 #@! TO.N,24*
X137160000Y-104140000D03*
G04 #@! TO.P,J2,19*
G04 #@! TO.N,23*
X137160000Y-101600000D03*
G04 #@! TO.P,J2,18*
G04 #@! TO.N,22*
X137160000Y-99060000D03*
G04 #@! TO.P,J2,17*
G04 #@! TO.N,21*
X137160000Y-96520000D03*
G04 #@! TO.P,J2,16*
G04 #@! TO.N,20*
X137160000Y-93980000D03*
G04 #@! TO.P,J2,15*
G04 #@! TO.N,19*
X137160000Y-91440000D03*
G04 #@! TO.P,J2,14*
G04 #@! TO.N,18*
X137160000Y-88900000D03*
G04 #@! TO.P,J2,13*
G04 #@! TO.N,17*
X137160000Y-86360000D03*
G04 #@! TO.P,J2,12*
G04 #@! TO.N,16*
X137160000Y-83820000D03*
G04 #@! TO.P,J2,11*
G04 #@! TO.N,15*
X137160000Y-81280000D03*
G04 #@! TO.P,J2,10*
G04 #@! TO.N,14*
X137160000Y-78740000D03*
G04 #@! TO.P,J2,9*
G04 #@! TO.N,13*
X137160000Y-76200000D03*
G04 #@! TO.P,J2,8*
G04 #@! TO.N,12*
X137160000Y-73660000D03*
G04 #@! TO.P,J2,7*
G04 #@! TO.N,11*
X137160000Y-71120000D03*
G04 #@! TO.P,J2,6*
G04 #@! TO.N,10*
X137160000Y-68580000D03*
G04 #@! TO.P,J2,5*
G04 #@! TO.N,Net-(J2-Pad5)*
X137160000Y-66040000D03*
G04 #@! TO.P,J2,4*
G04 #@! TO.N,VDD*
X137160000Y-63500000D03*
G04 #@! TO.P,J2,3*
X137160000Y-60960000D03*
G04 #@! TO.P,J2,2*
G04 #@! TO.N,GND*
X137160000Y-58420000D03*
D13*
G04 #@! TO.P,J2,1*
X137160000Y-55880000D03*
G04 #@! TD*
D21*
G04 #@! TO.P,J6,1*
G04 #@! TO.N,VDD*
X153670000Y-60960000D03*
D22*
G04 #@! TO.P,J6,2*
G04 #@! TO.N,SWDIO*
X153670000Y-59690000D03*
G04 #@! TO.P,J6,3*
G04 #@! TO.N,GND*
X154940000Y-60960000D03*
G04 #@! TO.P,J6,4*
G04 #@! TO.N,SWDCLK*
X154940000Y-59690000D03*
G04 #@! TO.P,J6,5*
G04 #@! TO.N,GND*
X156210000Y-60960000D03*
G04 #@! TO.P,J6,6*
G04 #@! TO.N,18*
X156210000Y-59690000D03*
G04 #@! TO.P,J6,7*
G04 #@! TO.N,Net-(J6-Pad7)*
X157480000Y-60960000D03*
G04 #@! TO.P,J6,8*
G04 #@! TO.N,Net-(J6-Pad8)*
X157480000Y-59690000D03*
G04 #@! TO.P,J6,9*
G04 #@! TO.N,GND*
X158750000Y-60960000D03*
G04 #@! TO.P,J6,10*
G04 #@! TO.N,!RST*
X158750000Y-59690000D03*
G04 #@! TD*
D23*
G04 #@! TO.N,VDD*
X157988000Y-86360000D03*
G04 #@! TO.N,GND*
X153035000Y-66040000D03*
X147828000Y-64262000D03*
G04 #@! TO.N,9*
X147828000Y-86360000D03*
G04 #@! TO.N,31*
X159740600Y-93192600D03*
G04 #@! TO.N,!RST*
X160274000Y-69088000D03*
X153035000Y-69088000D03*
X144780000Y-72390000D03*
X153035000Y-71374000D03*
G04 #@! TO.N,21*
X145830001Y-95179999D03*
G04 #@! TO.N,VBAT*
X142875000Y-62230000D03*
G04 #@! TD*
D24*
G04 #@! TO.N,VDD*
X144223763Y-67866237D02*
X144780000Y-67310000D01*
X143692510Y-68397490D02*
X144223763Y-67866237D01*
X143692510Y-71602490D02*
X143692510Y-68397490D01*
X142905000Y-72390000D02*
X143692510Y-71602490D01*
X150622000Y-63010000D02*
X150622000Y-62960000D01*
X146322000Y-67310000D02*
X150622000Y-63010000D01*
X144780000Y-67310000D02*
X146322000Y-67310000D01*
X150622000Y-60198000D02*
X154940000Y-55880000D01*
X150622000Y-62960000D02*
X150622000Y-60198000D01*
G04 #@! TO.N,GND*
X154260000Y-52660000D02*
X148655000Y-52660000D01*
X154940000Y-60960000D02*
X156210000Y-60960000D01*
X158250001Y-61459999D02*
X158750000Y-60960000D01*
X157949999Y-61760001D02*
X158250001Y-61459999D01*
X156302895Y-61760001D02*
X157949999Y-61760001D01*
X156210000Y-61667106D02*
X156302895Y-61760001D01*
X156210000Y-60960000D02*
X156210000Y-61667106D01*
X159766000Y-59944000D02*
X159766000Y-58166000D01*
X158750000Y-60960000D02*
X159766000Y-59944000D01*
X148655000Y-52660000D02*
X140905000Y-52660000D01*
X141105000Y-56510000D02*
X141055000Y-56460000D01*
X143480000Y-56510000D02*
X141105000Y-56510000D01*
X157949999Y-63854999D02*
X157949999Y-61760001D01*
X160135000Y-66040000D02*
X157949999Y-63854999D01*
X160235000Y-66040000D02*
X160135000Y-66040000D01*
X137740000Y-56460000D02*
X137160000Y-55880000D01*
X141055000Y-56460000D02*
X137740000Y-56460000D01*
X160020000Y-57912000D02*
X160020000Y-55880000D01*
X159766000Y-58166000D02*
X160020000Y-57912000D01*
X143905010Y-65770010D02*
X145311990Y-65770010D01*
X148122000Y-62960000D02*
X148722000Y-62960000D01*
X145311990Y-65770010D02*
X148122000Y-62960000D01*
X142905000Y-64770000D02*
X143905010Y-65770010D01*
G04 #@! TO.N,5V*
X139700000Y-63500000D02*
X139700000Y-60960000D01*
X144780000Y-64770000D02*
X144780000Y-62230000D01*
X144780000Y-59720000D02*
X144750000Y-59690000D01*
X144780000Y-62230000D02*
X144780000Y-59720000D01*
X143480000Y-60960000D02*
X139700000Y-60960000D01*
X144750000Y-59690000D02*
X143480000Y-60960000D01*
X146020000Y-60960000D02*
X144750000Y-59690000D01*
X149672000Y-60960000D02*
X146020000Y-60960000D01*
X149672000Y-58608000D02*
X152400000Y-55880000D01*
X149672000Y-60960000D02*
X149672000Y-58608000D01*
G04 #@! TO.N,SWDIO*
X148539999Y-95010001D02*
X148539999Y-83870001D01*
X142240000Y-100810000D02*
X142740000Y-100810000D01*
X142740000Y-100810000D02*
X148539999Y-95010001D01*
X148539999Y-83870001D02*
X154940000Y-77470000D01*
X154940000Y-77470000D02*
X154940000Y-64770000D01*
X152962894Y-59690000D02*
X153670000Y-59690000D01*
X152869999Y-62699999D02*
X152869999Y-59782895D01*
X152869999Y-59782895D02*
X152962894Y-59690000D01*
X154940000Y-64770000D02*
X152869999Y-62699999D01*
G04 #@! TO.N,SWDCLK*
X154940000Y-59690000D02*
X154139999Y-58889999D01*
X154139999Y-58889999D02*
X153197196Y-58889999D01*
X151765000Y-79570002D02*
X151765000Y-60322195D01*
X153197196Y-58889999D02*
X151765000Y-60322195D01*
X142240000Y-99540000D02*
X142740000Y-99540000D01*
X142740000Y-99540000D02*
X147100001Y-95179999D01*
X147100001Y-95179999D02*
X147100001Y-84235001D01*
X147100001Y-84235001D02*
X151765000Y-79570002D01*
X157480000Y-57150000D02*
X154940000Y-59690000D01*
X157480000Y-55880000D02*
X157480000Y-57150000D01*
G04 #@! TO.N,Net-(L1-Pad1)*
X162560000Y-88870000D02*
X162560000Y-90805000D01*
G04 #@! TO.N,Net-(L1-Pad2)*
X161800000Y-91920000D02*
X159740000Y-91920000D01*
X162560000Y-92680000D02*
X161800000Y-91920000D01*
G04 #@! TO.N,Net-(L2-Pad1)*
X159240000Y-90650000D02*
X159740000Y-90650000D01*
X162003763Y-87551237D02*
X162560000Y-86995000D01*
X161559990Y-87995010D02*
X162003763Y-87551237D01*
X160240000Y-90650000D02*
X161559990Y-89330010D01*
X161559990Y-89330010D02*
X161559990Y-87995010D01*
X159740000Y-90650000D02*
X160240000Y-90650000D01*
G04 #@! TO.N,8*
X149090000Y-85860000D02*
X163830000Y-71120000D01*
X163897919Y-71120000D02*
X165100000Y-71120000D01*
X163830000Y-71120000D02*
X163897919Y-71120000D01*
X149090000Y-86360000D02*
X149090000Y-85860000D01*
G04 #@! TO.N,7*
X163897919Y-73660000D02*
X165100000Y-73660000D01*
X162560000Y-73660000D02*
X163897919Y-73660000D01*
X150360000Y-85860000D02*
X162560000Y-73660000D01*
X150360000Y-86360000D02*
X150360000Y-85860000D01*
G04 #@! TO.N,6*
X163897919Y-76200000D02*
X165100000Y-76200000D01*
X161290000Y-76200000D02*
X163897919Y-76200000D01*
X151630000Y-85860000D02*
X161290000Y-76200000D01*
X151630000Y-86360000D02*
X151630000Y-85860000D01*
G04 #@! TO.N,5*
X163897919Y-78740000D02*
X165100000Y-78740000D01*
X160020000Y-78740000D02*
X163897919Y-78740000D01*
X152900000Y-85860000D02*
X160020000Y-78740000D01*
X152900000Y-86360000D02*
X152900000Y-85860000D01*
G04 #@! TO.N,4*
X163897919Y-81280000D02*
X165100000Y-81280000D01*
X154170000Y-85860000D02*
X158750000Y-81280000D01*
X158750000Y-81280000D02*
X163897919Y-81280000D01*
X154170000Y-86360000D02*
X154170000Y-85860000D01*
G04 #@! TO.N,3*
X157480000Y-83820000D02*
X163897919Y-83820000D01*
X163897919Y-83820000D02*
X165100000Y-83820000D01*
X155440000Y-85860000D02*
X157480000Y-83820000D01*
X155440000Y-86360000D02*
X155440000Y-85860000D01*
G04 #@! TO.N,2*
X156710000Y-85860000D02*
X157480000Y-85090000D01*
X156710000Y-86360000D02*
X156710000Y-85860000D01*
X163830000Y-85090000D02*
X165100000Y-86360000D01*
X157480000Y-85090000D02*
X163830000Y-85090000D01*
G04 #@! TO.N,30*
X163949999Y-92590001D02*
X163949999Y-93707601D01*
X165100000Y-91440000D02*
X163949999Y-92590001D01*
X163197600Y-94460000D02*
X162153600Y-94460000D01*
X163949999Y-93707601D02*
X163197600Y-94460000D01*
X159740000Y-94460000D02*
X162153600Y-94460000D01*
X162153600Y-94460000D02*
X162248994Y-94460000D01*
G04 #@! TO.N,29*
X163350000Y-95730000D02*
X165100000Y-93980000D01*
X159740000Y-95730000D02*
X163350000Y-95730000D01*
G04 #@! TO.N,28*
X164620000Y-97000000D02*
X165100000Y-96520000D01*
X159740000Y-97000000D02*
X164620000Y-97000000D01*
G04 #@! TO.N,27*
X164310000Y-98270000D02*
X165100000Y-99060000D01*
X159740000Y-98270000D02*
X164310000Y-98270000D01*
G04 #@! TO.N,26*
X163040000Y-99540000D02*
X165100000Y-101600000D01*
X159740000Y-99540000D02*
X163040000Y-99540000D01*
G04 #@! TO.N,25*
X161770000Y-100810000D02*
X165100000Y-104140000D01*
X159740000Y-100810000D02*
X161770000Y-100810000D01*
G04 #@! TO.N,24*
X137640000Y-104620000D02*
X137160000Y-104140000D01*
X142240000Y-104620000D02*
X137640000Y-104620000D01*
G04 #@! TO.N,23*
X138910000Y-103350000D02*
X137160000Y-101600000D01*
X142240000Y-103350000D02*
X138910000Y-103350000D01*
G04 #@! TO.N,22*
X140180000Y-102080000D02*
X137160000Y-99060000D01*
X142240000Y-102080000D02*
X140180000Y-102080000D01*
G04 #@! TO.N,20*
X140180000Y-97000000D02*
X137160000Y-93980000D01*
X142240000Y-97000000D02*
X140180000Y-97000000D01*
G04 #@! TO.N,19*
X141450000Y-95730000D02*
X137160000Y-91440000D01*
X142240000Y-95730000D02*
X141450000Y-95730000D01*
G04 #@! TO.N,18*
X142240000Y-94460000D02*
X142740000Y-94460000D01*
X136310001Y-88050001D02*
X137160000Y-88900000D01*
X136009999Y-54789999D02*
X136009999Y-87749999D01*
X136009999Y-87749999D02*
X136310001Y-88050001D01*
X136189998Y-54610000D02*
X136009999Y-54789999D01*
X155372002Y-54610000D02*
X136189998Y-54610000D01*
X141882002Y-94460000D02*
X138009999Y-90587997D01*
X138009999Y-89749999D02*
X137160000Y-88900000D01*
X138009999Y-90587997D02*
X138009999Y-89749999D01*
X142240000Y-94460000D02*
X141882002Y-94460000D01*
X157912002Y-54610000D02*
X155372002Y-54610000D01*
X158630001Y-55327999D02*
X157912002Y-54610000D01*
X158630001Y-57269999D02*
X158630001Y-55327999D01*
X156210000Y-59690000D02*
X158630001Y-57269999D01*
G04 #@! TO.N,17*
X138009999Y-87209999D02*
X137160000Y-86360000D01*
X138410009Y-87610009D02*
X138009999Y-87209999D01*
X138410009Y-89860009D02*
X138410009Y-87610009D01*
X141740000Y-93190000D02*
X138410009Y-89860009D01*
X142240000Y-93190000D02*
X141740000Y-93190000D01*
G04 #@! TO.N,16*
X138009999Y-84669999D02*
X137160000Y-83820000D01*
X138810019Y-85470019D02*
X138009999Y-84669999D01*
X138810019Y-88990019D02*
X138810019Y-85470019D01*
X141740000Y-91920000D02*
X138810019Y-88990019D01*
X142240000Y-91920000D02*
X141740000Y-91920000D01*
G04 #@! TO.N,15*
X138009999Y-82129999D02*
X137160000Y-81280000D01*
X139210029Y-83330029D02*
X138009999Y-82129999D01*
X139210029Y-88120029D02*
X139210029Y-83330029D01*
X141740000Y-90650000D02*
X139210029Y-88120029D01*
X142240000Y-90650000D02*
X141740000Y-90650000D01*
G04 #@! TO.N,14*
X138009999Y-79589999D02*
X137160000Y-78740000D01*
X139610039Y-81190039D02*
X138009999Y-79589999D01*
X141740000Y-89380000D02*
X139610039Y-87250039D01*
X139610039Y-87250039D02*
X139610039Y-81190039D01*
X142240000Y-89380000D02*
X141740000Y-89380000D01*
G04 #@! TO.N,13*
X142240000Y-81280000D02*
X137160000Y-76200000D01*
X142240000Y-88110000D02*
X142240000Y-81280000D01*
G04 #@! TO.N,12*
X144010000Y-80510000D02*
X137160000Y-73660000D01*
X144010000Y-86360000D02*
X144010000Y-80510000D01*
G04 #@! TO.N,11*
X145280000Y-79240000D02*
X137160000Y-71120000D01*
X145280000Y-86360000D02*
X145280000Y-79240000D01*
G04 #@! TO.N,10*
X146550000Y-77970000D02*
X137160000Y-68580000D01*
X146550000Y-86360000D02*
X146550000Y-77970000D01*
G04 #@! TO.N,!RST*
X153035000Y-71725000D02*
X153035000Y-71725000D01*
X153035000Y-69088000D02*
X153035000Y-69040000D01*
X144780000Y-69850000D02*
X144780000Y-72390000D01*
X144780000Y-72390000D02*
X144780000Y-72390000D01*
X153035000Y-71725000D02*
X153035000Y-71725000D01*
X153035000Y-71725000D02*
X153035000Y-69088000D01*
G04 #@! TO.N,21*
X142240000Y-98270000D02*
X142740000Y-98270000D01*
X142740000Y-98270000D02*
X145830001Y-95179999D01*
X145830001Y-95179999D02*
X145830001Y-95179999D01*
X138910000Y-98270000D02*
X137160000Y-96520000D01*
X142240000Y-98270000D02*
X138910000Y-98270000D01*
G04 #@! TO.N,VBUS*
X146080000Y-56510000D02*
X146505000Y-56510000D01*
X146080000Y-57360000D02*
X146080000Y-56510000D01*
X145979999Y-57460001D02*
X146080000Y-57360000D01*
X145104999Y-57460001D02*
X145979999Y-57460001D01*
X142875000Y-59690000D02*
X145104999Y-57460001D01*
G04 #@! TD*
D25*
G04 #@! TO.N,GND*
G36*
X139835707Y-51754620D02*
X139695000Y-52208000D01*
X139695000Y-52533000D01*
X140778000Y-52533000D01*
X140778000Y-52513000D01*
X141032000Y-52513000D01*
X141032000Y-52533000D01*
X142115000Y-52533000D01*
X142115000Y-52208000D01*
X141974293Y-51754620D01*
X141791690Y-51535000D01*
X147768310Y-51535000D01*
X147585707Y-51754620D01*
X147445000Y-52208000D01*
X147445000Y-52533000D01*
X148528000Y-52533000D01*
X148528000Y-52513000D01*
X148782000Y-52513000D01*
X148782000Y-52533000D01*
X149865000Y-52533000D01*
X149865000Y-52208000D01*
X149724293Y-51754620D01*
X149541690Y-51535000D01*
X169445001Y-51535000D01*
X169445000Y-109093000D01*
X161379137Y-109093000D01*
X161347354Y-108933217D01*
X161184905Y-108690095D01*
X160941783Y-108527646D01*
X160727388Y-108485000D01*
X160655000Y-108470601D01*
X160582612Y-108485000D01*
X141042388Y-108485000D01*
X140970000Y-108470601D01*
X140897612Y-108485000D01*
X140683217Y-108527646D01*
X140440095Y-108690095D01*
X140277646Y-108933217D01*
X140245863Y-109093000D01*
X132815000Y-109093000D01*
X132815000Y-106334887D01*
X132885000Y-106334887D01*
X132885000Y-107025113D01*
X133149138Y-107662799D01*
X133637201Y-108150862D01*
X134274887Y-108415000D01*
X134965113Y-108415000D01*
X135602799Y-108150862D01*
X136090862Y-107662799D01*
X136181595Y-107443750D01*
X140855000Y-107443750D01*
X140855000Y-107536310D01*
X140951673Y-107769699D01*
X140976974Y-107795000D01*
X140951673Y-107820301D01*
X140855000Y-108053690D01*
X140855000Y-108146250D01*
X141013750Y-108305000D01*
X142113000Y-108305000D01*
X142113000Y-107285000D01*
X142367000Y-107285000D01*
X142367000Y-108305000D01*
X143466250Y-108305000D01*
X143625000Y-108146250D01*
X143625000Y-108053690D01*
X143528327Y-107820301D01*
X143503026Y-107795000D01*
X143528327Y-107769699D01*
X143625000Y-107536310D01*
X143625000Y-107443750D01*
X158355000Y-107443750D01*
X158355000Y-107536310D01*
X158451673Y-107769699D01*
X158476974Y-107795000D01*
X158451673Y-107820301D01*
X158355000Y-108053690D01*
X158355000Y-108146250D01*
X158513750Y-108305000D01*
X159613000Y-108305000D01*
X159613000Y-107285000D01*
X159867000Y-107285000D01*
X159867000Y-108305000D01*
X160966250Y-108305000D01*
X161125000Y-108146250D01*
X161125000Y-108053690D01*
X161028327Y-107820301D01*
X161003026Y-107795000D01*
X161028327Y-107769699D01*
X161125000Y-107536310D01*
X161125000Y-107443750D01*
X160966250Y-107285000D01*
X159867000Y-107285000D01*
X159613000Y-107285000D01*
X158513750Y-107285000D01*
X158355000Y-107443750D01*
X143625000Y-107443750D01*
X143466250Y-107285000D01*
X142367000Y-107285000D01*
X142113000Y-107285000D01*
X141013750Y-107285000D01*
X140855000Y-107443750D01*
X136181595Y-107443750D01*
X136355000Y-107025113D01*
X136355000Y-106783690D01*
X140855000Y-106783690D01*
X140855000Y-106876250D01*
X141013750Y-107035000D01*
X142113000Y-107035000D01*
X142113000Y-106433750D01*
X142367000Y-106433750D01*
X142367000Y-107035000D01*
X143466250Y-107035000D01*
X143625000Y-106876250D01*
X143625000Y-106783690D01*
X158355000Y-106783690D01*
X158355000Y-106876250D01*
X158513750Y-107035000D01*
X159613000Y-107035000D01*
X159613000Y-106433750D01*
X159867000Y-106433750D01*
X159867000Y-107035000D01*
X160966250Y-107035000D01*
X161125000Y-106876250D01*
X161125000Y-106783690D01*
X161028327Y-106550301D01*
X160849698Y-106371673D01*
X160760889Y-106334887D01*
X165905000Y-106334887D01*
X165905000Y-107025113D01*
X166169138Y-107662799D01*
X166657201Y-108150862D01*
X167294887Y-108415000D01*
X167985113Y-108415000D01*
X168622799Y-108150862D01*
X169110862Y-107662799D01*
X169375000Y-107025113D01*
X169375000Y-106334887D01*
X169110862Y-105697201D01*
X168622799Y-105209138D01*
X167985113Y-104945000D01*
X167294887Y-104945000D01*
X166657201Y-105209138D01*
X166169138Y-105697201D01*
X165905000Y-106334887D01*
X160760889Y-106334887D01*
X160616309Y-106275000D01*
X160025750Y-106275000D01*
X159867000Y-106433750D01*
X159613000Y-106433750D01*
X159454250Y-106275000D01*
X158863691Y-106275000D01*
X158630302Y-106371673D01*
X158451673Y-106550301D01*
X158355000Y-106783690D01*
X143625000Y-106783690D01*
X143528327Y-106550301D01*
X143349698Y-106371673D01*
X143116309Y-106275000D01*
X142525750Y-106275000D01*
X142367000Y-106433750D01*
X142113000Y-106433750D01*
X141954250Y-106275000D01*
X141363691Y-106275000D01*
X141130302Y-106371673D01*
X140951673Y-106550301D01*
X140855000Y-106783690D01*
X136355000Y-106783690D01*
X136355000Y-106334887D01*
X136090862Y-105697201D01*
X135602799Y-105209138D01*
X134965113Y-104945000D01*
X134274887Y-104945000D01*
X133637201Y-105209138D01*
X133149138Y-105697201D01*
X132885000Y-106334887D01*
X132815000Y-106334887D01*
X132815000Y-52994887D01*
X132885000Y-52994887D01*
X132885000Y-53685113D01*
X133149138Y-54322799D01*
X133637201Y-54810862D01*
X134274887Y-55075000D01*
X134965113Y-55075000D01*
X135274999Y-54946641D01*
X135275000Y-87677610D01*
X135260601Y-87749999D01*
X135317645Y-88036781D01*
X135414936Y-88182387D01*
X135480095Y-88279904D01*
X135541462Y-88320908D01*
X135724657Y-88504103D01*
X135645908Y-88900000D01*
X135761161Y-89479418D01*
X136089375Y-89970625D01*
X136387761Y-90170000D01*
X136089375Y-90369375D01*
X135761161Y-90860582D01*
X135645908Y-91440000D01*
X135761161Y-92019418D01*
X136089375Y-92510625D01*
X136387761Y-92710000D01*
X136089375Y-92909375D01*
X135761161Y-93400582D01*
X135645908Y-93980000D01*
X135761161Y-94559418D01*
X136089375Y-95050625D01*
X136387761Y-95250000D01*
X136089375Y-95449375D01*
X135761161Y-95940582D01*
X135645908Y-96520000D01*
X135761161Y-97099418D01*
X136089375Y-97590625D01*
X136387761Y-97790000D01*
X136089375Y-97989375D01*
X135761161Y-98480582D01*
X135645908Y-99060000D01*
X135761161Y-99639418D01*
X136089375Y-100130625D01*
X136387761Y-100330000D01*
X136089375Y-100529375D01*
X135761161Y-101020582D01*
X135645908Y-101600000D01*
X135761161Y-102179418D01*
X136089375Y-102670625D01*
X136387761Y-102870000D01*
X136089375Y-103069375D01*
X135761161Y-103560582D01*
X135645908Y-104140000D01*
X135761161Y-104719418D01*
X136089375Y-105210625D01*
X136580582Y-105538839D01*
X137013744Y-105625000D01*
X137306256Y-105625000D01*
X137739418Y-105538839D01*
X138014553Y-105355000D01*
X141072885Y-105355000D01*
X141242235Y-105468157D01*
X141490000Y-105517440D01*
X142990000Y-105517440D01*
X143237765Y-105468157D01*
X143447809Y-105327809D01*
X143588157Y-105117765D01*
X143630726Y-104903750D01*
X158355000Y-104903750D01*
X158355000Y-104996310D01*
X158451673Y-105229699D01*
X158630302Y-105408327D01*
X158863691Y-105505000D01*
X159454250Y-105505000D01*
X159613000Y-105346250D01*
X159613000Y-104745000D01*
X159867000Y-104745000D01*
X159867000Y-105346250D01*
X160025750Y-105505000D01*
X160616309Y-105505000D01*
X160849698Y-105408327D01*
X161028327Y-105229699D01*
X161125000Y-104996310D01*
X161125000Y-104903750D01*
X160966250Y-104745000D01*
X159867000Y-104745000D01*
X159613000Y-104745000D01*
X158513750Y-104745000D01*
X158355000Y-104903750D01*
X143630726Y-104903750D01*
X143637440Y-104870000D01*
X143637440Y-104370000D01*
X143588157Y-104122235D01*
X143496459Y-103985000D01*
X143588157Y-103847765D01*
X143637440Y-103600000D01*
X143637440Y-103100000D01*
X143588157Y-102852235D01*
X143496459Y-102715000D01*
X143588157Y-102577765D01*
X143637440Y-102330000D01*
X143637440Y-101830000D01*
X143588157Y-101582235D01*
X143496459Y-101445000D01*
X143588157Y-101307765D01*
X143637440Y-101060000D01*
X143637440Y-100952006D01*
X149008537Y-95580910D01*
X149069904Y-95539906D01*
X149232353Y-95296784D01*
X149274999Y-95082389D01*
X149274999Y-95082386D01*
X149289397Y-95010002D01*
X149274999Y-94937618D01*
X149274999Y-87757440D01*
X149340000Y-87757440D01*
X149587765Y-87708157D01*
X149725000Y-87616459D01*
X149862235Y-87708157D01*
X150110000Y-87757440D01*
X150610000Y-87757440D01*
X150857765Y-87708157D01*
X150995000Y-87616459D01*
X151132235Y-87708157D01*
X151380000Y-87757440D01*
X151880000Y-87757440D01*
X152127765Y-87708157D01*
X152265000Y-87616459D01*
X152402235Y-87708157D01*
X152650000Y-87757440D01*
X153150000Y-87757440D01*
X153397765Y-87708157D01*
X153535000Y-87616459D01*
X153672235Y-87708157D01*
X153920000Y-87757440D01*
X154420000Y-87757440D01*
X154667765Y-87708157D01*
X154805000Y-87616459D01*
X154942235Y-87708157D01*
X155190000Y-87757440D01*
X155690000Y-87757440D01*
X155937765Y-87708157D01*
X156075000Y-87616459D01*
X156212235Y-87708157D01*
X156460000Y-87757440D01*
X156960000Y-87757440D01*
X157207765Y-87708157D01*
X157345000Y-87616459D01*
X157482235Y-87708157D01*
X157730000Y-87757440D01*
X158230000Y-87757440D01*
X158355503Y-87732476D01*
X158355000Y-87733690D01*
X158355000Y-87826250D01*
X158513750Y-87985000D01*
X159613000Y-87985000D01*
X159613000Y-87383750D01*
X159454250Y-87225000D01*
X158863691Y-87225000D01*
X158853746Y-87229119D01*
X158877440Y-87110000D01*
X158877440Y-86917288D01*
X159023000Y-86565874D01*
X159023000Y-86154126D01*
X158886672Y-85825000D01*
X163525554Y-85825000D01*
X163664657Y-85964103D01*
X163634955Y-86113426D01*
X163357294Y-85927898D01*
X163016250Y-85860060D01*
X162103750Y-85860060D01*
X161762706Y-85927898D01*
X161473584Y-86121084D01*
X161280398Y-86410206D01*
X161212560Y-86751250D01*
X161212560Y-87238750D01*
X161223219Y-87292335D01*
X161091453Y-87424101D01*
X161030086Y-87465105D01*
X161015284Y-87487258D01*
X160849698Y-87321673D01*
X160616309Y-87225000D01*
X160025750Y-87225000D01*
X159867000Y-87383750D01*
X159867000Y-87985000D01*
X159887000Y-87985000D01*
X159887000Y-88235000D01*
X159867000Y-88235000D01*
X159867000Y-88257000D01*
X159613000Y-88257000D01*
X159613000Y-88235000D01*
X158513750Y-88235000D01*
X158355000Y-88393750D01*
X158355000Y-88486310D01*
X158451673Y-88719699D01*
X158480911Y-88748937D01*
X158391843Y-88882235D01*
X158342560Y-89130000D01*
X158342560Y-89630000D01*
X158391843Y-89877765D01*
X158483541Y-90015000D01*
X158391843Y-90152235D01*
X158342560Y-90400000D01*
X158342560Y-90900000D01*
X158391843Y-91147765D01*
X158483541Y-91285000D01*
X158391843Y-91422235D01*
X158342560Y-91670000D01*
X158342560Y-92170000D01*
X158391843Y-92417765D01*
X158483541Y-92555000D01*
X158391843Y-92692235D01*
X158342560Y-92940000D01*
X158342560Y-93440000D01*
X158391843Y-93687765D01*
X158483541Y-93825000D01*
X158391843Y-93962235D01*
X158342560Y-94210000D01*
X158342560Y-94710000D01*
X158391843Y-94957765D01*
X158483541Y-95095000D01*
X158391843Y-95232235D01*
X158342560Y-95480000D01*
X158342560Y-95980000D01*
X158391843Y-96227765D01*
X158483541Y-96365000D01*
X158391843Y-96502235D01*
X158342560Y-96750000D01*
X158342560Y-97250000D01*
X158391843Y-97497765D01*
X158483541Y-97635000D01*
X158391843Y-97772235D01*
X158342560Y-98020000D01*
X158342560Y-98520000D01*
X158391843Y-98767765D01*
X158483541Y-98905000D01*
X158391843Y-99042235D01*
X158342560Y-99290000D01*
X158342560Y-99790000D01*
X158391843Y-100037765D01*
X158483541Y-100175000D01*
X158391843Y-100312235D01*
X158342560Y-100560000D01*
X158342560Y-101060000D01*
X158391843Y-101307765D01*
X158483541Y-101445000D01*
X158391843Y-101582235D01*
X158342560Y-101830000D01*
X158342560Y-102330000D01*
X158391843Y-102577765D01*
X158483541Y-102715000D01*
X158391843Y-102852235D01*
X158342560Y-103100000D01*
X158342560Y-103600000D01*
X158391843Y-103847765D01*
X158480911Y-103981063D01*
X158451673Y-104010301D01*
X158355000Y-104243690D01*
X158355000Y-104336250D01*
X158513750Y-104495000D01*
X159613000Y-104495000D01*
X159613000Y-104473000D01*
X159867000Y-104473000D01*
X159867000Y-104495000D01*
X160966250Y-104495000D01*
X161125000Y-104336250D01*
X161125000Y-104243690D01*
X161028327Y-104010301D01*
X160999089Y-103981063D01*
X161088157Y-103847765D01*
X161137440Y-103600000D01*
X161137440Y-103100000D01*
X161088157Y-102852235D01*
X160996459Y-102715000D01*
X161088157Y-102577765D01*
X161137440Y-102330000D01*
X161137440Y-101830000D01*
X161088157Y-101582235D01*
X161063277Y-101545000D01*
X161465554Y-101545000D01*
X163664656Y-103744103D01*
X163585908Y-104140000D01*
X163701161Y-104719418D01*
X164029375Y-105210625D01*
X164520582Y-105538839D01*
X164953744Y-105625000D01*
X165246256Y-105625000D01*
X165679418Y-105538839D01*
X166170625Y-105210625D01*
X166498839Y-104719418D01*
X166614092Y-104140000D01*
X166498839Y-103560582D01*
X166170625Y-103069375D01*
X165872239Y-102870000D01*
X166170625Y-102670625D01*
X166498839Y-102179418D01*
X166614092Y-101600000D01*
X166498839Y-101020582D01*
X166170625Y-100529375D01*
X165872239Y-100330000D01*
X166170625Y-100130625D01*
X166498839Y-99639418D01*
X166614092Y-99060000D01*
X166498839Y-98480582D01*
X166170625Y-97989375D01*
X165872239Y-97790000D01*
X166170625Y-97590625D01*
X166498839Y-97099418D01*
X166614092Y-96520000D01*
X166498839Y-95940582D01*
X166170625Y-95449375D01*
X165872239Y-95250000D01*
X166170625Y-95050625D01*
X166498839Y-94559418D01*
X166614092Y-93980000D01*
X166498839Y-93400582D01*
X166170625Y-92909375D01*
X165872239Y-92710000D01*
X166170625Y-92510625D01*
X166498839Y-92019418D01*
X166614092Y-91440000D01*
X166498839Y-90860582D01*
X166170625Y-90369375D01*
X165872239Y-90170000D01*
X166170625Y-89970625D01*
X166498839Y-89479418D01*
X166614092Y-88900000D01*
X166498839Y-88320582D01*
X166170625Y-87829375D01*
X165872239Y-87630000D01*
X166170625Y-87430625D01*
X166498839Y-86939418D01*
X166614092Y-86360000D01*
X166498839Y-85780582D01*
X166170625Y-85289375D01*
X165872239Y-85090000D01*
X166170625Y-84890625D01*
X166498839Y-84399418D01*
X166614092Y-83820000D01*
X166498839Y-83240582D01*
X166170625Y-82749375D01*
X165872239Y-82550000D01*
X166170625Y-82350625D01*
X166498839Y-81859418D01*
X166614092Y-81280000D01*
X166498839Y-80700582D01*
X166170625Y-80209375D01*
X165872239Y-80010000D01*
X166170625Y-79810625D01*
X166498839Y-79319418D01*
X166614092Y-78740000D01*
X166498839Y-78160582D01*
X166170625Y-77669375D01*
X165872239Y-77470000D01*
X166170625Y-77270625D01*
X166498839Y-76779418D01*
X166614092Y-76200000D01*
X166498839Y-75620582D01*
X166170625Y-75129375D01*
X165872239Y-74930000D01*
X166170625Y-74730625D01*
X166498839Y-74239418D01*
X166614092Y-73660000D01*
X166498839Y-73080582D01*
X166170625Y-72589375D01*
X165872239Y-72390000D01*
X166170625Y-72190625D01*
X166498839Y-71699418D01*
X166614092Y-71120000D01*
X166498839Y-70540582D01*
X166170625Y-70049375D01*
X165872239Y-69850000D01*
X166170625Y-69650625D01*
X166498839Y-69159418D01*
X166614092Y-68580000D01*
X166498839Y-68000582D01*
X166170625Y-67509375D01*
X165872239Y-67310000D01*
X166170625Y-67110625D01*
X166498839Y-66619418D01*
X166614092Y-66040000D01*
X166498839Y-65460582D01*
X166170625Y-64969375D01*
X165872239Y-64770000D01*
X166170625Y-64570625D01*
X166498839Y-64079418D01*
X166614092Y-63500000D01*
X166498839Y-62920582D01*
X166170625Y-62429375D01*
X165872239Y-62230000D01*
X166170625Y-62030625D01*
X166498839Y-61539418D01*
X166614092Y-60960000D01*
X166498839Y-60380582D01*
X166170625Y-59889375D01*
X165851522Y-59676157D01*
X165981358Y-59615183D01*
X166371645Y-59186924D01*
X166541476Y-58776890D01*
X166420155Y-58547000D01*
X165227000Y-58547000D01*
X165227000Y-58567000D01*
X164973000Y-58567000D01*
X164973000Y-58547000D01*
X163779845Y-58547000D01*
X163658524Y-58776890D01*
X163828355Y-59186924D01*
X164218642Y-59615183D01*
X164348478Y-59676157D01*
X164029375Y-59889375D01*
X164017184Y-59907619D01*
X164008157Y-59862235D01*
X163867809Y-59652191D01*
X163657765Y-59511843D01*
X163410000Y-59462560D01*
X161710000Y-59462560D01*
X161462235Y-59511843D01*
X161252191Y-59652191D01*
X161111843Y-59862235D01*
X161062560Y-60110000D01*
X161062560Y-61810000D01*
X161111843Y-62057765D01*
X161252191Y-62267809D01*
X161462235Y-62408157D01*
X161507619Y-62417184D01*
X161489375Y-62429375D01*
X161161161Y-62920582D01*
X161045908Y-63500000D01*
X161161161Y-64079418D01*
X161489375Y-64570625D01*
X161980582Y-64898839D01*
X162413744Y-64985000D01*
X162706256Y-64985000D01*
X163139418Y-64898839D01*
X163630625Y-64570625D01*
X163830000Y-64272239D01*
X164029375Y-64570625D01*
X164327761Y-64770000D01*
X164029375Y-64969375D01*
X163701161Y-65460582D01*
X163585908Y-66040000D01*
X163701161Y-66619418D01*
X164029375Y-67110625D01*
X164327761Y-67310000D01*
X164029375Y-67509375D01*
X163701161Y-68000582D01*
X163585908Y-68580000D01*
X163701161Y-69159418D01*
X164029375Y-69650625D01*
X164327761Y-69850000D01*
X164029375Y-70049375D01*
X163812399Y-70374103D01*
X163757616Y-70385000D01*
X163757612Y-70385000D01*
X163543217Y-70427646D01*
X163300095Y-70590095D01*
X163259091Y-70651462D01*
X149274999Y-84635555D01*
X149274999Y-84174447D01*
X155408538Y-78040909D01*
X155469905Y-77999905D01*
X155632354Y-77756783D01*
X155675000Y-77542388D01*
X155675000Y-77542385D01*
X155689398Y-77470001D01*
X155675000Y-77397617D01*
X155675000Y-68840000D01*
X158237560Y-68840000D01*
X158237560Y-69940000D01*
X158286843Y-70187765D01*
X158427191Y-70397809D01*
X158637235Y-70538157D01*
X158885000Y-70587440D01*
X160685000Y-70587440D01*
X160932765Y-70538157D01*
X161142809Y-70397809D01*
X161283157Y-70187765D01*
X161332440Y-69940000D01*
X161332440Y-68840000D01*
X161283157Y-68592235D01*
X161142809Y-68382191D01*
X160932765Y-68241843D01*
X160881321Y-68231610D01*
X160860280Y-68210569D01*
X160479874Y-68053000D01*
X160068126Y-68053000D01*
X159731198Y-68192560D01*
X158885000Y-68192560D01*
X158637235Y-68241843D01*
X158427191Y-68382191D01*
X158286843Y-68592235D01*
X158237560Y-68840000D01*
X155675000Y-68840000D01*
X155675000Y-65975750D01*
X158250000Y-65975750D01*
X158250000Y-66366310D01*
X158346673Y-66599699D01*
X158525302Y-66778327D01*
X158758691Y-66875000D01*
X159499250Y-66875000D01*
X159658000Y-66716250D01*
X159658000Y-65817000D01*
X159912000Y-65817000D01*
X159912000Y-66716250D01*
X160070750Y-66875000D01*
X160811309Y-66875000D01*
X161044698Y-66778327D01*
X161223327Y-66599699D01*
X161320000Y-66366310D01*
X161320000Y-65975750D01*
X161161250Y-65817000D01*
X159912000Y-65817000D01*
X159658000Y-65817000D01*
X158408750Y-65817000D01*
X158250000Y-65975750D01*
X155675000Y-65975750D01*
X155675000Y-65013690D01*
X158250000Y-65013690D01*
X158250000Y-65404250D01*
X158408750Y-65563000D01*
X159658000Y-65563000D01*
X159658000Y-64663750D01*
X159912000Y-64663750D01*
X159912000Y-65563000D01*
X161161250Y-65563000D01*
X161320000Y-65404250D01*
X161320000Y-65013690D01*
X161223327Y-64780301D01*
X161044698Y-64601673D01*
X160811309Y-64505000D01*
X160070750Y-64505000D01*
X159912000Y-64663750D01*
X159658000Y-64663750D01*
X159499250Y-64505000D01*
X158758691Y-64505000D01*
X158525302Y-64601673D01*
X158346673Y-64780301D01*
X158250000Y-65013690D01*
X155675000Y-65013690D01*
X155675000Y-64842383D01*
X155689398Y-64769999D01*
X155675000Y-64697615D01*
X155675000Y-64697612D01*
X155632354Y-64483217D01*
X155469905Y-64240095D01*
X155408537Y-64199090D01*
X153604999Y-62395553D01*
X153604999Y-62107440D01*
X154170000Y-62107440D01*
X154417765Y-62058157D01*
X154505817Y-61999322D01*
X154638126Y-62054119D01*
X154813000Y-61927954D01*
X154813000Y-61482322D01*
X154817440Y-61460000D01*
X154817440Y-61087000D01*
X155067000Y-61087000D01*
X155067000Y-61927954D01*
X155241874Y-62054119D01*
X155500209Y-61947127D01*
X155575000Y-61882511D01*
X155649791Y-61947127D01*
X155908126Y-62054119D01*
X156083000Y-61927954D01*
X156083000Y-61087000D01*
X155067000Y-61087000D01*
X154817440Y-61087000D01*
X154817440Y-60822856D01*
X154828217Y-60825000D01*
X155051783Y-60825000D01*
X155067000Y-60821973D01*
X155067000Y-60833000D01*
X156083000Y-60833000D01*
X156083000Y-60821973D01*
X156098217Y-60825000D01*
X156321783Y-60825000D01*
X156337000Y-60821973D01*
X156337000Y-60833000D01*
X156348027Y-60833000D01*
X156322765Y-60960000D01*
X156348027Y-61087000D01*
X156337000Y-61087000D01*
X156337000Y-61927954D01*
X156511874Y-62054119D01*
X156770209Y-61947127D01*
X156833090Y-61892801D01*
X157037145Y-62029146D01*
X157368217Y-62095000D01*
X157591783Y-62095000D01*
X157922855Y-62029146D01*
X158126910Y-61892801D01*
X158189791Y-61947127D01*
X158448126Y-62054119D01*
X158623000Y-61927954D01*
X158623000Y-61087000D01*
X158877000Y-61087000D01*
X158877000Y-61927954D01*
X159051874Y-62054119D01*
X159310209Y-61947127D01*
X159645323Y-61657604D01*
X159844132Y-61261877D01*
X159719135Y-61087000D01*
X158877000Y-61087000D01*
X158623000Y-61087000D01*
X158611973Y-61087000D01*
X158637235Y-60960000D01*
X158611973Y-60833000D01*
X158623000Y-60833000D01*
X158623000Y-60821973D01*
X158638217Y-60825000D01*
X158861783Y-60825000D01*
X158877000Y-60821973D01*
X158877000Y-60833000D01*
X159719135Y-60833000D01*
X159844132Y-60658123D01*
X159682776Y-60336947D01*
X159819146Y-60132855D01*
X159907235Y-59690000D01*
X159819146Y-59247145D01*
X159568289Y-58871711D01*
X159192855Y-58620854D01*
X158861783Y-58555000D01*
X158638217Y-58555000D01*
X158321435Y-58618012D01*
X159098539Y-57840908D01*
X159159906Y-57799904D01*
X159322355Y-57556782D01*
X159365001Y-57342387D01*
X159365001Y-57342384D01*
X159379399Y-57270000D01*
X159365085Y-57198038D01*
X159663110Y-57321476D01*
X159893000Y-57200155D01*
X159893000Y-56007000D01*
X159873000Y-56007000D01*
X159873000Y-55753000D01*
X159893000Y-55753000D01*
X159893000Y-54559845D01*
X160147000Y-54559845D01*
X160147000Y-55753000D01*
X160167000Y-55753000D01*
X160167000Y-56007000D01*
X160147000Y-56007000D01*
X160147000Y-57200155D01*
X160376890Y-57321476D01*
X160786924Y-57151645D01*
X161091261Y-56874292D01*
X161111843Y-56977765D01*
X161252191Y-57187809D01*
X161462235Y-57328157D01*
X161710000Y-57377440D01*
X163410000Y-57377440D01*
X163657765Y-57328157D01*
X163833025Y-57211051D01*
X163890302Y-57268327D01*
X164099878Y-57355136D01*
X163828355Y-57653076D01*
X163658524Y-58063110D01*
X163779845Y-58293000D01*
X164973000Y-58293000D01*
X164973000Y-56007000D01*
X165227000Y-56007000D01*
X165227000Y-58293000D01*
X166420155Y-58293000D01*
X166541476Y-58063110D01*
X166371645Y-57653076D01*
X166100122Y-57355136D01*
X166309698Y-57268327D01*
X166488327Y-57089699D01*
X166585000Y-56856310D01*
X166585000Y-56165750D01*
X166426250Y-56007000D01*
X165227000Y-56007000D01*
X164973000Y-56007000D01*
X164953000Y-56007000D01*
X164953000Y-55753000D01*
X164973000Y-55753000D01*
X164973000Y-54553750D01*
X165227000Y-54553750D01*
X165227000Y-55753000D01*
X166426250Y-55753000D01*
X166585000Y-55594250D01*
X166585000Y-54903690D01*
X166488327Y-54670301D01*
X166309698Y-54491673D01*
X166076309Y-54395000D01*
X165385750Y-54395000D01*
X165227000Y-54553750D01*
X164973000Y-54553750D01*
X164814250Y-54395000D01*
X164123691Y-54395000D01*
X163890302Y-54491673D01*
X163833025Y-54548949D01*
X163657765Y-54431843D01*
X163410000Y-54382560D01*
X161710000Y-54382560D01*
X161462235Y-54431843D01*
X161252191Y-54572191D01*
X161111843Y-54782235D01*
X161091261Y-54885708D01*
X160786924Y-54608355D01*
X160376890Y-54438524D01*
X160147000Y-54559845D01*
X159893000Y-54559845D01*
X159663110Y-54438524D01*
X159253076Y-54608355D01*
X159094406Y-54752957D01*
X158482913Y-54141465D01*
X158441907Y-54080095D01*
X158198785Y-53917646D01*
X157984390Y-53875000D01*
X157984386Y-53875000D01*
X157912002Y-53860602D01*
X157839618Y-53875000D01*
X149466860Y-53875000D01*
X149724293Y-53565380D01*
X149865000Y-53112000D01*
X149865000Y-52994887D01*
X165905000Y-52994887D01*
X165905000Y-53685113D01*
X166169138Y-54322799D01*
X166657201Y-54810862D01*
X167294887Y-55075000D01*
X167985113Y-55075000D01*
X168622799Y-54810862D01*
X169110862Y-54322799D01*
X169375000Y-53685113D01*
X169375000Y-52994887D01*
X169110862Y-52357201D01*
X168622799Y-51869138D01*
X167985113Y-51605000D01*
X167294887Y-51605000D01*
X166657201Y-51869138D01*
X166169138Y-52357201D01*
X165905000Y-52994887D01*
X149865000Y-52994887D01*
X149865000Y-52787000D01*
X148782000Y-52787000D01*
X148782000Y-52807000D01*
X148528000Y-52807000D01*
X148528000Y-52787000D01*
X147445000Y-52787000D01*
X147445000Y-53112000D01*
X147585707Y-53565380D01*
X147843140Y-53875000D01*
X141716860Y-53875000D01*
X141974293Y-53565380D01*
X142115000Y-53112000D01*
X142115000Y-52787000D01*
X141032000Y-52787000D01*
X141032000Y-52807000D01*
X140778000Y-52807000D01*
X140778000Y-52787000D01*
X139695000Y-52787000D01*
X139695000Y-53112000D01*
X139835707Y-53565380D01*
X140093140Y-53875000D01*
X136276346Y-53875000D01*
X136355000Y-53685113D01*
X136355000Y-52994887D01*
X136090862Y-52357201D01*
X135602799Y-51869138D01*
X134965113Y-51605000D01*
X134274887Y-51605000D01*
X133637201Y-51869138D01*
X133149138Y-52357201D01*
X132885000Y-52994887D01*
X132815000Y-52994887D01*
X132815000Y-51535000D01*
X140018310Y-51535000D01*
X139835707Y-51754620D01*
X139835707Y-51754620D01*
G37*
X139835707Y-51754620D02*
X139695000Y-52208000D01*
X139695000Y-52533000D01*
X140778000Y-52533000D01*
X140778000Y-52513000D01*
X141032000Y-52513000D01*
X141032000Y-52533000D01*
X142115000Y-52533000D01*
X142115000Y-52208000D01*
X141974293Y-51754620D01*
X141791690Y-51535000D01*
X147768310Y-51535000D01*
X147585707Y-51754620D01*
X147445000Y-52208000D01*
X147445000Y-52533000D01*
X148528000Y-52533000D01*
X148528000Y-52513000D01*
X148782000Y-52513000D01*
X148782000Y-52533000D01*
X149865000Y-52533000D01*
X149865000Y-52208000D01*
X149724293Y-51754620D01*
X149541690Y-51535000D01*
X169445001Y-51535000D01*
X169445000Y-109093000D01*
X161379137Y-109093000D01*
X161347354Y-108933217D01*
X161184905Y-108690095D01*
X160941783Y-108527646D01*
X160727388Y-108485000D01*
X160655000Y-108470601D01*
X160582612Y-108485000D01*
X141042388Y-108485000D01*
X140970000Y-108470601D01*
X140897612Y-108485000D01*
X140683217Y-108527646D01*
X140440095Y-108690095D01*
X140277646Y-108933217D01*
X140245863Y-109093000D01*
X132815000Y-109093000D01*
X132815000Y-106334887D01*
X132885000Y-106334887D01*
X132885000Y-107025113D01*
X133149138Y-107662799D01*
X133637201Y-108150862D01*
X134274887Y-108415000D01*
X134965113Y-108415000D01*
X135602799Y-108150862D01*
X136090862Y-107662799D01*
X136181595Y-107443750D01*
X140855000Y-107443750D01*
X140855000Y-107536310D01*
X140951673Y-107769699D01*
X140976974Y-107795000D01*
X140951673Y-107820301D01*
X140855000Y-108053690D01*
X140855000Y-108146250D01*
X141013750Y-108305000D01*
X142113000Y-108305000D01*
X142113000Y-107285000D01*
X142367000Y-107285000D01*
X142367000Y-108305000D01*
X143466250Y-108305000D01*
X143625000Y-108146250D01*
X143625000Y-108053690D01*
X143528327Y-107820301D01*
X143503026Y-107795000D01*
X143528327Y-107769699D01*
X143625000Y-107536310D01*
X143625000Y-107443750D01*
X158355000Y-107443750D01*
X158355000Y-107536310D01*
X158451673Y-107769699D01*
X158476974Y-107795000D01*
X158451673Y-107820301D01*
X158355000Y-108053690D01*
X158355000Y-108146250D01*
X158513750Y-108305000D01*
X159613000Y-108305000D01*
X159613000Y-107285000D01*
X159867000Y-107285000D01*
X159867000Y-108305000D01*
X160966250Y-108305000D01*
X161125000Y-108146250D01*
X161125000Y-108053690D01*
X161028327Y-107820301D01*
X161003026Y-107795000D01*
X161028327Y-107769699D01*
X161125000Y-107536310D01*
X161125000Y-107443750D01*
X160966250Y-107285000D01*
X159867000Y-107285000D01*
X159613000Y-107285000D01*
X158513750Y-107285000D01*
X158355000Y-107443750D01*
X143625000Y-107443750D01*
X143466250Y-107285000D01*
X142367000Y-107285000D01*
X142113000Y-107285000D01*
X141013750Y-107285000D01*
X140855000Y-107443750D01*
X136181595Y-107443750D01*
X136355000Y-107025113D01*
X136355000Y-106783690D01*
X140855000Y-106783690D01*
X140855000Y-106876250D01*
X141013750Y-107035000D01*
X142113000Y-107035000D01*
X142113000Y-106433750D01*
X142367000Y-106433750D01*
X142367000Y-107035000D01*
X143466250Y-107035000D01*
X143625000Y-106876250D01*
X143625000Y-106783690D01*
X158355000Y-106783690D01*
X158355000Y-106876250D01*
X158513750Y-107035000D01*
X159613000Y-107035000D01*
X159613000Y-106433750D01*
X159867000Y-106433750D01*
X159867000Y-107035000D01*
X160966250Y-107035000D01*
X161125000Y-106876250D01*
X161125000Y-106783690D01*
X161028327Y-106550301D01*
X160849698Y-106371673D01*
X160760889Y-106334887D01*
X165905000Y-106334887D01*
X165905000Y-107025113D01*
X166169138Y-107662799D01*
X166657201Y-108150862D01*
X167294887Y-108415000D01*
X167985113Y-108415000D01*
X168622799Y-108150862D01*
X169110862Y-107662799D01*
X169375000Y-107025113D01*
X169375000Y-106334887D01*
X169110862Y-105697201D01*
X168622799Y-105209138D01*
X167985113Y-104945000D01*
X167294887Y-104945000D01*
X166657201Y-105209138D01*
X166169138Y-105697201D01*
X165905000Y-106334887D01*
X160760889Y-106334887D01*
X160616309Y-106275000D01*
X160025750Y-106275000D01*
X159867000Y-106433750D01*
X159613000Y-106433750D01*
X159454250Y-106275000D01*
X158863691Y-106275000D01*
X158630302Y-106371673D01*
X158451673Y-106550301D01*
X158355000Y-106783690D01*
X143625000Y-106783690D01*
X143528327Y-106550301D01*
X143349698Y-106371673D01*
X143116309Y-106275000D01*
X142525750Y-106275000D01*
X142367000Y-106433750D01*
X142113000Y-106433750D01*
X141954250Y-106275000D01*
X141363691Y-106275000D01*
X141130302Y-106371673D01*
X140951673Y-106550301D01*
X140855000Y-106783690D01*
X136355000Y-106783690D01*
X136355000Y-106334887D01*
X136090862Y-105697201D01*
X135602799Y-105209138D01*
X134965113Y-104945000D01*
X134274887Y-104945000D01*
X133637201Y-105209138D01*
X133149138Y-105697201D01*
X132885000Y-106334887D01*
X132815000Y-106334887D01*
X132815000Y-52994887D01*
X132885000Y-52994887D01*
X132885000Y-53685113D01*
X133149138Y-54322799D01*
X133637201Y-54810862D01*
X134274887Y-55075000D01*
X134965113Y-55075000D01*
X135274999Y-54946641D01*
X135275000Y-87677610D01*
X135260601Y-87749999D01*
X135317645Y-88036781D01*
X135414936Y-88182387D01*
X135480095Y-88279904D01*
X135541462Y-88320908D01*
X135724657Y-88504103D01*
X135645908Y-88900000D01*
X135761161Y-89479418D01*
X136089375Y-89970625D01*
X136387761Y-90170000D01*
X136089375Y-90369375D01*
X135761161Y-90860582D01*
X135645908Y-91440000D01*
X135761161Y-92019418D01*
X136089375Y-92510625D01*
X136387761Y-92710000D01*
X136089375Y-92909375D01*
X135761161Y-93400582D01*
X135645908Y-93980000D01*
X135761161Y-94559418D01*
X136089375Y-95050625D01*
X136387761Y-95250000D01*
X136089375Y-95449375D01*
X135761161Y-95940582D01*
X135645908Y-96520000D01*
X135761161Y-97099418D01*
X136089375Y-97590625D01*
X136387761Y-97790000D01*
X136089375Y-97989375D01*
X135761161Y-98480582D01*
X135645908Y-99060000D01*
X135761161Y-99639418D01*
X136089375Y-100130625D01*
X136387761Y-100330000D01*
X136089375Y-100529375D01*
X135761161Y-101020582D01*
X135645908Y-101600000D01*
X135761161Y-102179418D01*
X136089375Y-102670625D01*
X136387761Y-102870000D01*
X136089375Y-103069375D01*
X135761161Y-103560582D01*
X135645908Y-104140000D01*
X135761161Y-104719418D01*
X136089375Y-105210625D01*
X136580582Y-105538839D01*
X137013744Y-105625000D01*
X137306256Y-105625000D01*
X137739418Y-105538839D01*
X138014553Y-105355000D01*
X141072885Y-105355000D01*
X141242235Y-105468157D01*
X141490000Y-105517440D01*
X142990000Y-105517440D01*
X143237765Y-105468157D01*
X143447809Y-105327809D01*
X143588157Y-105117765D01*
X143630726Y-104903750D01*
X158355000Y-104903750D01*
X158355000Y-104996310D01*
X158451673Y-105229699D01*
X158630302Y-105408327D01*
X158863691Y-105505000D01*
X159454250Y-105505000D01*
X159613000Y-105346250D01*
X159613000Y-104745000D01*
X159867000Y-104745000D01*
X159867000Y-105346250D01*
X160025750Y-105505000D01*
X160616309Y-105505000D01*
X160849698Y-105408327D01*
X161028327Y-105229699D01*
X161125000Y-104996310D01*
X161125000Y-104903750D01*
X160966250Y-104745000D01*
X159867000Y-104745000D01*
X159613000Y-104745000D01*
X158513750Y-104745000D01*
X158355000Y-104903750D01*
X143630726Y-104903750D01*
X143637440Y-104870000D01*
X143637440Y-104370000D01*
X143588157Y-104122235D01*
X143496459Y-103985000D01*
X143588157Y-103847765D01*
X143637440Y-103600000D01*
X143637440Y-103100000D01*
X143588157Y-102852235D01*
X143496459Y-102715000D01*
X143588157Y-102577765D01*
X143637440Y-102330000D01*
X143637440Y-101830000D01*
X143588157Y-101582235D01*
X143496459Y-101445000D01*
X143588157Y-101307765D01*
X143637440Y-101060000D01*
X143637440Y-100952006D01*
X149008537Y-95580910D01*
X149069904Y-95539906D01*
X149232353Y-95296784D01*
X149274999Y-95082389D01*
X149274999Y-95082386D01*
X149289397Y-95010002D01*
X149274999Y-94937618D01*
X149274999Y-87757440D01*
X149340000Y-87757440D01*
X149587765Y-87708157D01*
X149725000Y-87616459D01*
X149862235Y-87708157D01*
X150110000Y-87757440D01*
X150610000Y-87757440D01*
X150857765Y-87708157D01*
X150995000Y-87616459D01*
X151132235Y-87708157D01*
X151380000Y-87757440D01*
X151880000Y-87757440D01*
X152127765Y-87708157D01*
X152265000Y-87616459D01*
X152402235Y-87708157D01*
X152650000Y-87757440D01*
X153150000Y-87757440D01*
X153397765Y-87708157D01*
X153535000Y-87616459D01*
X153672235Y-87708157D01*
X153920000Y-87757440D01*
X154420000Y-87757440D01*
X154667765Y-87708157D01*
X154805000Y-87616459D01*
X154942235Y-87708157D01*
X155190000Y-87757440D01*
X155690000Y-87757440D01*
X155937765Y-87708157D01*
X156075000Y-87616459D01*
X156212235Y-87708157D01*
X156460000Y-87757440D01*
X156960000Y-87757440D01*
X157207765Y-87708157D01*
X157345000Y-87616459D01*
X157482235Y-87708157D01*
X157730000Y-87757440D01*
X158230000Y-87757440D01*
X158355503Y-87732476D01*
X158355000Y-87733690D01*
X158355000Y-87826250D01*
X158513750Y-87985000D01*
X159613000Y-87985000D01*
X159613000Y-87383750D01*
X159454250Y-87225000D01*
X158863691Y-87225000D01*
X158853746Y-87229119D01*
X158877440Y-87110000D01*
X158877440Y-86917288D01*
X159023000Y-86565874D01*
X159023000Y-86154126D01*
X158886672Y-85825000D01*
X163525554Y-85825000D01*
X163664657Y-85964103D01*
X163634955Y-86113426D01*
X163357294Y-85927898D01*
X163016250Y-85860060D01*
X162103750Y-85860060D01*
X161762706Y-85927898D01*
X161473584Y-86121084D01*
X161280398Y-86410206D01*
X161212560Y-86751250D01*
X161212560Y-87238750D01*
X161223219Y-87292335D01*
X161091453Y-87424101D01*
X161030086Y-87465105D01*
X161015284Y-87487258D01*
X160849698Y-87321673D01*
X160616309Y-87225000D01*
X160025750Y-87225000D01*
X159867000Y-87383750D01*
X159867000Y-87985000D01*
X159887000Y-87985000D01*
X159887000Y-88235000D01*
X159867000Y-88235000D01*
X159867000Y-88257000D01*
X159613000Y-88257000D01*
X159613000Y-88235000D01*
X158513750Y-88235000D01*
X158355000Y-88393750D01*
X158355000Y-88486310D01*
X158451673Y-88719699D01*
X158480911Y-88748937D01*
X158391843Y-88882235D01*
X158342560Y-89130000D01*
X158342560Y-89630000D01*
X158391843Y-89877765D01*
X158483541Y-90015000D01*
X158391843Y-90152235D01*
X158342560Y-90400000D01*
X158342560Y-90900000D01*
X158391843Y-91147765D01*
X158483541Y-91285000D01*
X158391843Y-91422235D01*
X158342560Y-91670000D01*
X158342560Y-92170000D01*
X158391843Y-92417765D01*
X158483541Y-92555000D01*
X158391843Y-92692235D01*
X158342560Y-92940000D01*
X158342560Y-93440000D01*
X158391843Y-93687765D01*
X158483541Y-93825000D01*
X158391843Y-93962235D01*
X158342560Y-94210000D01*
X158342560Y-94710000D01*
X158391843Y-94957765D01*
X158483541Y-95095000D01*
X158391843Y-95232235D01*
X158342560Y-95480000D01*
X158342560Y-95980000D01*
X158391843Y-96227765D01*
X158483541Y-96365000D01*
X158391843Y-96502235D01*
X158342560Y-96750000D01*
X158342560Y-97250000D01*
X158391843Y-97497765D01*
X158483541Y-97635000D01*
X158391843Y-97772235D01*
X158342560Y-98020000D01*
X158342560Y-98520000D01*
X158391843Y-98767765D01*
X158483541Y-98905000D01*
X158391843Y-99042235D01*
X158342560Y-99290000D01*
X158342560Y-99790000D01*
X158391843Y-100037765D01*
X158483541Y-100175000D01*
X158391843Y-100312235D01*
X158342560Y-100560000D01*
X158342560Y-101060000D01*
X158391843Y-101307765D01*
X158483541Y-101445000D01*
X158391843Y-101582235D01*
X158342560Y-101830000D01*
X158342560Y-102330000D01*
X158391843Y-102577765D01*
X158483541Y-102715000D01*
X158391843Y-102852235D01*
X158342560Y-103100000D01*
X158342560Y-103600000D01*
X158391843Y-103847765D01*
X158480911Y-103981063D01*
X158451673Y-104010301D01*
X158355000Y-104243690D01*
X158355000Y-104336250D01*
X158513750Y-104495000D01*
X159613000Y-104495000D01*
X159613000Y-104473000D01*
X159867000Y-104473000D01*
X159867000Y-104495000D01*
X160966250Y-104495000D01*
X161125000Y-104336250D01*
X161125000Y-104243690D01*
X161028327Y-104010301D01*
X160999089Y-103981063D01*
X161088157Y-103847765D01*
X161137440Y-103600000D01*
X161137440Y-103100000D01*
X161088157Y-102852235D01*
X160996459Y-102715000D01*
X161088157Y-102577765D01*
X161137440Y-102330000D01*
X161137440Y-101830000D01*
X161088157Y-101582235D01*
X161063277Y-101545000D01*
X161465554Y-101545000D01*
X163664656Y-103744103D01*
X163585908Y-104140000D01*
X163701161Y-104719418D01*
X164029375Y-105210625D01*
X164520582Y-105538839D01*
X164953744Y-105625000D01*
X165246256Y-105625000D01*
X165679418Y-105538839D01*
X166170625Y-105210625D01*
X166498839Y-104719418D01*
X166614092Y-104140000D01*
X166498839Y-103560582D01*
X166170625Y-103069375D01*
X165872239Y-102870000D01*
X166170625Y-102670625D01*
X166498839Y-102179418D01*
X166614092Y-101600000D01*
X166498839Y-101020582D01*
X166170625Y-100529375D01*
X165872239Y-100330000D01*
X166170625Y-100130625D01*
X166498839Y-99639418D01*
X166614092Y-99060000D01*
X166498839Y-98480582D01*
X166170625Y-97989375D01*
X165872239Y-97790000D01*
X166170625Y-97590625D01*
X166498839Y-97099418D01*
X166614092Y-96520000D01*
X166498839Y-95940582D01*
X166170625Y-95449375D01*
X165872239Y-95250000D01*
X166170625Y-95050625D01*
X166498839Y-94559418D01*
X166614092Y-93980000D01*
X166498839Y-93400582D01*
X166170625Y-92909375D01*
X165872239Y-92710000D01*
X166170625Y-92510625D01*
X166498839Y-92019418D01*
X166614092Y-91440000D01*
X166498839Y-90860582D01*
X166170625Y-90369375D01*
X165872239Y-90170000D01*
X166170625Y-89970625D01*
X166498839Y-89479418D01*
X166614092Y-88900000D01*
X166498839Y-88320582D01*
X166170625Y-87829375D01*
X165872239Y-87630000D01*
X166170625Y-87430625D01*
X166498839Y-86939418D01*
X166614092Y-86360000D01*
X166498839Y-85780582D01*
X166170625Y-85289375D01*
X165872239Y-85090000D01*
X166170625Y-84890625D01*
X166498839Y-84399418D01*
X166614092Y-83820000D01*
X166498839Y-83240582D01*
X166170625Y-82749375D01*
X165872239Y-82550000D01*
X166170625Y-82350625D01*
X166498839Y-81859418D01*
X166614092Y-81280000D01*
X166498839Y-80700582D01*
X166170625Y-80209375D01*
X165872239Y-80010000D01*
X166170625Y-79810625D01*
X166498839Y-79319418D01*
X166614092Y-78740000D01*
X166498839Y-78160582D01*
X166170625Y-77669375D01*
X165872239Y-77470000D01*
X166170625Y-77270625D01*
X166498839Y-76779418D01*
X166614092Y-76200000D01*
X166498839Y-75620582D01*
X166170625Y-75129375D01*
X165872239Y-74930000D01*
X166170625Y-74730625D01*
X166498839Y-74239418D01*
X166614092Y-73660000D01*
X166498839Y-73080582D01*
X166170625Y-72589375D01*
X165872239Y-72390000D01*
X166170625Y-72190625D01*
X166498839Y-71699418D01*
X166614092Y-71120000D01*
X166498839Y-70540582D01*
X166170625Y-70049375D01*
X165872239Y-69850000D01*
X166170625Y-69650625D01*
X166498839Y-69159418D01*
X166614092Y-68580000D01*
X166498839Y-68000582D01*
X166170625Y-67509375D01*
X165872239Y-67310000D01*
X166170625Y-67110625D01*
X166498839Y-66619418D01*
X166614092Y-66040000D01*
X166498839Y-65460582D01*
X166170625Y-64969375D01*
X165872239Y-64770000D01*
X166170625Y-64570625D01*
X166498839Y-64079418D01*
X166614092Y-63500000D01*
X166498839Y-62920582D01*
X166170625Y-62429375D01*
X165872239Y-62230000D01*
X166170625Y-62030625D01*
X166498839Y-61539418D01*
X166614092Y-60960000D01*
X166498839Y-60380582D01*
X166170625Y-59889375D01*
X165851522Y-59676157D01*
X165981358Y-59615183D01*
X166371645Y-59186924D01*
X166541476Y-58776890D01*
X166420155Y-58547000D01*
X165227000Y-58547000D01*
X165227000Y-58567000D01*
X164973000Y-58567000D01*
X164973000Y-58547000D01*
X163779845Y-58547000D01*
X163658524Y-58776890D01*
X163828355Y-59186924D01*
X164218642Y-59615183D01*
X164348478Y-59676157D01*
X164029375Y-59889375D01*
X164017184Y-59907619D01*
X164008157Y-59862235D01*
X163867809Y-59652191D01*
X163657765Y-59511843D01*
X163410000Y-59462560D01*
X161710000Y-59462560D01*
X161462235Y-59511843D01*
X161252191Y-59652191D01*
X161111843Y-59862235D01*
X161062560Y-60110000D01*
X161062560Y-61810000D01*
X161111843Y-62057765D01*
X161252191Y-62267809D01*
X161462235Y-62408157D01*
X161507619Y-62417184D01*
X161489375Y-62429375D01*
X161161161Y-62920582D01*
X161045908Y-63500000D01*
X161161161Y-64079418D01*
X161489375Y-64570625D01*
X161980582Y-64898839D01*
X162413744Y-64985000D01*
X162706256Y-64985000D01*
X163139418Y-64898839D01*
X163630625Y-64570625D01*
X163830000Y-64272239D01*
X164029375Y-64570625D01*
X164327761Y-64770000D01*
X164029375Y-64969375D01*
X163701161Y-65460582D01*
X163585908Y-66040000D01*
X163701161Y-66619418D01*
X164029375Y-67110625D01*
X164327761Y-67310000D01*
X164029375Y-67509375D01*
X163701161Y-68000582D01*
X163585908Y-68580000D01*
X163701161Y-69159418D01*
X164029375Y-69650625D01*
X164327761Y-69850000D01*
X164029375Y-70049375D01*
X163812399Y-70374103D01*
X163757616Y-70385000D01*
X163757612Y-70385000D01*
X163543217Y-70427646D01*
X163300095Y-70590095D01*
X163259091Y-70651462D01*
X149274999Y-84635555D01*
X149274999Y-84174447D01*
X155408538Y-78040909D01*
X155469905Y-77999905D01*
X155632354Y-77756783D01*
X155675000Y-77542388D01*
X155675000Y-77542385D01*
X155689398Y-77470001D01*
X155675000Y-77397617D01*
X155675000Y-68840000D01*
X158237560Y-68840000D01*
X158237560Y-69940000D01*
X158286843Y-70187765D01*
X158427191Y-70397809D01*
X158637235Y-70538157D01*
X158885000Y-70587440D01*
X160685000Y-70587440D01*
X160932765Y-70538157D01*
X161142809Y-70397809D01*
X161283157Y-70187765D01*
X161332440Y-69940000D01*
X161332440Y-68840000D01*
X161283157Y-68592235D01*
X161142809Y-68382191D01*
X160932765Y-68241843D01*
X160881321Y-68231610D01*
X160860280Y-68210569D01*
X160479874Y-68053000D01*
X160068126Y-68053000D01*
X159731198Y-68192560D01*
X158885000Y-68192560D01*
X158637235Y-68241843D01*
X158427191Y-68382191D01*
X158286843Y-68592235D01*
X158237560Y-68840000D01*
X155675000Y-68840000D01*
X155675000Y-65975750D01*
X158250000Y-65975750D01*
X158250000Y-66366310D01*
X158346673Y-66599699D01*
X158525302Y-66778327D01*
X158758691Y-66875000D01*
X159499250Y-66875000D01*
X159658000Y-66716250D01*
X159658000Y-65817000D01*
X159912000Y-65817000D01*
X159912000Y-66716250D01*
X160070750Y-66875000D01*
X160811309Y-66875000D01*
X161044698Y-66778327D01*
X161223327Y-66599699D01*
X161320000Y-66366310D01*
X161320000Y-65975750D01*
X161161250Y-65817000D01*
X159912000Y-65817000D01*
X159658000Y-65817000D01*
X158408750Y-65817000D01*
X158250000Y-65975750D01*
X155675000Y-65975750D01*
X155675000Y-65013690D01*
X158250000Y-65013690D01*
X158250000Y-65404250D01*
X158408750Y-65563000D01*
X159658000Y-65563000D01*
X159658000Y-64663750D01*
X159912000Y-64663750D01*
X159912000Y-65563000D01*
X161161250Y-65563000D01*
X161320000Y-65404250D01*
X161320000Y-65013690D01*
X161223327Y-64780301D01*
X161044698Y-64601673D01*
X160811309Y-64505000D01*
X160070750Y-64505000D01*
X159912000Y-64663750D01*
X159658000Y-64663750D01*
X159499250Y-64505000D01*
X158758691Y-64505000D01*
X158525302Y-64601673D01*
X158346673Y-64780301D01*
X158250000Y-65013690D01*
X155675000Y-65013690D01*
X155675000Y-64842383D01*
X155689398Y-64769999D01*
X155675000Y-64697615D01*
X155675000Y-64697612D01*
X155632354Y-64483217D01*
X155469905Y-64240095D01*
X155408537Y-64199090D01*
X153604999Y-62395553D01*
X153604999Y-62107440D01*
X154170000Y-62107440D01*
X154417765Y-62058157D01*
X154505817Y-61999322D01*
X154638126Y-62054119D01*
X154813000Y-61927954D01*
X154813000Y-61482322D01*
X154817440Y-61460000D01*
X154817440Y-61087000D01*
X155067000Y-61087000D01*
X155067000Y-61927954D01*
X155241874Y-62054119D01*
X155500209Y-61947127D01*
X155575000Y-61882511D01*
X155649791Y-61947127D01*
X155908126Y-62054119D01*
X156083000Y-61927954D01*
X156083000Y-61087000D01*
X155067000Y-61087000D01*
X154817440Y-61087000D01*
X154817440Y-60822856D01*
X154828217Y-60825000D01*
X155051783Y-60825000D01*
X155067000Y-60821973D01*
X155067000Y-60833000D01*
X156083000Y-60833000D01*
X156083000Y-60821973D01*
X156098217Y-60825000D01*
X156321783Y-60825000D01*
X156337000Y-60821973D01*
X156337000Y-60833000D01*
X156348027Y-60833000D01*
X156322765Y-60960000D01*
X156348027Y-61087000D01*
X156337000Y-61087000D01*
X156337000Y-61927954D01*
X156511874Y-62054119D01*
X156770209Y-61947127D01*
X156833090Y-61892801D01*
X157037145Y-62029146D01*
X157368217Y-62095000D01*
X157591783Y-62095000D01*
X157922855Y-62029146D01*
X158126910Y-61892801D01*
X158189791Y-61947127D01*
X158448126Y-62054119D01*
X158623000Y-61927954D01*
X158623000Y-61087000D01*
X158877000Y-61087000D01*
X158877000Y-61927954D01*
X159051874Y-62054119D01*
X159310209Y-61947127D01*
X159645323Y-61657604D01*
X159844132Y-61261877D01*
X159719135Y-61087000D01*
X158877000Y-61087000D01*
X158623000Y-61087000D01*
X158611973Y-61087000D01*
X158637235Y-60960000D01*
X158611973Y-60833000D01*
X158623000Y-60833000D01*
X158623000Y-60821973D01*
X158638217Y-60825000D01*
X158861783Y-60825000D01*
X158877000Y-60821973D01*
X158877000Y-60833000D01*
X159719135Y-60833000D01*
X159844132Y-60658123D01*
X159682776Y-60336947D01*
X159819146Y-60132855D01*
X159907235Y-59690000D01*
X159819146Y-59247145D01*
X159568289Y-58871711D01*
X159192855Y-58620854D01*
X158861783Y-58555000D01*
X158638217Y-58555000D01*
X158321435Y-58618012D01*
X159098539Y-57840908D01*
X159159906Y-57799904D01*
X159322355Y-57556782D01*
X159365001Y-57342387D01*
X159365001Y-57342384D01*
X159379399Y-57270000D01*
X159365085Y-57198038D01*
X159663110Y-57321476D01*
X159893000Y-57200155D01*
X159893000Y-56007000D01*
X159873000Y-56007000D01*
X159873000Y-55753000D01*
X159893000Y-55753000D01*
X159893000Y-54559845D01*
X160147000Y-54559845D01*
X160147000Y-55753000D01*
X160167000Y-55753000D01*
X160167000Y-56007000D01*
X160147000Y-56007000D01*
X160147000Y-57200155D01*
X160376890Y-57321476D01*
X160786924Y-57151645D01*
X161091261Y-56874292D01*
X161111843Y-56977765D01*
X161252191Y-57187809D01*
X161462235Y-57328157D01*
X161710000Y-57377440D01*
X163410000Y-57377440D01*
X163657765Y-57328157D01*
X163833025Y-57211051D01*
X163890302Y-57268327D01*
X164099878Y-57355136D01*
X163828355Y-57653076D01*
X163658524Y-58063110D01*
X163779845Y-58293000D01*
X164973000Y-58293000D01*
X164973000Y-56007000D01*
X165227000Y-56007000D01*
X165227000Y-58293000D01*
X166420155Y-58293000D01*
X166541476Y-58063110D01*
X166371645Y-57653076D01*
X166100122Y-57355136D01*
X166309698Y-57268327D01*
X166488327Y-57089699D01*
X166585000Y-56856310D01*
X166585000Y-56165750D01*
X166426250Y-56007000D01*
X165227000Y-56007000D01*
X164973000Y-56007000D01*
X164953000Y-56007000D01*
X164953000Y-55753000D01*
X164973000Y-55753000D01*
X164973000Y-54553750D01*
X165227000Y-54553750D01*
X165227000Y-55753000D01*
X166426250Y-55753000D01*
X166585000Y-55594250D01*
X166585000Y-54903690D01*
X166488327Y-54670301D01*
X166309698Y-54491673D01*
X166076309Y-54395000D01*
X165385750Y-54395000D01*
X165227000Y-54553750D01*
X164973000Y-54553750D01*
X164814250Y-54395000D01*
X164123691Y-54395000D01*
X163890302Y-54491673D01*
X163833025Y-54548949D01*
X163657765Y-54431843D01*
X163410000Y-54382560D01*
X161710000Y-54382560D01*
X161462235Y-54431843D01*
X161252191Y-54572191D01*
X161111843Y-54782235D01*
X161091261Y-54885708D01*
X160786924Y-54608355D01*
X160376890Y-54438524D01*
X160147000Y-54559845D01*
X159893000Y-54559845D01*
X159663110Y-54438524D01*
X159253076Y-54608355D01*
X159094406Y-54752957D01*
X158482913Y-54141465D01*
X158441907Y-54080095D01*
X158198785Y-53917646D01*
X157984390Y-53875000D01*
X157984386Y-53875000D01*
X157912002Y-53860602D01*
X157839618Y-53875000D01*
X149466860Y-53875000D01*
X149724293Y-53565380D01*
X149865000Y-53112000D01*
X149865000Y-52994887D01*
X165905000Y-52994887D01*
X165905000Y-53685113D01*
X166169138Y-54322799D01*
X166657201Y-54810862D01*
X167294887Y-55075000D01*
X167985113Y-55075000D01*
X168622799Y-54810862D01*
X169110862Y-54322799D01*
X169375000Y-53685113D01*
X169375000Y-52994887D01*
X169110862Y-52357201D01*
X168622799Y-51869138D01*
X167985113Y-51605000D01*
X167294887Y-51605000D01*
X166657201Y-51869138D01*
X166169138Y-52357201D01*
X165905000Y-52994887D01*
X149865000Y-52994887D01*
X149865000Y-52787000D01*
X148782000Y-52787000D01*
X148782000Y-52807000D01*
X148528000Y-52807000D01*
X148528000Y-52787000D01*
X147445000Y-52787000D01*
X147445000Y-53112000D01*
X147585707Y-53565380D01*
X147843140Y-53875000D01*
X141716860Y-53875000D01*
X141974293Y-53565380D01*
X142115000Y-53112000D01*
X142115000Y-52787000D01*
X141032000Y-52787000D01*
X141032000Y-52807000D01*
X140778000Y-52807000D01*
X140778000Y-52787000D01*
X139695000Y-52787000D01*
X139695000Y-53112000D01*
X139835707Y-53565380D01*
X140093140Y-53875000D01*
X136276346Y-53875000D01*
X136355000Y-53685113D01*
X136355000Y-52994887D01*
X136090862Y-52357201D01*
X135602799Y-51869138D01*
X134965113Y-51605000D01*
X134274887Y-51605000D01*
X133637201Y-51869138D01*
X133149138Y-52357201D01*
X132885000Y-52994887D01*
X132815000Y-52994887D01*
X132815000Y-51535000D01*
X140018310Y-51535000D01*
X139835707Y-51754620D01*
G36*
X141770060Y-61773750D02*
X141770060Y-62686250D01*
X141837898Y-63027294D01*
X142031084Y-63316416D01*
X142240179Y-63456130D01*
X142057802Y-63531673D01*
X141879173Y-63710301D01*
X141782500Y-63943690D01*
X141782500Y-64484250D01*
X141941250Y-64643000D01*
X142778000Y-64643000D01*
X142778000Y-64623000D01*
X143032000Y-64623000D01*
X143032000Y-64643000D01*
X143052000Y-64643000D01*
X143052000Y-64897000D01*
X143032000Y-64897000D01*
X143032000Y-65946250D01*
X143125750Y-66040000D01*
X143032000Y-66133750D01*
X143032000Y-67183000D01*
X143052000Y-67183000D01*
X143052000Y-67437000D01*
X143032000Y-67437000D01*
X143032000Y-68063050D01*
X143000156Y-68110708D01*
X142943112Y-68397490D01*
X142957511Y-68469879D01*
X142957510Y-69997000D01*
X142778000Y-69997000D01*
X142778000Y-69977000D01*
X141941250Y-69977000D01*
X141782500Y-70135750D01*
X141782500Y-70676310D01*
X141879173Y-70909699D01*
X142057802Y-71088327D01*
X142240179Y-71163870D01*
X142031084Y-71303584D01*
X141837898Y-71592706D01*
X141770060Y-71933750D01*
X141770060Y-72150614D01*
X138595343Y-68975897D01*
X138674092Y-68580000D01*
X138558839Y-68000582D01*
X138288339Y-67595750D01*
X141782500Y-67595750D01*
X141782500Y-68136310D01*
X141879173Y-68369699D01*
X142057802Y-68548327D01*
X142134267Y-68580000D01*
X142057802Y-68611673D01*
X141879173Y-68790301D01*
X141782500Y-69023690D01*
X141782500Y-69564250D01*
X141941250Y-69723000D01*
X142778000Y-69723000D01*
X142778000Y-68673750D01*
X142684250Y-68580000D01*
X142778000Y-68486250D01*
X142778000Y-67437000D01*
X141941250Y-67437000D01*
X141782500Y-67595750D01*
X138288339Y-67595750D01*
X138230625Y-67509375D01*
X137932239Y-67310000D01*
X138230625Y-67110625D01*
X138558839Y-66619418D01*
X138674092Y-66040000D01*
X138558839Y-65460582D01*
X138288339Y-65055750D01*
X141782500Y-65055750D01*
X141782500Y-65596310D01*
X141879173Y-65829699D01*
X142057802Y-66008327D01*
X142134267Y-66040000D01*
X142057802Y-66071673D01*
X141879173Y-66250301D01*
X141782500Y-66483690D01*
X141782500Y-67024250D01*
X141941250Y-67183000D01*
X142778000Y-67183000D01*
X142778000Y-66133750D01*
X142684250Y-66040000D01*
X142778000Y-65946250D01*
X142778000Y-64897000D01*
X141941250Y-64897000D01*
X141782500Y-65055750D01*
X138288339Y-65055750D01*
X138230625Y-64969375D01*
X137932239Y-64770000D01*
X138230625Y-64570625D01*
X138430000Y-64272239D01*
X138629375Y-64570625D01*
X139120582Y-64898839D01*
X139553744Y-64985000D01*
X139846256Y-64985000D01*
X140279418Y-64898839D01*
X140770625Y-64570625D01*
X141098839Y-64079418D01*
X141214092Y-63500000D01*
X141098839Y-62920582D01*
X140770625Y-62429375D01*
X140752381Y-62417184D01*
X140797765Y-62408157D01*
X141007809Y-62267809D01*
X141148157Y-62057765D01*
X141197440Y-61810000D01*
X141197440Y-61695000D01*
X141785724Y-61695000D01*
X141770060Y-61773750D01*
X141770060Y-61773750D01*
G37*
X141770060Y-61773750D02*
X141770060Y-62686250D01*
X141837898Y-63027294D01*
X142031084Y-63316416D01*
X142240179Y-63456130D01*
X142057802Y-63531673D01*
X141879173Y-63710301D01*
X141782500Y-63943690D01*
X141782500Y-64484250D01*
X141941250Y-64643000D01*
X142778000Y-64643000D01*
X142778000Y-64623000D01*
X143032000Y-64623000D01*
X143032000Y-64643000D01*
X143052000Y-64643000D01*
X143052000Y-64897000D01*
X143032000Y-64897000D01*
X143032000Y-65946250D01*
X143125750Y-66040000D01*
X143032000Y-66133750D01*
X143032000Y-67183000D01*
X143052000Y-67183000D01*
X143052000Y-67437000D01*
X143032000Y-67437000D01*
X143032000Y-68063050D01*
X143000156Y-68110708D01*
X142943112Y-68397490D01*
X142957511Y-68469879D01*
X142957510Y-69997000D01*
X142778000Y-69997000D01*
X142778000Y-69977000D01*
X141941250Y-69977000D01*
X141782500Y-70135750D01*
X141782500Y-70676310D01*
X141879173Y-70909699D01*
X142057802Y-71088327D01*
X142240179Y-71163870D01*
X142031084Y-71303584D01*
X141837898Y-71592706D01*
X141770060Y-71933750D01*
X141770060Y-72150614D01*
X138595343Y-68975897D01*
X138674092Y-68580000D01*
X138558839Y-68000582D01*
X138288339Y-67595750D01*
X141782500Y-67595750D01*
X141782500Y-68136310D01*
X141879173Y-68369699D01*
X142057802Y-68548327D01*
X142134267Y-68580000D01*
X142057802Y-68611673D01*
X141879173Y-68790301D01*
X141782500Y-69023690D01*
X141782500Y-69564250D01*
X141941250Y-69723000D01*
X142778000Y-69723000D01*
X142778000Y-68673750D01*
X142684250Y-68580000D01*
X142778000Y-68486250D01*
X142778000Y-67437000D01*
X141941250Y-67437000D01*
X141782500Y-67595750D01*
X138288339Y-67595750D01*
X138230625Y-67509375D01*
X137932239Y-67310000D01*
X138230625Y-67110625D01*
X138558839Y-66619418D01*
X138674092Y-66040000D01*
X138558839Y-65460582D01*
X138288339Y-65055750D01*
X141782500Y-65055750D01*
X141782500Y-65596310D01*
X141879173Y-65829699D01*
X142057802Y-66008327D01*
X142134267Y-66040000D01*
X142057802Y-66071673D01*
X141879173Y-66250301D01*
X141782500Y-66483690D01*
X141782500Y-67024250D01*
X141941250Y-67183000D01*
X142778000Y-67183000D01*
X142778000Y-66133750D01*
X142684250Y-66040000D01*
X142778000Y-65946250D01*
X142778000Y-64897000D01*
X141941250Y-64897000D01*
X141782500Y-65055750D01*
X138288339Y-65055750D01*
X138230625Y-64969375D01*
X137932239Y-64770000D01*
X138230625Y-64570625D01*
X138430000Y-64272239D01*
X138629375Y-64570625D01*
X139120582Y-64898839D01*
X139553744Y-64985000D01*
X139846256Y-64985000D01*
X140279418Y-64898839D01*
X140770625Y-64570625D01*
X141098839Y-64079418D01*
X141214092Y-63500000D01*
X141098839Y-62920582D01*
X140770625Y-62429375D01*
X140752381Y-62417184D01*
X140797765Y-62408157D01*
X141007809Y-62267809D01*
X141148157Y-62057765D01*
X141197440Y-61810000D01*
X141197440Y-61695000D01*
X141785724Y-61695000D01*
X141770060Y-61773750D01*
G36*
X153703152Y-64572598D02*
X153612000Y-64663750D01*
X153612000Y-65563000D01*
X153632000Y-65563000D01*
X153632000Y-65817000D01*
X153612000Y-65817000D01*
X153612000Y-66716250D01*
X153770750Y-66875000D01*
X154205001Y-66875000D01*
X154205001Y-68192560D01*
X153577802Y-68192560D01*
X153240874Y-68053000D01*
X152829126Y-68053000D01*
X152500000Y-68189328D01*
X152500000Y-66875000D01*
X153199250Y-66875000D01*
X153358000Y-66716250D01*
X153358000Y-65817000D01*
X153338000Y-65817000D01*
X153338000Y-65563000D01*
X153358000Y-65563000D01*
X153358000Y-64663750D01*
X153199250Y-64505000D01*
X152500000Y-64505000D01*
X152500000Y-63369446D01*
X153703152Y-64572598D01*
X153703152Y-64572598D01*
G37*
X153703152Y-64572598D02*
X153612000Y-64663750D01*
X153612000Y-65563000D01*
X153632000Y-65563000D01*
X153632000Y-65817000D01*
X153612000Y-65817000D01*
X153612000Y-66716250D01*
X153770750Y-66875000D01*
X154205001Y-66875000D01*
X154205001Y-68192560D01*
X153577802Y-68192560D01*
X153240874Y-68053000D01*
X152829126Y-68053000D01*
X152500000Y-68189328D01*
X152500000Y-66875000D01*
X153199250Y-66875000D01*
X153358000Y-66716250D01*
X153358000Y-65817000D01*
X153338000Y-65817000D01*
X153338000Y-65563000D01*
X153358000Y-65563000D01*
X153358000Y-64663750D01*
X153199250Y-64505000D01*
X152500000Y-64505000D01*
X152500000Y-63369446D01*
X153703152Y-64572598D01*
G36*
X145947612Y-61695000D02*
X145947615Y-61695000D01*
X146019999Y-61709398D01*
X146092383Y-61695000D01*
X148698723Y-61695000D01*
X148814191Y-61867809D01*
X148934531Y-61948219D01*
X148849000Y-62033750D01*
X148849000Y-62833000D01*
X148869000Y-62833000D01*
X148869000Y-63087000D01*
X148849000Y-63087000D01*
X148849000Y-63107000D01*
X148595000Y-63107000D01*
X148595000Y-63087000D01*
X147845750Y-63087000D01*
X147687000Y-63245750D01*
X147687000Y-63536309D01*
X147783673Y-63769698D01*
X147962301Y-63948327D01*
X148195690Y-64045000D01*
X148436250Y-64045000D01*
X148594998Y-63886252D01*
X148594998Y-63997555D01*
X146017554Y-66575000D01*
X145859493Y-66575000D01*
X145847102Y-66512706D01*
X145653916Y-66223584D01*
X145379164Y-66040000D01*
X145653916Y-65856416D01*
X145847102Y-65567294D01*
X145914940Y-65226250D01*
X145914940Y-64313750D01*
X145847102Y-63972706D01*
X145653916Y-63683584D01*
X145515000Y-63590763D01*
X145515000Y-63409237D01*
X145653916Y-63316416D01*
X145847102Y-63027294D01*
X145914940Y-62686250D01*
X145914940Y-62383691D01*
X147687000Y-62383691D01*
X147687000Y-62674250D01*
X147845750Y-62833000D01*
X148595000Y-62833000D01*
X148595000Y-62033750D01*
X148436250Y-61875000D01*
X148195690Y-61875000D01*
X147962301Y-61971673D01*
X147783673Y-62150302D01*
X147687000Y-62383691D01*
X145914940Y-62383691D01*
X145914940Y-61773750D01*
X145897284Y-61684989D01*
X145947612Y-61695000D01*
X145947612Y-61695000D01*
G37*
X145947612Y-61695000D02*
X145947615Y-61695000D01*
X146019999Y-61709398D01*
X146092383Y-61695000D01*
X148698723Y-61695000D01*
X148814191Y-61867809D01*
X148934531Y-61948219D01*
X148849000Y-62033750D01*
X148849000Y-62833000D01*
X148869000Y-62833000D01*
X148869000Y-63087000D01*
X148849000Y-63087000D01*
X148849000Y-63107000D01*
X148595000Y-63107000D01*
X148595000Y-63087000D01*
X147845750Y-63087000D01*
X147687000Y-63245750D01*
X147687000Y-63536309D01*
X147783673Y-63769698D01*
X147962301Y-63948327D01*
X148195690Y-64045000D01*
X148436250Y-64045000D01*
X148594998Y-63886252D01*
X148594998Y-63997555D01*
X146017554Y-66575000D01*
X145859493Y-66575000D01*
X145847102Y-66512706D01*
X145653916Y-66223584D01*
X145379164Y-66040000D01*
X145653916Y-65856416D01*
X145847102Y-65567294D01*
X145914940Y-65226250D01*
X145914940Y-64313750D01*
X145847102Y-63972706D01*
X145653916Y-63683584D01*
X145515000Y-63590763D01*
X145515000Y-63409237D01*
X145653916Y-63316416D01*
X145847102Y-63027294D01*
X145914940Y-62686250D01*
X145914940Y-62383691D01*
X147687000Y-62383691D01*
X147687000Y-62674250D01*
X147845750Y-62833000D01*
X148595000Y-62833000D01*
X148595000Y-62033750D01*
X148436250Y-61875000D01*
X148195690Y-61875000D01*
X147962301Y-61971673D01*
X147783673Y-62150302D01*
X147687000Y-62383691D01*
X145914940Y-62383691D01*
X145914940Y-61773750D01*
X145897284Y-61684989D01*
X145947612Y-61695000D01*
G36*
X143906084Y-65856416D02*
X144180836Y-66040000D01*
X143906084Y-66223584D01*
X143905293Y-66224767D01*
X143752198Y-66071673D01*
X143675733Y-66040000D01*
X143752198Y-66008327D01*
X143905293Y-65855233D01*
X143906084Y-65856416D01*
X143906084Y-65856416D01*
G37*
X143906084Y-65856416D02*
X144180836Y-66040000D01*
X143906084Y-66223584D01*
X143905293Y-66224767D01*
X143752198Y-66071673D01*
X143675733Y-66040000D01*
X143752198Y-66008327D01*
X143905293Y-65855233D01*
X143906084Y-65856416D01*
G36*
X139847125Y-55547218D02*
X139695000Y-56058000D01*
X139695000Y-56333000D01*
X140928000Y-56333000D01*
X140928000Y-56313000D01*
X141182000Y-56313000D01*
X141182000Y-56333000D01*
X141798417Y-56333000D01*
X141876163Y-56384948D01*
X142178065Y-56445000D01*
X142381935Y-56445000D01*
X142683837Y-56384948D01*
X142741901Y-56346151D01*
X142778750Y-56383000D01*
X143257560Y-56383000D01*
X143257560Y-56637000D01*
X142778750Y-56637000D01*
X142620000Y-56795750D01*
X142620000Y-57286310D01*
X142716673Y-57519699D01*
X142895302Y-57698327D01*
X143128691Y-57795000D01*
X143208750Y-57795000D01*
X143367500Y-57636250D01*
X143367500Y-57498544D01*
X143447191Y-57617809D01*
X143657235Y-57758157D01*
X143728603Y-57772353D01*
X143740902Y-57784652D01*
X143172335Y-58353219D01*
X143118750Y-58342560D01*
X142631250Y-58342560D01*
X142290206Y-58410398D01*
X142001084Y-58603584D01*
X141807898Y-58892706D01*
X141740060Y-59233750D01*
X141740060Y-60146250D01*
X141755724Y-60225000D01*
X141197440Y-60225000D01*
X141197440Y-60110000D01*
X141148157Y-59862235D01*
X141007809Y-59652191D01*
X140797765Y-59511843D01*
X140550000Y-59462560D01*
X138850000Y-59462560D01*
X138602235Y-59511843D01*
X138392191Y-59652191D01*
X138251843Y-59862235D01*
X138242816Y-59907619D01*
X138230625Y-59889375D01*
X137911522Y-59676157D01*
X138041358Y-59615183D01*
X138431645Y-59186924D01*
X138601476Y-58776890D01*
X138480155Y-58547000D01*
X137287000Y-58547000D01*
X137287000Y-58567000D01*
X137033000Y-58567000D01*
X137033000Y-58547000D01*
X137013000Y-58547000D01*
X137013000Y-58293000D01*
X137033000Y-58293000D01*
X137033000Y-56007000D01*
X137287000Y-56007000D01*
X137287000Y-58293000D01*
X138480155Y-58293000D01*
X138601476Y-58063110D01*
X138431645Y-57653076D01*
X138160122Y-57355136D01*
X138369698Y-57268327D01*
X138548327Y-57089699D01*
X138645000Y-56856310D01*
X138645000Y-56587000D01*
X139695000Y-56587000D01*
X139695000Y-56862000D01*
X139847125Y-57372782D01*
X140183138Y-57786467D01*
X140651884Y-58040076D01*
X140717742Y-58052519D01*
X140928000Y-57929518D01*
X140928000Y-56587000D01*
X141182000Y-56587000D01*
X141182000Y-57929518D01*
X141392258Y-58052519D01*
X141458116Y-58040076D01*
X141926862Y-57786467D01*
X142262875Y-57372782D01*
X142415000Y-56862000D01*
X142415000Y-56587000D01*
X141182000Y-56587000D01*
X140928000Y-56587000D01*
X139695000Y-56587000D01*
X138645000Y-56587000D01*
X138645000Y-56165750D01*
X138486250Y-56007000D01*
X137287000Y-56007000D01*
X137033000Y-56007000D01*
X137013000Y-56007000D01*
X137013000Y-55753000D01*
X137033000Y-55753000D01*
X137033000Y-55733000D01*
X137287000Y-55733000D01*
X137287000Y-55753000D01*
X138486250Y-55753000D01*
X138645000Y-55594250D01*
X138645000Y-55345000D01*
X140011375Y-55345000D01*
X139847125Y-55547218D01*
X139847125Y-55547218D01*
G37*
X139847125Y-55547218D02*
X139695000Y-56058000D01*
X139695000Y-56333000D01*
X140928000Y-56333000D01*
X140928000Y-56313000D01*
X141182000Y-56313000D01*
X141182000Y-56333000D01*
X141798417Y-56333000D01*
X141876163Y-56384948D01*
X142178065Y-56445000D01*
X142381935Y-56445000D01*
X142683837Y-56384948D01*
X142741901Y-56346151D01*
X142778750Y-56383000D01*
X143257560Y-56383000D01*
X143257560Y-56637000D01*
X142778750Y-56637000D01*
X142620000Y-56795750D01*
X142620000Y-57286310D01*
X142716673Y-57519699D01*
X142895302Y-57698327D01*
X143128691Y-57795000D01*
X143208750Y-57795000D01*
X143367500Y-57636250D01*
X143367500Y-57498544D01*
X143447191Y-57617809D01*
X143657235Y-57758157D01*
X143728603Y-57772353D01*
X143740902Y-57784652D01*
X143172335Y-58353219D01*
X143118750Y-58342560D01*
X142631250Y-58342560D01*
X142290206Y-58410398D01*
X142001084Y-58603584D01*
X141807898Y-58892706D01*
X141740060Y-59233750D01*
X141740060Y-60146250D01*
X141755724Y-60225000D01*
X141197440Y-60225000D01*
X141197440Y-60110000D01*
X141148157Y-59862235D01*
X141007809Y-59652191D01*
X140797765Y-59511843D01*
X140550000Y-59462560D01*
X138850000Y-59462560D01*
X138602235Y-59511843D01*
X138392191Y-59652191D01*
X138251843Y-59862235D01*
X138242816Y-59907619D01*
X138230625Y-59889375D01*
X137911522Y-59676157D01*
X138041358Y-59615183D01*
X138431645Y-59186924D01*
X138601476Y-58776890D01*
X138480155Y-58547000D01*
X137287000Y-58547000D01*
X137287000Y-58567000D01*
X137033000Y-58567000D01*
X137033000Y-58547000D01*
X137013000Y-58547000D01*
X137013000Y-58293000D01*
X137033000Y-58293000D01*
X137033000Y-56007000D01*
X137287000Y-56007000D01*
X137287000Y-58293000D01*
X138480155Y-58293000D01*
X138601476Y-58063110D01*
X138431645Y-57653076D01*
X138160122Y-57355136D01*
X138369698Y-57268327D01*
X138548327Y-57089699D01*
X138645000Y-56856310D01*
X138645000Y-56587000D01*
X139695000Y-56587000D01*
X139695000Y-56862000D01*
X139847125Y-57372782D01*
X140183138Y-57786467D01*
X140651884Y-58040076D01*
X140717742Y-58052519D01*
X140928000Y-57929518D01*
X140928000Y-56587000D01*
X141182000Y-56587000D01*
X141182000Y-57929518D01*
X141392258Y-58052519D01*
X141458116Y-58040076D01*
X141926862Y-57786467D01*
X142262875Y-57372782D01*
X142415000Y-56862000D01*
X142415000Y-56587000D01*
X141182000Y-56587000D01*
X140928000Y-56587000D01*
X139695000Y-56587000D01*
X138645000Y-56587000D01*
X138645000Y-56165750D01*
X138486250Y-56007000D01*
X137287000Y-56007000D01*
X137033000Y-56007000D01*
X137013000Y-56007000D01*
X137013000Y-55753000D01*
X137033000Y-55753000D01*
X137033000Y-55733000D01*
X137287000Y-55733000D01*
X137287000Y-55753000D01*
X138486250Y-55753000D01*
X138645000Y-55594250D01*
X138645000Y-55345000D01*
X140011375Y-55345000D01*
X139847125Y-55547218D01*
G36*
X150885908Y-55880000D02*
X150964657Y-56275897D01*
X149203463Y-58037091D01*
X149142096Y-58078095D01*
X149101092Y-58139462D01*
X149101091Y-58139463D01*
X148979646Y-58321218D01*
X148922602Y-58608000D01*
X148937001Y-58680389D01*
X148937000Y-59970132D01*
X148814191Y-60052191D01*
X148698723Y-60225000D01*
X146324447Y-60225000D01*
X145884940Y-59785494D01*
X145884940Y-59233750D01*
X145817102Y-58892706D01*
X145623916Y-58603584D01*
X145334794Y-58410398D01*
X145217400Y-58387047D01*
X145409446Y-58195001D01*
X145907615Y-58195001D01*
X145979999Y-58209399D01*
X146052383Y-58195001D01*
X146052387Y-58195001D01*
X146266782Y-58152355D01*
X146509904Y-57989906D01*
X146549959Y-57929959D01*
X146609905Y-57889905D01*
X146772354Y-57646783D01*
X146784606Y-57585187D01*
X146903157Y-57407765D01*
X146952440Y-57160000D01*
X146952440Y-57095006D01*
X147034905Y-57039905D01*
X147147706Y-56871086D01*
X147297125Y-57372782D01*
X147633138Y-57786467D01*
X148101884Y-58040076D01*
X148167742Y-58052519D01*
X148378000Y-57929518D01*
X148378000Y-56587000D01*
X148632000Y-56587000D01*
X148632000Y-57929518D01*
X148842258Y-58052519D01*
X148908116Y-58040076D01*
X149376862Y-57786467D01*
X149712875Y-57372782D01*
X149865000Y-56862000D01*
X149865000Y-56587000D01*
X148632000Y-56587000D01*
X148378000Y-56587000D01*
X148358000Y-56587000D01*
X148358000Y-56333000D01*
X148378000Y-56333000D01*
X148378000Y-56313000D01*
X148632000Y-56313000D01*
X148632000Y-56333000D01*
X149865000Y-56333000D01*
X149865000Y-56058000D01*
X149712875Y-55547218D01*
X149548625Y-55345000D01*
X150992326Y-55345000D01*
X150885908Y-55880000D01*
X150885908Y-55880000D01*
G37*
X150885908Y-55880000D02*
X150964657Y-56275897D01*
X149203463Y-58037091D01*
X149142096Y-58078095D01*
X149101092Y-58139462D01*
X149101091Y-58139463D01*
X148979646Y-58321218D01*
X148922602Y-58608000D01*
X148937001Y-58680389D01*
X148937000Y-59970132D01*
X148814191Y-60052191D01*
X148698723Y-60225000D01*
X146324447Y-60225000D01*
X145884940Y-59785494D01*
X145884940Y-59233750D01*
X145817102Y-58892706D01*
X145623916Y-58603584D01*
X145334794Y-58410398D01*
X145217400Y-58387047D01*
X145409446Y-58195001D01*
X145907615Y-58195001D01*
X145979999Y-58209399D01*
X146052383Y-58195001D01*
X146052387Y-58195001D01*
X146266782Y-58152355D01*
X146509904Y-57989906D01*
X146549959Y-57929959D01*
X146609905Y-57889905D01*
X146772354Y-57646783D01*
X146784606Y-57585187D01*
X146903157Y-57407765D01*
X146952440Y-57160000D01*
X146952440Y-57095006D01*
X147034905Y-57039905D01*
X147147706Y-56871086D01*
X147297125Y-57372782D01*
X147633138Y-57786467D01*
X148101884Y-58040076D01*
X148167742Y-58052519D01*
X148378000Y-57929518D01*
X148378000Y-56587000D01*
X148632000Y-56587000D01*
X148632000Y-57929518D01*
X148842258Y-58052519D01*
X148908116Y-58040076D01*
X149376862Y-57786467D01*
X149712875Y-57372782D01*
X149865000Y-56862000D01*
X149865000Y-56587000D01*
X148632000Y-56587000D01*
X148378000Y-56587000D01*
X148358000Y-56587000D01*
X148358000Y-56333000D01*
X148378000Y-56333000D01*
X148378000Y-56313000D01*
X148632000Y-56313000D01*
X148632000Y-56333000D01*
X149865000Y-56333000D01*
X149865000Y-56058000D01*
X149712875Y-55547218D01*
X149548625Y-55345000D01*
X150992326Y-55345000D01*
X150885908Y-55880000D01*
G04 #@! TD*
M02*
