G04 #@! TF.GenerationSoftware,KiCad,Pcbnew,5.0.1*
G04 #@! TF.CreationDate,2019-01-03T14:35:24+01:00*
G04 #@! TF.ProjectId,e73-ab,6537332D61622E6B696361645F706362,rev?*
G04 #@! TF.SameCoordinates,Original*
G04 #@! TF.FileFunction,Legend,Bot*
G04 #@! TF.FilePolarity,Positive*
%FSLAX46Y46*%
G04 Gerber Fmt 4.6, Leading zero omitted, Abs format (unit mm)*
G04 Created by KiCad (PCBNEW 5.0.1) date do 03 jan 2019 14:35:24 CET*
%MOMM*%
%LPD*%
G01*
G04 APERTURE LIST*
%ADD10C,0.300000*%
%ADD11C,0.120000*%
%ADD12C,0.150000*%
G04 APERTURE END LIST*
D10*
X159022857Y-87487857D02*
X158808571Y-87559285D01*
X158737142Y-87630714D01*
X158665714Y-87773571D01*
X158665714Y-87987857D01*
X158737142Y-88130714D01*
X158808571Y-88202142D01*
X158951428Y-88273571D01*
X159522857Y-88273571D01*
X159522857Y-86773571D01*
X159022857Y-86773571D01*
X158880000Y-86845000D01*
X158808571Y-86916428D01*
X158737142Y-87059285D01*
X158737142Y-87202142D01*
X158808571Y-87345000D01*
X158880000Y-87416428D01*
X159022857Y-87487857D01*
X159522857Y-87487857D01*
X158022857Y-88273571D02*
X158022857Y-87273571D01*
X158022857Y-87559285D02*
X157951428Y-87416428D01*
X157880000Y-87345000D01*
X157737142Y-87273571D01*
X157594285Y-87273571D01*
X156522857Y-88202142D02*
X156665714Y-88273571D01*
X156951428Y-88273571D01*
X157094285Y-88202142D01*
X157165714Y-88059285D01*
X157165714Y-87487857D01*
X157094285Y-87345000D01*
X156951428Y-87273571D01*
X156665714Y-87273571D01*
X156522857Y-87345000D01*
X156451428Y-87487857D01*
X156451428Y-87630714D01*
X157165714Y-87773571D01*
X155165714Y-88273571D02*
X155165714Y-87487857D01*
X155237142Y-87345000D01*
X155380000Y-87273571D01*
X155665714Y-87273571D01*
X155808571Y-87345000D01*
X155165714Y-88202142D02*
X155308571Y-88273571D01*
X155665714Y-88273571D01*
X155808571Y-88202142D01*
X155880000Y-88059285D01*
X155880000Y-87916428D01*
X155808571Y-87773571D01*
X155665714Y-87702142D01*
X155308571Y-87702142D01*
X155165714Y-87630714D01*
X154451428Y-88273571D02*
X154451428Y-86773571D01*
X154308571Y-87702142D02*
X153880000Y-88273571D01*
X153880000Y-87273571D02*
X154451428Y-87845000D01*
X153022857Y-88273571D02*
X153165714Y-88202142D01*
X153237142Y-88130714D01*
X153308571Y-87987857D01*
X153308571Y-87559285D01*
X153237142Y-87416428D01*
X153165714Y-87345000D01*
X153022857Y-87273571D01*
X152808571Y-87273571D01*
X152665714Y-87345000D01*
X152594285Y-87416428D01*
X152522857Y-87559285D01*
X152522857Y-87987857D01*
X152594285Y-88130714D01*
X152665714Y-88202142D01*
X152808571Y-88273571D01*
X153022857Y-88273571D01*
X151237142Y-87273571D02*
X151237142Y-88273571D01*
X151880000Y-87273571D02*
X151880000Y-88059285D01*
X151808571Y-88202142D01*
X151665714Y-88273571D01*
X151451428Y-88273571D01*
X151308571Y-88202142D01*
X151237142Y-88130714D01*
X150737142Y-87273571D02*
X150165714Y-87273571D01*
X150522857Y-86773571D02*
X150522857Y-88059285D01*
X150451428Y-88202142D01*
X150308571Y-88273571D01*
X150165714Y-88273571D01*
X148022857Y-87487857D02*
X147808571Y-87559285D01*
X147737142Y-87630714D01*
X147665714Y-87773571D01*
X147665714Y-87987857D01*
X147737142Y-88130714D01*
X147808571Y-88202142D01*
X147951428Y-88273571D01*
X148522857Y-88273571D01*
X148522857Y-86773571D01*
X148022857Y-86773571D01*
X147880000Y-86845000D01*
X147808571Y-86916428D01*
X147737142Y-87059285D01*
X147737142Y-87202142D01*
X147808571Y-87345000D01*
X147880000Y-87416428D01*
X148022857Y-87487857D01*
X148522857Y-87487857D01*
X146808571Y-88273571D02*
X146951428Y-88202142D01*
X147022857Y-88130714D01*
X147094285Y-87987857D01*
X147094285Y-87559285D01*
X147022857Y-87416428D01*
X146951428Y-87345000D01*
X146808571Y-87273571D01*
X146594285Y-87273571D01*
X146451428Y-87345000D01*
X146380000Y-87416428D01*
X146308571Y-87559285D01*
X146308571Y-87987857D01*
X146380000Y-88130714D01*
X146451428Y-88202142D01*
X146594285Y-88273571D01*
X146808571Y-88273571D01*
X145022857Y-88273571D02*
X145022857Y-87487857D01*
X145094285Y-87345000D01*
X145237142Y-87273571D01*
X145522857Y-87273571D01*
X145665714Y-87345000D01*
X145022857Y-88202142D02*
X145165714Y-88273571D01*
X145522857Y-88273571D01*
X145665714Y-88202142D01*
X145737142Y-88059285D01*
X145737142Y-87916428D01*
X145665714Y-87773571D01*
X145522857Y-87702142D01*
X145165714Y-87702142D01*
X145022857Y-87630714D01*
X144308571Y-88273571D02*
X144308571Y-87273571D01*
X144308571Y-87559285D02*
X144237142Y-87416428D01*
X144165714Y-87345000D01*
X144022857Y-87273571D01*
X143880000Y-87273571D01*
X142737142Y-88273571D02*
X142737142Y-86773571D01*
X142737142Y-88202142D02*
X142880000Y-88273571D01*
X143165714Y-88273571D01*
X143308571Y-88202142D01*
X143380000Y-88130714D01*
X143451428Y-87987857D01*
X143451428Y-87559285D01*
X143380000Y-87416428D01*
X143308571Y-87345000D01*
X143165714Y-87273571D01*
X142880000Y-87273571D01*
X142737142Y-87345000D01*
X160808571Y-89823571D02*
X160237142Y-89823571D01*
X160594285Y-90823571D02*
X160594285Y-89537857D01*
X160522857Y-89395000D01*
X160380000Y-89323571D01*
X160237142Y-89323571D01*
X159522857Y-90823571D02*
X159665714Y-90752142D01*
X159737142Y-90680714D01*
X159808571Y-90537857D01*
X159808571Y-90109285D01*
X159737142Y-89966428D01*
X159665714Y-89895000D01*
X159522857Y-89823571D01*
X159308571Y-89823571D01*
X159165714Y-89895000D01*
X159094285Y-89966428D01*
X159022857Y-90109285D01*
X159022857Y-90537857D01*
X159094285Y-90680714D01*
X159165714Y-90752142D01*
X159308571Y-90823571D01*
X159522857Y-90823571D01*
X158380000Y-90823571D02*
X158380000Y-89823571D01*
X158380000Y-90109285D02*
X158308571Y-89966428D01*
X158237142Y-89895000D01*
X158094285Y-89823571D01*
X157951428Y-89823571D01*
X155737142Y-90752142D02*
X155880000Y-90823571D01*
X156165714Y-90823571D01*
X156308571Y-90752142D01*
X156380000Y-90609285D01*
X156380000Y-90037857D01*
X156308571Y-89895000D01*
X156165714Y-89823571D01*
X155880000Y-89823571D01*
X155737142Y-89895000D01*
X155665714Y-90037857D01*
X155665714Y-90180714D01*
X156380000Y-90323571D01*
X154522857Y-90037857D02*
X154308571Y-90109285D01*
X154237142Y-90180714D01*
X154165714Y-90323571D01*
X154165714Y-90537857D01*
X154237142Y-90680714D01*
X154308571Y-90752142D01*
X154451428Y-90823571D01*
X155022857Y-90823571D01*
X155022857Y-89323571D01*
X154522857Y-89323571D01*
X154380000Y-89395000D01*
X154308571Y-89466428D01*
X154237142Y-89609285D01*
X154237142Y-89752142D01*
X154308571Y-89895000D01*
X154380000Y-89966428D01*
X154522857Y-90037857D01*
X155022857Y-90037857D01*
X153665714Y-89823571D02*
X153308571Y-90823571D01*
X152951428Y-89823571D02*
X153308571Y-90823571D01*
X153451428Y-91180714D01*
X153522857Y-91252142D01*
X153665714Y-91323571D01*
X152594285Y-89823571D02*
X152022857Y-89823571D01*
X152380000Y-89323571D02*
X152380000Y-90609285D01*
X152308571Y-90752142D01*
X152165714Y-90823571D01*
X152022857Y-90823571D01*
X150951428Y-90752142D02*
X151094285Y-90823571D01*
X151380000Y-90823571D01*
X151522857Y-90752142D01*
X151594285Y-90609285D01*
X151594285Y-90037857D01*
X151522857Y-89895000D01*
X151380000Y-89823571D01*
X151094285Y-89823571D01*
X150951428Y-89895000D01*
X150880000Y-90037857D01*
X150880000Y-90180714D01*
X151594285Y-90323571D01*
X149094285Y-90823571D02*
X149094285Y-89823571D01*
X149094285Y-89966428D02*
X149022857Y-89895000D01*
X148880000Y-89823571D01*
X148665714Y-89823571D01*
X148522857Y-89895000D01*
X148451428Y-90037857D01*
X148451428Y-90823571D01*
X148451428Y-90037857D02*
X148380000Y-89895000D01*
X148237142Y-89823571D01*
X148022857Y-89823571D01*
X147880000Y-89895000D01*
X147808571Y-90037857D01*
X147808571Y-90823571D01*
X146880000Y-90823571D02*
X147022857Y-90752142D01*
X147094285Y-90680714D01*
X147165714Y-90537857D01*
X147165714Y-90109285D01*
X147094285Y-89966428D01*
X147022857Y-89895000D01*
X146880000Y-89823571D01*
X146665714Y-89823571D01*
X146522857Y-89895000D01*
X146451428Y-89966428D01*
X146380000Y-90109285D01*
X146380000Y-90537857D01*
X146451428Y-90680714D01*
X146522857Y-90752142D01*
X146665714Y-90823571D01*
X146880000Y-90823571D01*
X145094285Y-90823571D02*
X145094285Y-89323571D01*
X145094285Y-90752142D02*
X145237142Y-90823571D01*
X145522857Y-90823571D01*
X145665714Y-90752142D01*
X145737142Y-90680714D01*
X145808571Y-90537857D01*
X145808571Y-90109285D01*
X145737142Y-89966428D01*
X145665714Y-89895000D01*
X145522857Y-89823571D01*
X145237142Y-89823571D01*
X145094285Y-89895000D01*
X143737142Y-89823571D02*
X143737142Y-90823571D01*
X144380000Y-89823571D02*
X144380000Y-90609285D01*
X144308571Y-90752142D01*
X144165714Y-90823571D01*
X143951428Y-90823571D01*
X143808571Y-90752142D01*
X143737142Y-90680714D01*
X142808571Y-90823571D02*
X142951428Y-90752142D01*
X143022857Y-90609285D01*
X143022857Y-89323571D01*
X141665714Y-90752142D02*
X141808571Y-90823571D01*
X142094285Y-90823571D01*
X142237142Y-90752142D01*
X142308571Y-90609285D01*
X142308571Y-90037857D01*
X142237142Y-89895000D01*
X142094285Y-89823571D01*
X141808571Y-89823571D01*
X141665714Y-89895000D01*
X141594285Y-90037857D01*
X141594285Y-90180714D01*
X142308571Y-90323571D01*
X160344285Y-92587857D02*
X159844285Y-92587857D01*
X159630000Y-93373571D02*
X160344285Y-93373571D01*
X160344285Y-91873571D01*
X159630000Y-91873571D01*
X159130000Y-91873571D02*
X158130000Y-91873571D01*
X158772857Y-93373571D01*
X157701428Y-91873571D02*
X156772857Y-91873571D01*
X157272857Y-92445000D01*
X157058571Y-92445000D01*
X156915714Y-92516428D01*
X156844285Y-92587857D01*
X156772857Y-92730714D01*
X156772857Y-93087857D01*
X156844285Y-93230714D01*
X156915714Y-93302142D01*
X157058571Y-93373571D01*
X157487142Y-93373571D01*
X157630000Y-93302142D01*
X157701428Y-93230714D01*
X156130000Y-92802142D02*
X154987142Y-92802142D01*
X154344285Y-92016428D02*
X154272857Y-91945000D01*
X154130000Y-91873571D01*
X153772857Y-91873571D01*
X153630000Y-91945000D01*
X153558571Y-92016428D01*
X153487142Y-92159285D01*
X153487142Y-92302142D01*
X153558571Y-92516428D01*
X154415714Y-93373571D01*
X153487142Y-93373571D01*
X152058571Y-91945000D02*
X152201428Y-91873571D01*
X152415714Y-91873571D01*
X152630000Y-91945000D01*
X152772857Y-92087857D01*
X152844285Y-92230714D01*
X152915714Y-92516428D01*
X152915714Y-92730714D01*
X152844285Y-93016428D01*
X152772857Y-93159285D01*
X152630000Y-93302142D01*
X152415714Y-93373571D01*
X152272857Y-93373571D01*
X152058571Y-93302142D01*
X151987142Y-93230714D01*
X151987142Y-92730714D01*
X152272857Y-92730714D01*
X150701428Y-92373571D02*
X150701428Y-93373571D01*
X151058571Y-91802142D02*
X151415714Y-92873571D01*
X150487142Y-92873571D01*
X149915714Y-93373571D02*
X149915714Y-91873571D01*
X149415714Y-92945000D01*
X148915714Y-91873571D01*
X148915714Y-93373571D01*
X147915714Y-91873571D02*
X147772857Y-91873571D01*
X147630000Y-91945000D01*
X147558571Y-92016428D01*
X147487142Y-92159285D01*
X147415714Y-92445000D01*
X147415714Y-92802142D01*
X147487142Y-93087857D01*
X147558571Y-93230714D01*
X147630000Y-93302142D01*
X147772857Y-93373571D01*
X147915714Y-93373571D01*
X148058571Y-93302142D01*
X148130000Y-93230714D01*
X148201428Y-93087857D01*
X148272857Y-92802142D01*
X148272857Y-92445000D01*
X148201428Y-92159285D01*
X148130000Y-92016428D01*
X148058571Y-91945000D01*
X147915714Y-91873571D01*
X146130000Y-92373571D02*
X146130000Y-93373571D01*
X146487142Y-91802142D02*
X146844285Y-92873571D01*
X145915714Y-92873571D01*
X145415714Y-93302142D02*
X145201428Y-93373571D01*
X144844285Y-93373571D01*
X144701428Y-93302142D01*
X144630000Y-93230714D01*
X144558571Y-93087857D01*
X144558571Y-92945000D01*
X144630000Y-92802142D01*
X144701428Y-92730714D01*
X144844285Y-92659285D01*
X145130000Y-92587857D01*
X145272857Y-92516428D01*
X145344285Y-92445000D01*
X145415714Y-92302142D01*
X145415714Y-92159285D01*
X145344285Y-92016428D01*
X145272857Y-91945000D01*
X145130000Y-91873571D01*
X144772857Y-91873571D01*
X144558571Y-91945000D01*
X143130000Y-93373571D02*
X143987142Y-93373571D01*
X143558571Y-93373571D02*
X143558571Y-91873571D01*
X143701428Y-92087857D01*
X143844285Y-92230714D01*
X143987142Y-92302142D01*
X142558571Y-92945000D02*
X141844285Y-92945000D01*
X142701428Y-93373571D02*
X142201428Y-91873571D01*
X141701428Y-93373571D01*
X160451428Y-95137857D02*
X159951428Y-95137857D01*
X159737142Y-95923571D02*
X160451428Y-95923571D01*
X160451428Y-94423571D01*
X159737142Y-94423571D01*
X159237142Y-94423571D02*
X158237142Y-94423571D01*
X158880000Y-95923571D01*
X157808571Y-94423571D02*
X156880000Y-94423571D01*
X157380000Y-94995000D01*
X157165714Y-94995000D01*
X157022857Y-95066428D01*
X156951428Y-95137857D01*
X156880000Y-95280714D01*
X156880000Y-95637857D01*
X156951428Y-95780714D01*
X157022857Y-95852142D01*
X157165714Y-95923571D01*
X157594285Y-95923571D01*
X157737142Y-95852142D01*
X157808571Y-95780714D01*
X156237142Y-95352142D02*
X155094285Y-95352142D01*
X154451428Y-94566428D02*
X154380000Y-94495000D01*
X154237142Y-94423571D01*
X153880000Y-94423571D01*
X153737142Y-94495000D01*
X153665714Y-94566428D01*
X153594285Y-94709285D01*
X153594285Y-94852142D01*
X153665714Y-95066428D01*
X154522857Y-95923571D01*
X153594285Y-95923571D01*
X152165714Y-94495000D02*
X152308571Y-94423571D01*
X152522857Y-94423571D01*
X152737142Y-94495000D01*
X152880000Y-94637857D01*
X152951428Y-94780714D01*
X153022857Y-95066428D01*
X153022857Y-95280714D01*
X152951428Y-95566428D01*
X152880000Y-95709285D01*
X152737142Y-95852142D01*
X152522857Y-95923571D01*
X152380000Y-95923571D01*
X152165714Y-95852142D01*
X152094285Y-95780714D01*
X152094285Y-95280714D01*
X152380000Y-95280714D01*
X150808571Y-94923571D02*
X150808571Y-95923571D01*
X151165714Y-94352142D02*
X151522857Y-95423571D01*
X150594285Y-95423571D01*
X150022857Y-95923571D02*
X150022857Y-94423571D01*
X149522857Y-95495000D01*
X149022857Y-94423571D01*
X149022857Y-95923571D01*
X148022857Y-94423571D02*
X147880000Y-94423571D01*
X147737142Y-94495000D01*
X147665714Y-94566428D01*
X147594285Y-94709285D01*
X147522857Y-94995000D01*
X147522857Y-95352142D01*
X147594285Y-95637857D01*
X147665714Y-95780714D01*
X147737142Y-95852142D01*
X147880000Y-95923571D01*
X148022857Y-95923571D01*
X148165714Y-95852142D01*
X148237142Y-95780714D01*
X148308571Y-95637857D01*
X148380000Y-95352142D01*
X148380000Y-94995000D01*
X148308571Y-94709285D01*
X148237142Y-94566428D01*
X148165714Y-94495000D01*
X148022857Y-94423571D01*
X146237142Y-94923571D02*
X146237142Y-95923571D01*
X146594285Y-94352142D02*
X146951428Y-95423571D01*
X146022857Y-95423571D01*
X145522857Y-95852142D02*
X145308571Y-95923571D01*
X144951428Y-95923571D01*
X144808571Y-95852142D01*
X144737142Y-95780714D01*
X144665714Y-95637857D01*
X144665714Y-95495000D01*
X144737142Y-95352142D01*
X144808571Y-95280714D01*
X144951428Y-95209285D01*
X145237142Y-95137857D01*
X145380000Y-95066428D01*
X145451428Y-94995000D01*
X145522857Y-94852142D01*
X145522857Y-94709285D01*
X145451428Y-94566428D01*
X145380000Y-94495000D01*
X145237142Y-94423571D01*
X144880000Y-94423571D01*
X144665714Y-94495000D01*
X143237142Y-95923571D02*
X144094285Y-95923571D01*
X143665714Y-95923571D02*
X143665714Y-94423571D01*
X143808571Y-94637857D01*
X143951428Y-94780714D01*
X144094285Y-94852142D01*
X142094285Y-95137857D02*
X141880000Y-95209285D01*
X141808571Y-95280714D01*
X141737142Y-95423571D01*
X141737142Y-95637857D01*
X141808571Y-95780714D01*
X141880000Y-95852142D01*
X142022857Y-95923571D01*
X142594285Y-95923571D01*
X142594285Y-94423571D01*
X142094285Y-94423571D01*
X141951428Y-94495000D01*
X141880000Y-94566428D01*
X141808571Y-94709285D01*
X141808571Y-94852142D01*
X141880000Y-94995000D01*
X141951428Y-95066428D01*
X142094285Y-95137857D01*
X142594285Y-95137857D01*
X157487142Y-100237857D02*
X156987142Y-100237857D01*
X156772857Y-101023571D02*
X157487142Y-101023571D01*
X157487142Y-99523571D01*
X156772857Y-99523571D01*
X156272857Y-99523571D02*
X155272857Y-99523571D01*
X155915714Y-101023571D01*
X154844285Y-99523571D02*
X153915714Y-99523571D01*
X154415714Y-100095000D01*
X154201428Y-100095000D01*
X154058571Y-100166428D01*
X153987142Y-100237857D01*
X153915714Y-100380714D01*
X153915714Y-100737857D01*
X153987142Y-100880714D01*
X154058571Y-100952142D01*
X154201428Y-101023571D01*
X154630000Y-101023571D01*
X154772857Y-100952142D01*
X154844285Y-100880714D01*
X153272857Y-100452142D02*
X152130000Y-100452142D01*
X151487142Y-100595000D02*
X150772857Y-100595000D01*
X151630000Y-101023571D02*
X151130000Y-99523571D01*
X150630000Y-101023571D01*
X149630000Y-100237857D02*
X149415714Y-100309285D01*
X149344285Y-100380714D01*
X149272857Y-100523571D01*
X149272857Y-100737857D01*
X149344285Y-100880714D01*
X149415714Y-100952142D01*
X149558571Y-101023571D01*
X150130000Y-101023571D01*
X150130000Y-99523571D01*
X149630000Y-99523571D01*
X149487142Y-99595000D01*
X149415714Y-99666428D01*
X149344285Y-99809285D01*
X149344285Y-99952142D01*
X149415714Y-100095000D01*
X149487142Y-100166428D01*
X149630000Y-100237857D01*
X150130000Y-100237857D01*
X148630000Y-100452142D02*
X147487142Y-100452142D01*
X146987142Y-99523571D02*
X146487142Y-101023571D01*
X145987142Y-99523571D01*
X145630000Y-99523571D02*
X144701428Y-99523571D01*
X145201428Y-100095000D01*
X144987142Y-100095000D01*
X144844285Y-100166428D01*
X144772857Y-100237857D01*
X144701428Y-100380714D01*
X144701428Y-100737857D01*
X144772857Y-100880714D01*
X144844285Y-100952142D01*
X144987142Y-101023571D01*
X145415714Y-101023571D01*
X145558571Y-100952142D01*
X145630000Y-100880714D01*
X162630000Y-102573571D02*
X162630000Y-103573571D01*
X162630000Y-102716428D02*
X162558571Y-102645000D01*
X162415714Y-102573571D01*
X162201428Y-102573571D01*
X162058571Y-102645000D01*
X161987142Y-102787857D01*
X161987142Y-103573571D01*
X160415714Y-103573571D02*
X160915714Y-102859285D01*
X161272857Y-103573571D02*
X161272857Y-102073571D01*
X160701428Y-102073571D01*
X160558571Y-102145000D01*
X160487142Y-102216428D01*
X160415714Y-102359285D01*
X160415714Y-102573571D01*
X160487142Y-102716428D01*
X160558571Y-102787857D01*
X160701428Y-102859285D01*
X161272857Y-102859285D01*
X159272857Y-102787857D02*
X159772857Y-102787857D01*
X159772857Y-103573571D02*
X159772857Y-102073571D01*
X159058571Y-102073571D01*
X157772857Y-102073571D02*
X158487142Y-102073571D01*
X158558571Y-102787857D01*
X158487142Y-102716428D01*
X158344285Y-102645000D01*
X157987142Y-102645000D01*
X157844285Y-102716428D01*
X157772857Y-102787857D01*
X157701428Y-102930714D01*
X157701428Y-103287857D01*
X157772857Y-103430714D01*
X157844285Y-103502142D01*
X157987142Y-103573571D01*
X158344285Y-103573571D01*
X158487142Y-103502142D01*
X158558571Y-103430714D01*
X157130000Y-102216428D02*
X157058571Y-102145000D01*
X156915714Y-102073571D01*
X156558571Y-102073571D01*
X156415714Y-102145000D01*
X156344285Y-102216428D01*
X156272857Y-102359285D01*
X156272857Y-102502142D01*
X156344285Y-102716428D01*
X157201428Y-103573571D01*
X156272857Y-103573571D01*
X155415714Y-102716428D02*
X155558571Y-102645000D01*
X155630000Y-102573571D01*
X155701428Y-102430714D01*
X155701428Y-102359285D01*
X155630000Y-102216428D01*
X155558571Y-102145000D01*
X155415714Y-102073571D01*
X155130000Y-102073571D01*
X154987142Y-102145000D01*
X154915714Y-102216428D01*
X154844285Y-102359285D01*
X154844285Y-102430714D01*
X154915714Y-102573571D01*
X154987142Y-102645000D01*
X155130000Y-102716428D01*
X155415714Y-102716428D01*
X155558571Y-102787857D01*
X155630000Y-102859285D01*
X155701428Y-103002142D01*
X155701428Y-103287857D01*
X155630000Y-103430714D01*
X155558571Y-103502142D01*
X155415714Y-103573571D01*
X155130000Y-103573571D01*
X154987142Y-103502142D01*
X154915714Y-103430714D01*
X154844285Y-103287857D01*
X154844285Y-103002142D01*
X154915714Y-102859285D01*
X154987142Y-102787857D01*
X155130000Y-102716428D01*
X154344285Y-102073571D02*
X153415714Y-102073571D01*
X153915714Y-102645000D01*
X153701428Y-102645000D01*
X153558571Y-102716428D01*
X153487142Y-102787857D01*
X153415714Y-102930714D01*
X153415714Y-103287857D01*
X153487142Y-103430714D01*
X153558571Y-103502142D01*
X153701428Y-103573571D01*
X154130000Y-103573571D01*
X154272857Y-103502142D01*
X154344285Y-103430714D01*
X152844285Y-102216428D02*
X152772857Y-102145000D01*
X152630000Y-102073571D01*
X152272857Y-102073571D01*
X152130000Y-102145000D01*
X152058571Y-102216428D01*
X151987142Y-102359285D01*
X151987142Y-102502142D01*
X152058571Y-102716428D01*
X152915714Y-103573571D01*
X151987142Y-103573571D01*
X150201428Y-102573571D02*
X150201428Y-103573571D01*
X150201428Y-102716428D02*
X150130000Y-102645000D01*
X149987142Y-102573571D01*
X149772857Y-102573571D01*
X149630000Y-102645000D01*
X149558571Y-102787857D01*
X149558571Y-103573571D01*
X147987142Y-103573571D02*
X148487142Y-102859285D01*
X148844285Y-103573571D02*
X148844285Y-102073571D01*
X148272857Y-102073571D01*
X148130000Y-102145000D01*
X148058571Y-102216428D01*
X147987142Y-102359285D01*
X147987142Y-102573571D01*
X148058571Y-102716428D01*
X148130000Y-102787857D01*
X148272857Y-102859285D01*
X148844285Y-102859285D01*
X146844285Y-102787857D02*
X147344285Y-102787857D01*
X147344285Y-103573571D02*
X147344285Y-102073571D01*
X146630000Y-102073571D01*
X145344285Y-102073571D02*
X146058571Y-102073571D01*
X146130000Y-102787857D01*
X146058571Y-102716428D01*
X145915714Y-102645000D01*
X145558571Y-102645000D01*
X145415714Y-102716428D01*
X145344285Y-102787857D01*
X145272857Y-102930714D01*
X145272857Y-103287857D01*
X145344285Y-103430714D01*
X145415714Y-103502142D01*
X145558571Y-103573571D01*
X145915714Y-103573571D01*
X146058571Y-103502142D01*
X146130000Y-103430714D01*
X144701428Y-102216428D02*
X144630000Y-102145000D01*
X144487142Y-102073571D01*
X144130000Y-102073571D01*
X143987142Y-102145000D01*
X143915714Y-102216428D01*
X143844285Y-102359285D01*
X143844285Y-102502142D01*
X143915714Y-102716428D01*
X144772857Y-103573571D01*
X143844285Y-103573571D01*
X142987142Y-102716428D02*
X143130000Y-102645000D01*
X143201428Y-102573571D01*
X143272857Y-102430714D01*
X143272857Y-102359285D01*
X143201428Y-102216428D01*
X143130000Y-102145000D01*
X142987142Y-102073571D01*
X142701428Y-102073571D01*
X142558571Y-102145000D01*
X142487142Y-102216428D01*
X142415714Y-102359285D01*
X142415714Y-102430714D01*
X142487142Y-102573571D01*
X142558571Y-102645000D01*
X142701428Y-102716428D01*
X142987142Y-102716428D01*
X143130000Y-102787857D01*
X143201428Y-102859285D01*
X143272857Y-103002142D01*
X143272857Y-103287857D01*
X143201428Y-103430714D01*
X143130000Y-103502142D01*
X142987142Y-103573571D01*
X142701428Y-103573571D01*
X142558571Y-103502142D01*
X142487142Y-103430714D01*
X142415714Y-103287857D01*
X142415714Y-103002142D01*
X142487142Y-102859285D01*
X142558571Y-102787857D01*
X142701428Y-102716428D01*
X140987142Y-103573571D02*
X141844285Y-103573571D01*
X141415714Y-103573571D02*
X141415714Y-102073571D01*
X141558571Y-102287857D01*
X141701428Y-102430714D01*
X141844285Y-102502142D01*
X140058571Y-102073571D02*
X139915714Y-102073571D01*
X139772857Y-102145000D01*
X139701428Y-102216428D01*
X139630000Y-102359285D01*
X139558571Y-102645000D01*
X139558571Y-103002142D01*
X139630000Y-103287857D01*
X139701428Y-103430714D01*
X139772857Y-103502142D01*
X139915714Y-103573571D01*
X140058571Y-103573571D01*
X140201428Y-103502142D01*
X140272857Y-103430714D01*
X140344285Y-103287857D01*
X140415714Y-103002142D01*
X140415714Y-102645000D01*
X140344285Y-102359285D01*
X140272857Y-102216428D01*
X140201428Y-102145000D01*
X140058571Y-102073571D01*
X157094285Y-106123571D02*
X157094285Y-104623571D01*
X156737142Y-104623571D01*
X156522857Y-104695000D01*
X156380000Y-104837857D01*
X156308571Y-104980714D01*
X156237142Y-105266428D01*
X156237142Y-105480714D01*
X156308571Y-105766428D01*
X156380000Y-105909285D01*
X156522857Y-106052142D01*
X156737142Y-106123571D01*
X157094285Y-106123571D01*
X155594285Y-105337857D02*
X155094285Y-105337857D01*
X154880000Y-106123571D02*
X155594285Y-106123571D01*
X155594285Y-104623571D01*
X154880000Y-104623571D01*
X154451428Y-104623571D02*
X153951428Y-106123571D01*
X153451428Y-104623571D01*
X151308571Y-105337857D02*
X151094285Y-105409285D01*
X151022857Y-105480714D01*
X150951428Y-105623571D01*
X150951428Y-105837857D01*
X151022857Y-105980714D01*
X151094285Y-106052142D01*
X151237142Y-106123571D01*
X151808571Y-106123571D01*
X151808571Y-104623571D01*
X151308571Y-104623571D01*
X151165714Y-104695000D01*
X151094285Y-104766428D01*
X151022857Y-104909285D01*
X151022857Y-105052142D01*
X151094285Y-105195000D01*
X151165714Y-105266428D01*
X151308571Y-105337857D01*
X151808571Y-105337857D01*
X150022857Y-104623571D02*
X149737142Y-104623571D01*
X149594285Y-104695000D01*
X149451428Y-104837857D01*
X149380000Y-105123571D01*
X149380000Y-105623571D01*
X149451428Y-105909285D01*
X149594285Y-106052142D01*
X149737142Y-106123571D01*
X150022857Y-106123571D01*
X150165714Y-106052142D01*
X150308571Y-105909285D01*
X150380000Y-105623571D01*
X150380000Y-105123571D01*
X150308571Y-104837857D01*
X150165714Y-104695000D01*
X150022857Y-104623571D01*
X148808571Y-105695000D02*
X148094285Y-105695000D01*
X148951428Y-106123571D02*
X148451428Y-104623571D01*
X147951428Y-106123571D01*
X146594285Y-106123571D02*
X147094285Y-105409285D01*
X147451428Y-106123571D02*
X147451428Y-104623571D01*
X146880000Y-104623571D01*
X146737142Y-104695000D01*
X146665714Y-104766428D01*
X146594285Y-104909285D01*
X146594285Y-105123571D01*
X146665714Y-105266428D01*
X146737142Y-105337857D01*
X146880000Y-105409285D01*
X147451428Y-105409285D01*
X145951428Y-106123571D02*
X145951428Y-104623571D01*
X145594285Y-104623571D01*
X145380000Y-104695000D01*
X145237142Y-104837857D01*
X145165714Y-104980714D01*
X145094285Y-105266428D01*
X145094285Y-105480714D01*
X145165714Y-105766428D01*
X145237142Y-105909285D01*
X145380000Y-106052142D01*
X145594285Y-106123571D01*
X145951428Y-106123571D01*
D11*
G04 #@! TO.C,JP1*
X154035000Y-71675000D02*
G75*
G03X153335000Y-70975000I-700000J0D01*
G01*
X152735000Y-70975000D02*
G75*
G03X152035000Y-71675000I0J-700000D01*
G01*
X152035000Y-73075000D02*
G75*
G03X152735000Y-73775000I700000J0D01*
G01*
X153335000Y-73775000D02*
G75*
G03X154035000Y-73075000I0J700000D01*
G01*
X152735000Y-73775000D02*
X153335000Y-73775000D01*
X152035000Y-71675000D02*
X152035000Y-73075000D01*
X153335000Y-70975000D02*
X152735000Y-70975000D01*
X154035000Y-73075000D02*
X154035000Y-71675000D01*
D12*
X154287380Y-71541666D02*
X155001666Y-71541666D01*
X155144523Y-71494047D01*
X155239761Y-71398809D01*
X155287380Y-71255952D01*
X155287380Y-71160714D01*
X155287380Y-72017857D02*
X154287380Y-72017857D01*
X154287380Y-72398809D01*
X154335000Y-72494047D01*
X154382619Y-72541666D01*
X154477857Y-72589285D01*
X154620714Y-72589285D01*
X154715952Y-72541666D01*
X154763571Y-72494047D01*
X154811190Y-72398809D01*
X154811190Y-72017857D01*
X155287380Y-73541666D02*
X155287380Y-72970238D01*
X155287380Y-73255952D02*
X154287380Y-73255952D01*
X154430238Y-73160714D01*
X154525476Y-73065476D01*
X154573095Y-72970238D01*
G04 #@! TD*
M02*
