G04 #@! TF.GenerationSoftware,KiCad,Pcbnew,5.0.1*
G04 #@! TF.CreationDate,2019-01-03T14:35:23+01:00*
G04 #@! TF.ProjectId,e73-ab,6537332D61622E6B696361645F706362,rev?*
G04 #@! TF.SameCoordinates,Original*
G04 #@! TF.FileFunction,Copper,L2,Bot,Signal*
G04 #@! TF.FilePolarity,Positive*
%FSLAX46Y46*%
G04 Gerber Fmt 4.6, Leading zero omitted, Abs format (unit mm)*
G04 Created by KiCad (PCBNEW 5.0.1) date do 03 jan 2019 14:35:23 CET*
%MOMM*%
%LPD*%
G01*
G04 APERTURE LIST*
G04 #@! TA.AperFunction,ComponentPad*
%ADD10R,1.700000X1.700000*%
G04 #@! TD*
G04 #@! TA.AperFunction,ComponentPad*
%ADD11O,1.700000X1.700000*%
G04 #@! TD*
G04 #@! TA.AperFunction,SMDPad,CuDef*
%ADD12C,0.500000*%
G04 #@! TD*
G04 #@! TA.AperFunction,Conductor*
%ADD13C,0.100000*%
G04 #@! TD*
G04 #@! TA.AperFunction,ComponentPad*
%ADD14O,1.450000X2.000000*%
G04 #@! TD*
G04 #@! TA.AperFunction,ComponentPad*
%ADD15O,1.150000X1.800000*%
G04 #@! TD*
G04 #@! TA.AperFunction,ComponentPad*
%ADD16R,1.000000X1.000000*%
G04 #@! TD*
G04 #@! TA.AperFunction,ComponentPad*
%ADD17O,1.000000X1.000000*%
G04 #@! TD*
G04 #@! TA.AperFunction,ViaPad*
%ADD18C,0.800000*%
G04 #@! TD*
G04 #@! TA.AperFunction,Conductor*
%ADD19C,0.200000*%
G04 #@! TD*
G04 #@! TA.AperFunction,Conductor*
%ADD20C,0.254000*%
G04 #@! TD*
G04 APERTURE END LIST*
D10*
G04 #@! TO.P,J3,1*
G04 #@! TO.N,SWDIO*
X162560000Y-55880000D03*
D11*
G04 #@! TO.P,J3,2*
G04 #@! TO.N,GND*
X160020000Y-55880000D03*
G04 #@! TO.P,J3,3*
G04 #@! TO.N,SWDCLK*
X157480000Y-55880000D03*
G04 #@! TO.P,J3,4*
G04 #@! TO.N,VDD*
X154940000Y-55880000D03*
G04 #@! TO.P,J3,5*
G04 #@! TO.N,5V*
X152400000Y-55880000D03*
G04 #@! TD*
D12*
G04 #@! TO.P,JP1,1*
G04 #@! TO.N,21*
X153035000Y-73025000D03*
D13*
G04 #@! TD*
G04 #@! TO.N,21*
G04 #@! TO.C,JP1*
G36*
X152735000Y-72525000D02*
X152735000Y-72125000D01*
X153335000Y-72125000D01*
X153335000Y-72525000D01*
X153785000Y-72525000D01*
X153785000Y-73025000D01*
X153784398Y-73025000D01*
X153784398Y-73049534D01*
X153779588Y-73098365D01*
X153770016Y-73146490D01*
X153755772Y-73193445D01*
X153736995Y-73238778D01*
X153713864Y-73282051D01*
X153686604Y-73322850D01*
X153655476Y-73360779D01*
X153620779Y-73395476D01*
X153582850Y-73426604D01*
X153542051Y-73453864D01*
X153498778Y-73476995D01*
X153453445Y-73495772D01*
X153406490Y-73510016D01*
X153358365Y-73519588D01*
X153309534Y-73524398D01*
X153285000Y-73524398D01*
X153285000Y-73525000D01*
X152785000Y-73525000D01*
X152785000Y-73524398D01*
X152760466Y-73524398D01*
X152711635Y-73519588D01*
X152663510Y-73510016D01*
X152616555Y-73495772D01*
X152571222Y-73476995D01*
X152527949Y-73453864D01*
X152487150Y-73426604D01*
X152449221Y-73395476D01*
X152414524Y-73360779D01*
X152383396Y-73322850D01*
X152356136Y-73282051D01*
X152333005Y-73238778D01*
X152314228Y-73193445D01*
X152299984Y-73146490D01*
X152290412Y-73098365D01*
X152285602Y-73049534D01*
X152285602Y-73025000D01*
X152285000Y-73025000D01*
X152285000Y-72525000D01*
X152735000Y-72525000D01*
X152735000Y-72525000D01*
G37*
D12*
G04 #@! TO.P,JP1,2*
G04 #@! TO.N,!RST*
X153035000Y-71725000D03*
D13*
G04 #@! TD*
G04 #@! TO.N,!RST*
G04 #@! TO.C,JP1*
G36*
X152285602Y-71725000D02*
X152285602Y-71700466D01*
X152290412Y-71651635D01*
X152299984Y-71603510D01*
X152314228Y-71556555D01*
X152333005Y-71511222D01*
X152356136Y-71467949D01*
X152383396Y-71427150D01*
X152414524Y-71389221D01*
X152449221Y-71354524D01*
X152487150Y-71323396D01*
X152527949Y-71296136D01*
X152571222Y-71273005D01*
X152616555Y-71254228D01*
X152663510Y-71239984D01*
X152711635Y-71230412D01*
X152760466Y-71225602D01*
X152785000Y-71225602D01*
X152785000Y-71225000D01*
X153285000Y-71225000D01*
X153285000Y-71225602D01*
X153309534Y-71225602D01*
X153358365Y-71230412D01*
X153406490Y-71239984D01*
X153453445Y-71254228D01*
X153498778Y-71273005D01*
X153542051Y-71296136D01*
X153582850Y-71323396D01*
X153620779Y-71354524D01*
X153655476Y-71389221D01*
X153686604Y-71427150D01*
X153713864Y-71467949D01*
X153736995Y-71511222D01*
X153755772Y-71556555D01*
X153770016Y-71603510D01*
X153779588Y-71651635D01*
X153784398Y-71700466D01*
X153784398Y-71725000D01*
X153785000Y-71725000D01*
X153785000Y-72225000D01*
X152285000Y-72225000D01*
X152285000Y-71725000D01*
X152285602Y-71725000D01*
X152285602Y-71725000D01*
G37*
D14*
G04 #@! TO.P,J4,6*
G04 #@! TO.N,GND*
X148505000Y-56460000D03*
X141055000Y-56460000D03*
D15*
X148655000Y-52660000D03*
X140905000Y-52660000D03*
G04 #@! TD*
D11*
G04 #@! TO.P,J8,2*
G04 #@! TO.N,5V*
X139700000Y-63500000D03*
D10*
G04 #@! TO.P,J8,1*
X139700000Y-60960000D03*
G04 #@! TD*
G04 #@! TO.P,J7,1*
G04 #@! TO.N,VBAT*
X162560000Y-60960000D03*
D11*
G04 #@! TO.P,J7,2*
X162560000Y-63500000D03*
G04 #@! TD*
D10*
G04 #@! TO.P,J1,1*
G04 #@! TO.N,GND*
X165100000Y-55880000D03*
D11*
G04 #@! TO.P,J1,2*
X165100000Y-58420000D03*
G04 #@! TO.P,J1,3*
G04 #@! TO.N,VDD*
X165100000Y-60960000D03*
G04 #@! TO.P,J1,4*
X165100000Y-63500000D03*
G04 #@! TO.P,J1,5*
G04 #@! TO.N,Net-(J1-Pad5)*
X165100000Y-66040000D03*
G04 #@! TO.P,J1,6*
G04 #@! TO.N,9*
X165100000Y-68580000D03*
G04 #@! TO.P,J1,7*
G04 #@! TO.N,8*
X165100000Y-71120000D03*
G04 #@! TO.P,J1,8*
G04 #@! TO.N,7*
X165100000Y-73660000D03*
G04 #@! TO.P,J1,9*
G04 #@! TO.N,6*
X165100000Y-76200000D03*
G04 #@! TO.P,J1,10*
G04 #@! TO.N,5*
X165100000Y-78740000D03*
G04 #@! TO.P,J1,11*
G04 #@! TO.N,4*
X165100000Y-81280000D03*
G04 #@! TO.P,J1,12*
G04 #@! TO.N,3*
X165100000Y-83820000D03*
G04 #@! TO.P,J1,13*
G04 #@! TO.N,2*
X165100000Y-86360000D03*
G04 #@! TO.P,J1,14*
G04 #@! TO.N,31*
X165100000Y-88900000D03*
G04 #@! TO.P,J1,15*
G04 #@! TO.N,30*
X165100000Y-91440000D03*
G04 #@! TO.P,J1,16*
G04 #@! TO.N,29*
X165100000Y-93980000D03*
G04 #@! TO.P,J1,17*
G04 #@! TO.N,28*
X165100000Y-96520000D03*
G04 #@! TO.P,J1,18*
G04 #@! TO.N,27*
X165100000Y-99060000D03*
G04 #@! TO.P,J1,19*
G04 #@! TO.N,26*
X165100000Y-101600000D03*
G04 #@! TO.P,J1,20*
G04 #@! TO.N,25*
X165100000Y-104140000D03*
G04 #@! TD*
G04 #@! TO.P,J2,20*
G04 #@! TO.N,24*
X137160000Y-104140000D03*
G04 #@! TO.P,J2,19*
G04 #@! TO.N,23*
X137160000Y-101600000D03*
G04 #@! TO.P,J2,18*
G04 #@! TO.N,22*
X137160000Y-99060000D03*
G04 #@! TO.P,J2,17*
G04 #@! TO.N,21*
X137160000Y-96520000D03*
G04 #@! TO.P,J2,16*
G04 #@! TO.N,20*
X137160000Y-93980000D03*
G04 #@! TO.P,J2,15*
G04 #@! TO.N,19*
X137160000Y-91440000D03*
G04 #@! TO.P,J2,14*
G04 #@! TO.N,18*
X137160000Y-88900000D03*
G04 #@! TO.P,J2,13*
G04 #@! TO.N,17*
X137160000Y-86360000D03*
G04 #@! TO.P,J2,12*
G04 #@! TO.N,16*
X137160000Y-83820000D03*
G04 #@! TO.P,J2,11*
G04 #@! TO.N,15*
X137160000Y-81280000D03*
G04 #@! TO.P,J2,10*
G04 #@! TO.N,14*
X137160000Y-78740000D03*
G04 #@! TO.P,J2,9*
G04 #@! TO.N,13*
X137160000Y-76200000D03*
G04 #@! TO.P,J2,8*
G04 #@! TO.N,12*
X137160000Y-73660000D03*
G04 #@! TO.P,J2,7*
G04 #@! TO.N,11*
X137160000Y-71120000D03*
G04 #@! TO.P,J2,6*
G04 #@! TO.N,10*
X137160000Y-68580000D03*
G04 #@! TO.P,J2,5*
G04 #@! TO.N,Net-(J2-Pad5)*
X137160000Y-66040000D03*
G04 #@! TO.P,J2,4*
G04 #@! TO.N,VDD*
X137160000Y-63500000D03*
G04 #@! TO.P,J2,3*
X137160000Y-60960000D03*
G04 #@! TO.P,J2,2*
G04 #@! TO.N,GND*
X137160000Y-58420000D03*
D10*
G04 #@! TO.P,J2,1*
X137160000Y-55880000D03*
G04 #@! TD*
D16*
G04 #@! TO.P,J6,1*
G04 #@! TO.N,VDD*
X153670000Y-60960000D03*
D17*
G04 #@! TO.P,J6,2*
G04 #@! TO.N,SWDIO*
X153670000Y-59690000D03*
G04 #@! TO.P,J6,3*
G04 #@! TO.N,GND*
X154940000Y-60960000D03*
G04 #@! TO.P,J6,4*
G04 #@! TO.N,SWDCLK*
X154940000Y-59690000D03*
G04 #@! TO.P,J6,5*
G04 #@! TO.N,GND*
X156210000Y-60960000D03*
G04 #@! TO.P,J6,6*
G04 #@! TO.N,18*
X156210000Y-59690000D03*
G04 #@! TO.P,J6,7*
G04 #@! TO.N,Net-(J6-Pad7)*
X157480000Y-60960000D03*
G04 #@! TO.P,J6,8*
G04 #@! TO.N,Net-(J6-Pad8)*
X157480000Y-59690000D03*
G04 #@! TO.P,J6,9*
G04 #@! TO.N,GND*
X158750000Y-60960000D03*
G04 #@! TO.P,J6,10*
G04 #@! TO.N,!RST*
X158750000Y-59690000D03*
G04 #@! TD*
D18*
G04 #@! TO.N,VDD*
X157988000Y-86360000D03*
G04 #@! TO.N,GND*
X153035000Y-66040000D03*
X147828000Y-64262000D03*
G04 #@! TO.N,9*
X147828000Y-86360000D03*
G04 #@! TO.N,31*
X159740600Y-93192600D03*
G04 #@! TO.N,!RST*
X160274000Y-69088000D03*
X153035000Y-69088000D03*
X144780000Y-72390000D03*
X153035000Y-71374000D03*
G04 #@! TO.N,21*
X145830001Y-95179999D03*
G04 #@! TO.N,VBAT*
X142875000Y-62230000D03*
G04 #@! TD*
D19*
G04 #@! TO.N,VDD*
X165100000Y-62297919D02*
X165100000Y-60960000D01*
X165100000Y-63500000D02*
X165100000Y-62297919D01*
X165949999Y-60110001D02*
X165100000Y-60960000D01*
X166250001Y-59809999D02*
X165949999Y-60110001D01*
X166250001Y-54789999D02*
X166250001Y-59809999D01*
X165308002Y-53848000D02*
X166250001Y-54789999D01*
X137160000Y-62297919D02*
X137160000Y-60960000D01*
X137160000Y-63500000D02*
X137160000Y-62297919D01*
X152970000Y-60960000D02*
X153670000Y-60960000D01*
X152400000Y-60390000D02*
X152970000Y-60960000D01*
X165949999Y-64349999D02*
X165100000Y-63500000D01*
X166250001Y-64650001D02*
X165949999Y-64349999D01*
X166250001Y-79292001D02*
X166250001Y-64650001D01*
X165412003Y-80129999D02*
X166250001Y-79292001D01*
X164218001Y-80129999D02*
X165412003Y-80129999D01*
X157988000Y-86360000D02*
X164218001Y-80129999D01*
X156972000Y-53848000D02*
X157480000Y-53848000D01*
X154940000Y-55880000D02*
X156972000Y-53848000D01*
X157480000Y-53848000D02*
X165308002Y-53848000D01*
X136009999Y-62349999D02*
X137160000Y-63500000D01*
X136009999Y-54789999D02*
X136009999Y-62349999D01*
X139340008Y-51459990D02*
X136009999Y-54789999D01*
X154940000Y-55880000D02*
X150519990Y-51459990D01*
X150519990Y-51459990D02*
X139340008Y-51459990D01*
X152400000Y-58420000D02*
X154940000Y-55880000D01*
X152400000Y-60390000D02*
X152400000Y-58420000D01*
G04 #@! TO.N,GND*
X165100000Y-57217919D02*
X165100000Y-55880000D01*
X165100000Y-58420000D02*
X165100000Y-57217919D01*
X140905000Y-52985000D02*
X138010000Y-55880000D01*
X138010000Y-55880000D02*
X137160000Y-55880000D01*
X140905000Y-52660000D02*
X140905000Y-52985000D01*
X137160000Y-56930000D02*
X137160000Y-58420000D01*
X137160000Y-55880000D02*
X137160000Y-56930000D01*
X153035000Y-64135000D02*
X153035000Y-66040000D01*
X156210000Y-60960000D02*
X153035000Y-64135000D01*
X148505000Y-52810000D02*
X148655000Y-52660000D01*
X148505000Y-56460000D02*
X148505000Y-52810000D01*
G04 #@! TO.N,SWDIO*
X160600001Y-58889999D02*
X162560000Y-56930000D01*
X162560000Y-56930000D02*
X162560000Y-55880000D01*
X154470001Y-58889999D02*
X160600001Y-58889999D01*
X153670000Y-59690000D02*
X154470001Y-58889999D01*
G04 #@! TO.N,9*
X165100000Y-69088000D02*
X165100000Y-68580000D01*
X147828000Y-86360000D02*
X165100000Y-69088000D01*
G04 #@! TO.N,31*
X165949999Y-89749999D02*
X165100000Y-88900000D01*
X166250001Y-90050001D02*
X165949999Y-89749999D01*
X166250001Y-94532001D02*
X166250001Y-90050001D01*
X165652001Y-95130001D02*
X166250001Y-94532001D01*
X161678001Y-95130001D02*
X165652001Y-95130001D01*
X159740600Y-93192600D02*
X161678001Y-95130001D01*
G04 #@! TO.N,!RST*
X160274000Y-69088000D02*
X153035000Y-69088000D01*
X160274000Y-61214000D02*
X158750000Y-59690000D01*
X160274000Y-69088000D02*
X160274000Y-61214000D01*
X144780000Y-72390000D02*
X145445000Y-71725000D01*
X145445000Y-71725000D02*
X153035000Y-71725000D01*
G04 #@! TO.N,21*
X145830001Y-80229999D02*
X145830001Y-95179999D01*
X153035000Y-73025000D02*
X145830001Y-80229999D01*
G04 #@! TO.N,VBAT*
X162560000Y-67838002D02*
X162560000Y-64702081D01*
X162560000Y-64702081D02*
X162560000Y-63500000D01*
X162560000Y-63500000D02*
X162560000Y-60960000D01*
X160610001Y-69788001D02*
X162560000Y-67838002D01*
X142875000Y-62230000D02*
X150433001Y-69788001D01*
X150433001Y-69788001D02*
X160610001Y-69788001D01*
G04 #@! TD*
D20*
G04 #@! TO.N,GND*
G36*
X136355000Y-53405552D02*
X136355000Y-52994887D01*
X136090862Y-52357201D01*
X135602799Y-51869138D01*
X134965113Y-51605000D01*
X134274887Y-51605000D01*
X133637201Y-51869138D01*
X133149138Y-52357201D01*
X132885000Y-52994887D01*
X132885000Y-53685113D01*
X133149138Y-54322799D01*
X133637201Y-54810862D01*
X134274887Y-55075000D01*
X134965113Y-55075000D01*
X135274999Y-54946641D01*
X135275000Y-62277610D01*
X135260601Y-62349999D01*
X135317645Y-62636781D01*
X135317646Y-62636782D01*
X135480095Y-62879904D01*
X135541462Y-62920908D01*
X135724657Y-63104103D01*
X135645908Y-63500000D01*
X135761161Y-64079418D01*
X136089375Y-64570625D01*
X136387761Y-64770000D01*
X136089375Y-64969375D01*
X135761161Y-65460582D01*
X135645908Y-66040000D01*
X135761161Y-66619418D01*
X136089375Y-67110625D01*
X136387761Y-67310000D01*
X136089375Y-67509375D01*
X135761161Y-68000582D01*
X135645908Y-68580000D01*
X135761161Y-69159418D01*
X136089375Y-69650625D01*
X136387761Y-69850000D01*
X136089375Y-70049375D01*
X135761161Y-70540582D01*
X135645908Y-71120000D01*
X135761161Y-71699418D01*
X136089375Y-72190625D01*
X136387761Y-72390000D01*
X136089375Y-72589375D01*
X135761161Y-73080582D01*
X135645908Y-73660000D01*
X135761161Y-74239418D01*
X136089375Y-74730625D01*
X136387761Y-74930000D01*
X136089375Y-75129375D01*
X135761161Y-75620582D01*
X135645908Y-76200000D01*
X135761161Y-76779418D01*
X136089375Y-77270625D01*
X136387761Y-77470000D01*
X136089375Y-77669375D01*
X135761161Y-78160582D01*
X135645908Y-78740000D01*
X135761161Y-79319418D01*
X136089375Y-79810625D01*
X136387761Y-80010000D01*
X136089375Y-80209375D01*
X135761161Y-80700582D01*
X135645908Y-81280000D01*
X135761161Y-81859418D01*
X136089375Y-82350625D01*
X136387761Y-82550000D01*
X136089375Y-82749375D01*
X135761161Y-83240582D01*
X135645908Y-83820000D01*
X135761161Y-84399418D01*
X136089375Y-84890625D01*
X136387761Y-85090000D01*
X136089375Y-85289375D01*
X135761161Y-85780582D01*
X135645908Y-86360000D01*
X135761161Y-86939418D01*
X136089375Y-87430625D01*
X136387761Y-87630000D01*
X136089375Y-87829375D01*
X135761161Y-88320582D01*
X135645908Y-88900000D01*
X135761161Y-89479418D01*
X136089375Y-89970625D01*
X136387761Y-90170000D01*
X136089375Y-90369375D01*
X135761161Y-90860582D01*
X135645908Y-91440000D01*
X135761161Y-92019418D01*
X136089375Y-92510625D01*
X136387761Y-92710000D01*
X136089375Y-92909375D01*
X135761161Y-93400582D01*
X135645908Y-93980000D01*
X135761161Y-94559418D01*
X136089375Y-95050625D01*
X136387761Y-95250000D01*
X136089375Y-95449375D01*
X135761161Y-95940582D01*
X135645908Y-96520000D01*
X135761161Y-97099418D01*
X136089375Y-97590625D01*
X136387761Y-97790000D01*
X136089375Y-97989375D01*
X135761161Y-98480582D01*
X135645908Y-99060000D01*
X135761161Y-99639418D01*
X136089375Y-100130625D01*
X136387761Y-100330000D01*
X136089375Y-100529375D01*
X135761161Y-101020582D01*
X135645908Y-101600000D01*
X135761161Y-102179418D01*
X136089375Y-102670625D01*
X136387761Y-102870000D01*
X136089375Y-103069375D01*
X135761161Y-103560582D01*
X135645908Y-104140000D01*
X135761161Y-104719418D01*
X136089375Y-105210625D01*
X136580582Y-105538839D01*
X137013744Y-105625000D01*
X137306256Y-105625000D01*
X137739418Y-105538839D01*
X138230625Y-105210625D01*
X138558839Y-104719418D01*
X138674092Y-104140000D01*
X138558839Y-103560582D01*
X138230625Y-103069375D01*
X137932239Y-102870000D01*
X138230625Y-102670625D01*
X138558839Y-102179418D01*
X138674092Y-101600000D01*
X138558839Y-101020582D01*
X138230625Y-100529375D01*
X137932239Y-100330000D01*
X138230625Y-100130625D01*
X138558839Y-99639418D01*
X138674092Y-99060000D01*
X138558839Y-98480582D01*
X138230625Y-97989375D01*
X137932239Y-97790000D01*
X138230625Y-97590625D01*
X138558839Y-97099418D01*
X138674092Y-96520000D01*
X138558839Y-95940582D01*
X138230625Y-95449375D01*
X137932239Y-95250000D01*
X138230625Y-95050625D01*
X138558839Y-94559418D01*
X138674092Y-93980000D01*
X138558839Y-93400582D01*
X138230625Y-92909375D01*
X137932239Y-92710000D01*
X138230625Y-92510625D01*
X138558839Y-92019418D01*
X138674092Y-91440000D01*
X138558839Y-90860582D01*
X138230625Y-90369375D01*
X137932239Y-90170000D01*
X138230625Y-89970625D01*
X138558839Y-89479418D01*
X138674092Y-88900000D01*
X138558839Y-88320582D01*
X138230625Y-87829375D01*
X137932239Y-87630000D01*
X138230625Y-87430625D01*
X138558839Y-86939418D01*
X138674092Y-86360000D01*
X138558839Y-85780582D01*
X138230625Y-85289375D01*
X137932239Y-85090000D01*
X138230625Y-84890625D01*
X138558839Y-84399418D01*
X138674092Y-83820000D01*
X138558839Y-83240582D01*
X138230625Y-82749375D01*
X137932239Y-82550000D01*
X138230625Y-82350625D01*
X138558839Y-81859418D01*
X138674092Y-81280000D01*
X138558839Y-80700582D01*
X138230625Y-80209375D01*
X137932239Y-80010000D01*
X138230625Y-79810625D01*
X138558839Y-79319418D01*
X138674092Y-78740000D01*
X138558839Y-78160582D01*
X138230625Y-77669375D01*
X137932239Y-77470000D01*
X138230625Y-77270625D01*
X138558839Y-76779418D01*
X138674092Y-76200000D01*
X138558839Y-75620582D01*
X138230625Y-75129375D01*
X137932239Y-74930000D01*
X138230625Y-74730625D01*
X138558839Y-74239418D01*
X138674092Y-73660000D01*
X138558839Y-73080582D01*
X138230625Y-72589375D01*
X137932239Y-72390000D01*
X138230625Y-72190625D01*
X138558839Y-71699418D01*
X138674092Y-71120000D01*
X138558839Y-70540582D01*
X138230625Y-70049375D01*
X137932239Y-69850000D01*
X138230625Y-69650625D01*
X138558839Y-69159418D01*
X138674092Y-68580000D01*
X138558839Y-68000582D01*
X138230625Y-67509375D01*
X137932239Y-67310000D01*
X138230625Y-67110625D01*
X138558839Y-66619418D01*
X138674092Y-66040000D01*
X138558839Y-65460582D01*
X138230625Y-64969375D01*
X137932239Y-64770000D01*
X138230625Y-64570625D01*
X138430000Y-64272239D01*
X138629375Y-64570625D01*
X139120582Y-64898839D01*
X139553744Y-64985000D01*
X139846256Y-64985000D01*
X140279418Y-64898839D01*
X140770625Y-64570625D01*
X141098839Y-64079418D01*
X141214092Y-63500000D01*
X141098839Y-62920582D01*
X140770625Y-62429375D01*
X140752381Y-62417184D01*
X140797765Y-62408157D01*
X141007809Y-62267809D01*
X141148157Y-62057765D01*
X141197440Y-61810000D01*
X141197440Y-60110000D01*
X141148157Y-59862235D01*
X141007809Y-59652191D01*
X140797765Y-59511843D01*
X140550000Y-59462560D01*
X138850000Y-59462560D01*
X138602235Y-59511843D01*
X138392191Y-59652191D01*
X138251843Y-59862235D01*
X138242816Y-59907619D01*
X138230625Y-59889375D01*
X137911522Y-59676157D01*
X138041358Y-59615183D01*
X138431645Y-59186924D01*
X138601476Y-58776890D01*
X138480155Y-58547000D01*
X137287000Y-58547000D01*
X137287000Y-58567000D01*
X137033000Y-58567000D01*
X137033000Y-58547000D01*
X137013000Y-58547000D01*
X137013000Y-58293000D01*
X137033000Y-58293000D01*
X137033000Y-56007000D01*
X137287000Y-56007000D01*
X137287000Y-58293000D01*
X138480155Y-58293000D01*
X138601476Y-58063110D01*
X138431645Y-57653076D01*
X138160122Y-57355136D01*
X138369698Y-57268327D01*
X138548327Y-57089699D01*
X138645000Y-56856310D01*
X138645000Y-56587000D01*
X139695000Y-56587000D01*
X139695000Y-56862000D01*
X139847125Y-57372782D01*
X140183138Y-57786467D01*
X140651884Y-58040076D01*
X140717742Y-58052519D01*
X140928000Y-57929518D01*
X140928000Y-56587000D01*
X141182000Y-56587000D01*
X141182000Y-57929518D01*
X141392258Y-58052519D01*
X141458116Y-58040076D01*
X141926862Y-57786467D01*
X142262875Y-57372782D01*
X142415000Y-56862000D01*
X142415000Y-56587000D01*
X147145000Y-56587000D01*
X147145000Y-56862000D01*
X147297125Y-57372782D01*
X147633138Y-57786467D01*
X148101884Y-58040076D01*
X148167742Y-58052519D01*
X148378000Y-57929518D01*
X148378000Y-56587000D01*
X148632000Y-56587000D01*
X148632000Y-57929518D01*
X148842258Y-58052519D01*
X148908116Y-58040076D01*
X149376862Y-57786467D01*
X149712875Y-57372782D01*
X149865000Y-56862000D01*
X149865000Y-56587000D01*
X148632000Y-56587000D01*
X148378000Y-56587000D01*
X147145000Y-56587000D01*
X142415000Y-56587000D01*
X141182000Y-56587000D01*
X140928000Y-56587000D01*
X139695000Y-56587000D01*
X138645000Y-56587000D01*
X138645000Y-56165750D01*
X138537250Y-56058000D01*
X139695000Y-56058000D01*
X139695000Y-56333000D01*
X140928000Y-56333000D01*
X140928000Y-54990482D01*
X141182000Y-54990482D01*
X141182000Y-56333000D01*
X141798417Y-56333000D01*
X141876163Y-56384948D01*
X142178065Y-56445000D01*
X142381935Y-56445000D01*
X142683837Y-56384948D01*
X143026193Y-56156193D01*
X143254948Y-55813837D01*
X143335276Y-55410000D01*
X146224724Y-55410000D01*
X146305052Y-55813837D01*
X146533807Y-56156193D01*
X146876163Y-56384948D01*
X147178065Y-56445000D01*
X147381935Y-56445000D01*
X147683837Y-56384948D01*
X147761583Y-56333000D01*
X148378000Y-56333000D01*
X148378000Y-54990482D01*
X148632000Y-54990482D01*
X148632000Y-56333000D01*
X149865000Y-56333000D01*
X149865000Y-56058000D01*
X149712875Y-55547218D01*
X149376862Y-55133533D01*
X148908116Y-54879924D01*
X148842258Y-54867481D01*
X148632000Y-54990482D01*
X148378000Y-54990482D01*
X148167742Y-54867481D01*
X148162895Y-54868397D01*
X148026193Y-54663807D01*
X147683837Y-54435052D01*
X147381935Y-54375000D01*
X147178065Y-54375000D01*
X146876163Y-54435052D01*
X146533807Y-54663807D01*
X146305052Y-55006163D01*
X146224724Y-55410000D01*
X143335276Y-55410000D01*
X143254948Y-55006163D01*
X143026193Y-54663807D01*
X142683837Y-54435052D01*
X142381935Y-54375000D01*
X142178065Y-54375000D01*
X141876163Y-54435052D01*
X141533807Y-54663807D01*
X141397105Y-54868397D01*
X141392258Y-54867481D01*
X141182000Y-54990482D01*
X140928000Y-54990482D01*
X140717742Y-54867481D01*
X140651884Y-54879924D01*
X140183138Y-55133533D01*
X139847125Y-55547218D01*
X139695000Y-56058000D01*
X138537250Y-56058000D01*
X138486250Y-56007000D01*
X137287000Y-56007000D01*
X137033000Y-56007000D01*
X137013000Y-56007000D01*
X137013000Y-55753000D01*
X137033000Y-55753000D01*
X137033000Y-55733000D01*
X137287000Y-55733000D01*
X137287000Y-55753000D01*
X138486250Y-55753000D01*
X138645000Y-55594250D01*
X138645000Y-54903690D01*
X138548327Y-54670301D01*
X138369698Y-54491673D01*
X138136309Y-54395000D01*
X137445750Y-54395000D01*
X137287002Y-54553748D01*
X137287002Y-54552442D01*
X139052444Y-52787000D01*
X139695000Y-52787000D01*
X139695000Y-53112000D01*
X139835707Y-53565380D01*
X140139204Y-53930402D01*
X140559286Y-54151495D01*
X140591323Y-54153635D01*
X140778000Y-54028550D01*
X140778000Y-52787000D01*
X141032000Y-52787000D01*
X141032000Y-54028550D01*
X141218677Y-54153635D01*
X141250714Y-54151495D01*
X141670796Y-53930402D01*
X141974293Y-53565380D01*
X142115000Y-53112000D01*
X142115000Y-52787000D01*
X147445000Y-52787000D01*
X147445000Y-53112000D01*
X147585707Y-53565380D01*
X147889204Y-53930402D01*
X148309286Y-54151495D01*
X148341323Y-54153635D01*
X148528000Y-54028550D01*
X148528000Y-52787000D01*
X148782000Y-52787000D01*
X148782000Y-54028550D01*
X148968677Y-54153635D01*
X149000714Y-54151495D01*
X149420796Y-53930402D01*
X149724293Y-53565380D01*
X149865000Y-53112000D01*
X149865000Y-52787000D01*
X148782000Y-52787000D01*
X148528000Y-52787000D01*
X147445000Y-52787000D01*
X142115000Y-52787000D01*
X141032000Y-52787000D01*
X140778000Y-52787000D01*
X139695000Y-52787000D01*
X139052444Y-52787000D01*
X139644455Y-52194990D01*
X139699038Y-52194990D01*
X139695000Y-52208000D01*
X139695000Y-52533000D01*
X140778000Y-52533000D01*
X140778000Y-52513000D01*
X141032000Y-52513000D01*
X141032000Y-52533000D01*
X142115000Y-52533000D01*
X142115000Y-52208000D01*
X142110962Y-52194990D01*
X147449038Y-52194990D01*
X147445000Y-52208000D01*
X147445000Y-52533000D01*
X148528000Y-52533000D01*
X148528000Y-52513000D01*
X148782000Y-52513000D01*
X148782000Y-52533000D01*
X149865000Y-52533000D01*
X149865000Y-52208000D01*
X149860962Y-52194990D01*
X150215544Y-52194990D01*
X152415553Y-54395000D01*
X152253744Y-54395000D01*
X151820582Y-54481161D01*
X151329375Y-54809375D01*
X151001161Y-55300582D01*
X150885908Y-55880000D01*
X151001161Y-56459418D01*
X151329375Y-56950625D01*
X151820582Y-57278839D01*
X152253744Y-57365000D01*
X152415554Y-57365000D01*
X151931463Y-57849091D01*
X151870096Y-57890095D01*
X151829092Y-57951462D01*
X151829091Y-57951463D01*
X151707646Y-58133218D01*
X151650602Y-58420000D01*
X151665001Y-58492389D01*
X151665000Y-60317615D01*
X151650602Y-60390000D01*
X151665000Y-60462384D01*
X151665000Y-60462387D01*
X151707646Y-60676782D01*
X151870095Y-60919905D01*
X151931465Y-60960911D01*
X152399090Y-61428537D01*
X152440095Y-61489905D01*
X152542060Y-61558036D01*
X152571843Y-61707765D01*
X152712191Y-61917809D01*
X152922235Y-62058157D01*
X153170000Y-62107440D01*
X154170000Y-62107440D01*
X154417765Y-62058157D01*
X154505817Y-61999322D01*
X154638126Y-62054119D01*
X154813000Y-61927954D01*
X154813000Y-61482322D01*
X154817440Y-61460000D01*
X154817440Y-61087000D01*
X155067000Y-61087000D01*
X155067000Y-61927954D01*
X155241874Y-62054119D01*
X155500209Y-61947127D01*
X155575000Y-61882511D01*
X155649791Y-61947127D01*
X155908126Y-62054119D01*
X156083000Y-61927954D01*
X156083000Y-61087000D01*
X155067000Y-61087000D01*
X154817440Y-61087000D01*
X154817440Y-60822856D01*
X154828217Y-60825000D01*
X155051783Y-60825000D01*
X155067000Y-60821973D01*
X155067000Y-60833000D01*
X156083000Y-60833000D01*
X156083000Y-60821973D01*
X156098217Y-60825000D01*
X156321783Y-60825000D01*
X156337000Y-60821973D01*
X156337000Y-60833000D01*
X156348027Y-60833000D01*
X156322765Y-60960000D01*
X156348027Y-61087000D01*
X156337000Y-61087000D01*
X156337000Y-61927954D01*
X156511874Y-62054119D01*
X156770209Y-61947127D01*
X156833090Y-61892801D01*
X157037145Y-62029146D01*
X157368217Y-62095000D01*
X157591783Y-62095000D01*
X157922855Y-62029146D01*
X158126910Y-61892801D01*
X158189791Y-61947127D01*
X158448126Y-62054119D01*
X158623000Y-61927954D01*
X158623000Y-61087000D01*
X158611973Y-61087000D01*
X158637235Y-60960000D01*
X158611973Y-60833000D01*
X158623000Y-60833000D01*
X158623000Y-60821973D01*
X158638217Y-60825000D01*
X158845554Y-60825000D01*
X158897000Y-60876446D01*
X158897000Y-61087000D01*
X158877000Y-61087000D01*
X158877000Y-61927954D01*
X159051874Y-62054119D01*
X159310209Y-61947127D01*
X159539001Y-61749461D01*
X159539000Y-68353000D01*
X153763711Y-68353000D01*
X153621280Y-68210569D01*
X153240874Y-68053000D01*
X152829126Y-68053000D01*
X152448720Y-68210569D01*
X152157569Y-68501720D01*
X152000000Y-68882126D01*
X152000000Y-69053001D01*
X150737448Y-69053001D01*
X143910000Y-62225554D01*
X143910000Y-62024126D01*
X143752431Y-61643720D01*
X143461280Y-61352569D01*
X143080874Y-61195000D01*
X142669126Y-61195000D01*
X142288720Y-61352569D01*
X141997569Y-61643720D01*
X141840000Y-62024126D01*
X141840000Y-62435874D01*
X141997569Y-62816280D01*
X142288720Y-63107431D01*
X142669126Y-63265000D01*
X142870554Y-63265000D01*
X149862092Y-70256539D01*
X149903096Y-70317906D01*
X150146218Y-70480355D01*
X150360613Y-70523001D01*
X150433001Y-70537400D01*
X150505389Y-70523001D01*
X152422288Y-70523001D01*
X152211028Y-70734261D01*
X152189603Y-70745713D01*
X152108104Y-70800169D01*
X152009994Y-70880686D01*
X151940686Y-70949994D01*
X151907854Y-70990000D01*
X145517383Y-70990000D01*
X145444999Y-70975602D01*
X145372615Y-70990000D01*
X145372612Y-70990000D01*
X145158217Y-71032646D01*
X144915095Y-71195095D01*
X144874090Y-71256463D01*
X144775553Y-71355000D01*
X144574126Y-71355000D01*
X144193720Y-71512569D01*
X143902569Y-71803720D01*
X143745000Y-72184126D01*
X143745000Y-72595874D01*
X143902569Y-72976280D01*
X144193720Y-73267431D01*
X144574126Y-73425000D01*
X144985874Y-73425000D01*
X145366280Y-73267431D01*
X145657431Y-72976280D01*
X145815000Y-72595874D01*
X145815000Y-72460000D01*
X151650489Y-72460000D01*
X151637560Y-72525000D01*
X151637560Y-73025000D01*
X151639968Y-73037106D01*
X151639968Y-73074009D01*
X151652408Y-73200318D01*
X151671530Y-73296451D01*
X151683766Y-73336787D01*
X145361466Y-79659088D01*
X145300096Y-79700094D01*
X145137647Y-79943217D01*
X145095001Y-80157612D01*
X145095001Y-80157615D01*
X145080603Y-80229999D01*
X145095001Y-80302383D01*
X145095002Y-94451287D01*
X144952570Y-94593719D01*
X144795001Y-94974125D01*
X144795001Y-95385873D01*
X144952570Y-95766279D01*
X145243721Y-96057430D01*
X145624127Y-96214999D01*
X146035875Y-96214999D01*
X146416281Y-96057430D01*
X146707432Y-95766279D01*
X146865001Y-95385873D01*
X146865001Y-94974125D01*
X146707432Y-94593719D01*
X146565001Y-94451288D01*
X146565001Y-80534445D01*
X152927007Y-74172440D01*
X153285000Y-74172440D01*
X153297106Y-74170032D01*
X153334009Y-74170032D01*
X153460318Y-74157592D01*
X153556451Y-74138470D01*
X153677904Y-74101628D01*
X153768460Y-74064119D01*
X153880397Y-74004287D01*
X153961896Y-73949831D01*
X154060006Y-73869314D01*
X154129314Y-73800006D01*
X154209831Y-73701896D01*
X154264287Y-73620397D01*
X154324119Y-73508460D01*
X154361628Y-73417904D01*
X154398470Y-73296451D01*
X154417592Y-73200318D01*
X154430032Y-73074009D01*
X154430032Y-73037106D01*
X154432440Y-73025000D01*
X154432440Y-72525000D01*
X154402603Y-72375000D01*
X154432440Y-72225000D01*
X154432440Y-71725000D01*
X154430032Y-71712894D01*
X154430032Y-71675991D01*
X154417592Y-71549682D01*
X154398470Y-71453549D01*
X154361628Y-71332096D01*
X154324119Y-71241540D01*
X154264287Y-71129603D01*
X154209831Y-71048104D01*
X154129314Y-70949994D01*
X154060006Y-70880686D01*
X153961896Y-70800169D01*
X153880397Y-70745713D01*
X153858972Y-70734261D01*
X153647712Y-70523001D01*
X160537617Y-70523001D01*
X160610001Y-70537399D01*
X160682385Y-70523001D01*
X160682389Y-70523001D01*
X160896784Y-70480355D01*
X161139906Y-70317906D01*
X161180912Y-70256536D01*
X163028538Y-68408911D01*
X163089905Y-68367907D01*
X163252354Y-68124785D01*
X163295000Y-67910390D01*
X163295000Y-67910387D01*
X163309398Y-67838003D01*
X163295000Y-67765619D01*
X163295000Y-64794882D01*
X163630625Y-64570625D01*
X163830000Y-64272239D01*
X164029375Y-64570625D01*
X164327761Y-64770000D01*
X164029375Y-64969375D01*
X163701161Y-65460582D01*
X163585908Y-66040000D01*
X163701161Y-66619418D01*
X164029375Y-67110625D01*
X164327761Y-67310000D01*
X164029375Y-67509375D01*
X163701161Y-68000582D01*
X163585908Y-68580000D01*
X163701161Y-69159418D01*
X163816507Y-69332046D01*
X147823554Y-85325000D01*
X147622126Y-85325000D01*
X147241720Y-85482569D01*
X146950569Y-85773720D01*
X146793000Y-86154126D01*
X146793000Y-86565874D01*
X146950569Y-86946280D01*
X147241720Y-87237431D01*
X147622126Y-87395000D01*
X148033874Y-87395000D01*
X148414280Y-87237431D01*
X148705431Y-86946280D01*
X148863000Y-86565874D01*
X148863000Y-86364446D01*
X163672437Y-71555010D01*
X163701161Y-71699418D01*
X164029375Y-72190625D01*
X164327761Y-72390000D01*
X164029375Y-72589375D01*
X163701161Y-73080582D01*
X163585908Y-73660000D01*
X163701161Y-74239418D01*
X164029375Y-74730625D01*
X164327761Y-74930000D01*
X164029375Y-75129375D01*
X163701161Y-75620582D01*
X163585908Y-76200000D01*
X163701161Y-76779418D01*
X164029375Y-77270625D01*
X164327761Y-77470000D01*
X164029375Y-77669375D01*
X163701161Y-78160582D01*
X163585908Y-78740000D01*
X163701161Y-79319418D01*
X163826784Y-79507426D01*
X163688096Y-79600094D01*
X163647092Y-79661461D01*
X157983554Y-85325000D01*
X157782126Y-85325000D01*
X157401720Y-85482569D01*
X157110569Y-85773720D01*
X156953000Y-86154126D01*
X156953000Y-86565874D01*
X157110569Y-86946280D01*
X157401720Y-87237431D01*
X157782126Y-87395000D01*
X158193874Y-87395000D01*
X158574280Y-87237431D01*
X158865431Y-86946280D01*
X159023000Y-86565874D01*
X159023000Y-86364446D01*
X163672437Y-81715010D01*
X163701161Y-81859418D01*
X164029375Y-82350625D01*
X164327761Y-82550000D01*
X164029375Y-82749375D01*
X163701161Y-83240582D01*
X163585908Y-83820000D01*
X163701161Y-84399418D01*
X164029375Y-84890625D01*
X164327761Y-85090000D01*
X164029375Y-85289375D01*
X163701161Y-85780582D01*
X163585908Y-86360000D01*
X163701161Y-86939418D01*
X164029375Y-87430625D01*
X164327761Y-87630000D01*
X164029375Y-87829375D01*
X163701161Y-88320582D01*
X163585908Y-88900000D01*
X163701161Y-89479418D01*
X164029375Y-89970625D01*
X164327761Y-90170000D01*
X164029375Y-90369375D01*
X163701161Y-90860582D01*
X163585908Y-91440000D01*
X163701161Y-92019418D01*
X164029375Y-92510625D01*
X164327761Y-92710000D01*
X164029375Y-92909375D01*
X163701161Y-93400582D01*
X163585908Y-93980000D01*
X163668457Y-94395001D01*
X161982448Y-94395001D01*
X160775600Y-93188154D01*
X160775600Y-92986726D01*
X160618031Y-92606320D01*
X160326880Y-92315169D01*
X159946474Y-92157600D01*
X159534726Y-92157600D01*
X159154320Y-92315169D01*
X158863169Y-92606320D01*
X158705600Y-92986726D01*
X158705600Y-93398474D01*
X158863169Y-93778880D01*
X159154320Y-94070031D01*
X159534726Y-94227600D01*
X159736154Y-94227600D01*
X161107091Y-95598538D01*
X161148096Y-95659906D01*
X161391218Y-95822355D01*
X161605613Y-95865001D01*
X161678001Y-95879400D01*
X161750389Y-95865001D01*
X163751663Y-95865001D01*
X163701161Y-95940582D01*
X163585908Y-96520000D01*
X163701161Y-97099418D01*
X164029375Y-97590625D01*
X164327761Y-97790000D01*
X164029375Y-97989375D01*
X163701161Y-98480582D01*
X163585908Y-99060000D01*
X163701161Y-99639418D01*
X164029375Y-100130625D01*
X164327761Y-100330000D01*
X164029375Y-100529375D01*
X163701161Y-101020582D01*
X163585908Y-101600000D01*
X163701161Y-102179418D01*
X164029375Y-102670625D01*
X164327761Y-102870000D01*
X164029375Y-103069375D01*
X163701161Y-103560582D01*
X163585908Y-104140000D01*
X163701161Y-104719418D01*
X164029375Y-105210625D01*
X164520582Y-105538839D01*
X164953744Y-105625000D01*
X165246256Y-105625000D01*
X165679418Y-105538839D01*
X166170625Y-105210625D01*
X166498839Y-104719418D01*
X166614092Y-104140000D01*
X166498839Y-103560582D01*
X166170625Y-103069375D01*
X165872239Y-102870000D01*
X166170625Y-102670625D01*
X166498839Y-102179418D01*
X166614092Y-101600000D01*
X166498839Y-101020582D01*
X166170625Y-100529375D01*
X165872239Y-100330000D01*
X166170625Y-100130625D01*
X166498839Y-99639418D01*
X166614092Y-99060000D01*
X166498839Y-98480582D01*
X166170625Y-97989375D01*
X165872239Y-97790000D01*
X166170625Y-97590625D01*
X166498839Y-97099418D01*
X166614092Y-96520000D01*
X166498839Y-95940582D01*
X166251314Y-95570134D01*
X166718539Y-95102910D01*
X166779906Y-95061906D01*
X166942355Y-94818784D01*
X166985001Y-94604389D01*
X166985001Y-94604388D01*
X166999400Y-94532001D01*
X166985001Y-94459613D01*
X166985001Y-90122385D01*
X166999399Y-90050001D01*
X166985001Y-89977617D01*
X166985001Y-89977613D01*
X166942355Y-89763218D01*
X166779906Y-89520096D01*
X166718536Y-89479090D01*
X166535343Y-89295897D01*
X166614092Y-88900000D01*
X166498839Y-88320582D01*
X166170625Y-87829375D01*
X165872239Y-87630000D01*
X166170625Y-87430625D01*
X166498839Y-86939418D01*
X166614092Y-86360000D01*
X166498839Y-85780582D01*
X166170625Y-85289375D01*
X165872239Y-85090000D01*
X166170625Y-84890625D01*
X166498839Y-84399418D01*
X166614092Y-83820000D01*
X166498839Y-83240582D01*
X166170625Y-82749375D01*
X165872239Y-82550000D01*
X166170625Y-82350625D01*
X166498839Y-81859418D01*
X166614092Y-81280000D01*
X166498839Y-80700582D01*
X166251314Y-80330134D01*
X166718539Y-79862910D01*
X166779906Y-79821906D01*
X166942355Y-79578784D01*
X166985001Y-79364389D01*
X166985001Y-79364386D01*
X166999399Y-79292002D01*
X166985001Y-79219618D01*
X166985001Y-64722385D01*
X166999399Y-64650001D01*
X166985001Y-64577617D01*
X166985001Y-64577613D01*
X166942355Y-64363218D01*
X166779906Y-64120096D01*
X166718536Y-64079090D01*
X166535343Y-63895897D01*
X166614092Y-63500000D01*
X166498839Y-62920582D01*
X166170625Y-62429375D01*
X165872239Y-62230000D01*
X166170625Y-62030625D01*
X166498839Y-61539418D01*
X166614092Y-60960000D01*
X166535343Y-60564103D01*
X166718536Y-60380910D01*
X166779906Y-60339904D01*
X166942355Y-60096782D01*
X166985001Y-59882387D01*
X166985001Y-59882383D01*
X166999399Y-59809999D01*
X166985001Y-59737615D01*
X166985001Y-54946641D01*
X167294887Y-55075000D01*
X167985113Y-55075000D01*
X168622799Y-54810862D01*
X169110862Y-54322799D01*
X169375000Y-53685113D01*
X169375000Y-52994887D01*
X169110862Y-52357201D01*
X168622799Y-51869138D01*
X167985113Y-51605000D01*
X167294887Y-51605000D01*
X166657201Y-51869138D01*
X166169138Y-52357201D01*
X165905000Y-52994887D01*
X165905000Y-53405552D01*
X165878913Y-53379465D01*
X165837907Y-53318095D01*
X165594785Y-53155646D01*
X165380390Y-53113000D01*
X165380386Y-53113000D01*
X165308002Y-53098602D01*
X165235618Y-53113000D01*
X157044384Y-53113000D01*
X156972000Y-53098602D01*
X156899616Y-53113000D01*
X156899612Y-53113000D01*
X156685217Y-53155646D01*
X156442095Y-53318095D01*
X156401090Y-53379463D01*
X155335897Y-54444657D01*
X155086256Y-54395000D01*
X154793744Y-54395000D01*
X154544103Y-54444656D01*
X151634446Y-51535000D01*
X169445001Y-51535000D01*
X169445000Y-109093000D01*
X161379137Y-109093000D01*
X161347354Y-108933217D01*
X161184905Y-108690095D01*
X160941783Y-108527646D01*
X160727388Y-108485000D01*
X160655000Y-108470601D01*
X160582612Y-108485000D01*
X141042388Y-108485000D01*
X140970000Y-108470601D01*
X140897612Y-108485000D01*
X140683217Y-108527646D01*
X140440095Y-108690095D01*
X140277646Y-108933217D01*
X140245863Y-109093000D01*
X132815000Y-109093000D01*
X132815000Y-106334887D01*
X132885000Y-106334887D01*
X132885000Y-107025113D01*
X133149138Y-107662799D01*
X133637201Y-108150862D01*
X134274887Y-108415000D01*
X134965113Y-108415000D01*
X135602799Y-108150862D01*
X136090862Y-107662799D01*
X136355000Y-107025113D01*
X136355000Y-106334887D01*
X165905000Y-106334887D01*
X165905000Y-107025113D01*
X166169138Y-107662799D01*
X166657201Y-108150862D01*
X167294887Y-108415000D01*
X167985113Y-108415000D01*
X168622799Y-108150862D01*
X169110862Y-107662799D01*
X169375000Y-107025113D01*
X169375000Y-106334887D01*
X169110862Y-105697201D01*
X168622799Y-105209138D01*
X167985113Y-104945000D01*
X167294887Y-104945000D01*
X166657201Y-105209138D01*
X166169138Y-105697201D01*
X165905000Y-106334887D01*
X136355000Y-106334887D01*
X136090862Y-105697201D01*
X135602799Y-105209138D01*
X134965113Y-104945000D01*
X134274887Y-104945000D01*
X133637201Y-105209138D01*
X133149138Y-105697201D01*
X132885000Y-106334887D01*
X132815000Y-106334887D01*
X132815000Y-51535000D01*
X138225551Y-51535000D01*
X136355000Y-53405552D01*
X136355000Y-53405552D01*
G37*
X136355000Y-53405552D02*
X136355000Y-52994887D01*
X136090862Y-52357201D01*
X135602799Y-51869138D01*
X134965113Y-51605000D01*
X134274887Y-51605000D01*
X133637201Y-51869138D01*
X133149138Y-52357201D01*
X132885000Y-52994887D01*
X132885000Y-53685113D01*
X133149138Y-54322799D01*
X133637201Y-54810862D01*
X134274887Y-55075000D01*
X134965113Y-55075000D01*
X135274999Y-54946641D01*
X135275000Y-62277610D01*
X135260601Y-62349999D01*
X135317645Y-62636781D01*
X135317646Y-62636782D01*
X135480095Y-62879904D01*
X135541462Y-62920908D01*
X135724657Y-63104103D01*
X135645908Y-63500000D01*
X135761161Y-64079418D01*
X136089375Y-64570625D01*
X136387761Y-64770000D01*
X136089375Y-64969375D01*
X135761161Y-65460582D01*
X135645908Y-66040000D01*
X135761161Y-66619418D01*
X136089375Y-67110625D01*
X136387761Y-67310000D01*
X136089375Y-67509375D01*
X135761161Y-68000582D01*
X135645908Y-68580000D01*
X135761161Y-69159418D01*
X136089375Y-69650625D01*
X136387761Y-69850000D01*
X136089375Y-70049375D01*
X135761161Y-70540582D01*
X135645908Y-71120000D01*
X135761161Y-71699418D01*
X136089375Y-72190625D01*
X136387761Y-72390000D01*
X136089375Y-72589375D01*
X135761161Y-73080582D01*
X135645908Y-73660000D01*
X135761161Y-74239418D01*
X136089375Y-74730625D01*
X136387761Y-74930000D01*
X136089375Y-75129375D01*
X135761161Y-75620582D01*
X135645908Y-76200000D01*
X135761161Y-76779418D01*
X136089375Y-77270625D01*
X136387761Y-77470000D01*
X136089375Y-77669375D01*
X135761161Y-78160582D01*
X135645908Y-78740000D01*
X135761161Y-79319418D01*
X136089375Y-79810625D01*
X136387761Y-80010000D01*
X136089375Y-80209375D01*
X135761161Y-80700582D01*
X135645908Y-81280000D01*
X135761161Y-81859418D01*
X136089375Y-82350625D01*
X136387761Y-82550000D01*
X136089375Y-82749375D01*
X135761161Y-83240582D01*
X135645908Y-83820000D01*
X135761161Y-84399418D01*
X136089375Y-84890625D01*
X136387761Y-85090000D01*
X136089375Y-85289375D01*
X135761161Y-85780582D01*
X135645908Y-86360000D01*
X135761161Y-86939418D01*
X136089375Y-87430625D01*
X136387761Y-87630000D01*
X136089375Y-87829375D01*
X135761161Y-88320582D01*
X135645908Y-88900000D01*
X135761161Y-89479418D01*
X136089375Y-89970625D01*
X136387761Y-90170000D01*
X136089375Y-90369375D01*
X135761161Y-90860582D01*
X135645908Y-91440000D01*
X135761161Y-92019418D01*
X136089375Y-92510625D01*
X136387761Y-92710000D01*
X136089375Y-92909375D01*
X135761161Y-93400582D01*
X135645908Y-93980000D01*
X135761161Y-94559418D01*
X136089375Y-95050625D01*
X136387761Y-95250000D01*
X136089375Y-95449375D01*
X135761161Y-95940582D01*
X135645908Y-96520000D01*
X135761161Y-97099418D01*
X136089375Y-97590625D01*
X136387761Y-97790000D01*
X136089375Y-97989375D01*
X135761161Y-98480582D01*
X135645908Y-99060000D01*
X135761161Y-99639418D01*
X136089375Y-100130625D01*
X136387761Y-100330000D01*
X136089375Y-100529375D01*
X135761161Y-101020582D01*
X135645908Y-101600000D01*
X135761161Y-102179418D01*
X136089375Y-102670625D01*
X136387761Y-102870000D01*
X136089375Y-103069375D01*
X135761161Y-103560582D01*
X135645908Y-104140000D01*
X135761161Y-104719418D01*
X136089375Y-105210625D01*
X136580582Y-105538839D01*
X137013744Y-105625000D01*
X137306256Y-105625000D01*
X137739418Y-105538839D01*
X138230625Y-105210625D01*
X138558839Y-104719418D01*
X138674092Y-104140000D01*
X138558839Y-103560582D01*
X138230625Y-103069375D01*
X137932239Y-102870000D01*
X138230625Y-102670625D01*
X138558839Y-102179418D01*
X138674092Y-101600000D01*
X138558839Y-101020582D01*
X138230625Y-100529375D01*
X137932239Y-100330000D01*
X138230625Y-100130625D01*
X138558839Y-99639418D01*
X138674092Y-99060000D01*
X138558839Y-98480582D01*
X138230625Y-97989375D01*
X137932239Y-97790000D01*
X138230625Y-97590625D01*
X138558839Y-97099418D01*
X138674092Y-96520000D01*
X138558839Y-95940582D01*
X138230625Y-95449375D01*
X137932239Y-95250000D01*
X138230625Y-95050625D01*
X138558839Y-94559418D01*
X138674092Y-93980000D01*
X138558839Y-93400582D01*
X138230625Y-92909375D01*
X137932239Y-92710000D01*
X138230625Y-92510625D01*
X138558839Y-92019418D01*
X138674092Y-91440000D01*
X138558839Y-90860582D01*
X138230625Y-90369375D01*
X137932239Y-90170000D01*
X138230625Y-89970625D01*
X138558839Y-89479418D01*
X138674092Y-88900000D01*
X138558839Y-88320582D01*
X138230625Y-87829375D01*
X137932239Y-87630000D01*
X138230625Y-87430625D01*
X138558839Y-86939418D01*
X138674092Y-86360000D01*
X138558839Y-85780582D01*
X138230625Y-85289375D01*
X137932239Y-85090000D01*
X138230625Y-84890625D01*
X138558839Y-84399418D01*
X138674092Y-83820000D01*
X138558839Y-83240582D01*
X138230625Y-82749375D01*
X137932239Y-82550000D01*
X138230625Y-82350625D01*
X138558839Y-81859418D01*
X138674092Y-81280000D01*
X138558839Y-80700582D01*
X138230625Y-80209375D01*
X137932239Y-80010000D01*
X138230625Y-79810625D01*
X138558839Y-79319418D01*
X138674092Y-78740000D01*
X138558839Y-78160582D01*
X138230625Y-77669375D01*
X137932239Y-77470000D01*
X138230625Y-77270625D01*
X138558839Y-76779418D01*
X138674092Y-76200000D01*
X138558839Y-75620582D01*
X138230625Y-75129375D01*
X137932239Y-74930000D01*
X138230625Y-74730625D01*
X138558839Y-74239418D01*
X138674092Y-73660000D01*
X138558839Y-73080582D01*
X138230625Y-72589375D01*
X137932239Y-72390000D01*
X138230625Y-72190625D01*
X138558839Y-71699418D01*
X138674092Y-71120000D01*
X138558839Y-70540582D01*
X138230625Y-70049375D01*
X137932239Y-69850000D01*
X138230625Y-69650625D01*
X138558839Y-69159418D01*
X138674092Y-68580000D01*
X138558839Y-68000582D01*
X138230625Y-67509375D01*
X137932239Y-67310000D01*
X138230625Y-67110625D01*
X138558839Y-66619418D01*
X138674092Y-66040000D01*
X138558839Y-65460582D01*
X138230625Y-64969375D01*
X137932239Y-64770000D01*
X138230625Y-64570625D01*
X138430000Y-64272239D01*
X138629375Y-64570625D01*
X139120582Y-64898839D01*
X139553744Y-64985000D01*
X139846256Y-64985000D01*
X140279418Y-64898839D01*
X140770625Y-64570625D01*
X141098839Y-64079418D01*
X141214092Y-63500000D01*
X141098839Y-62920582D01*
X140770625Y-62429375D01*
X140752381Y-62417184D01*
X140797765Y-62408157D01*
X141007809Y-62267809D01*
X141148157Y-62057765D01*
X141197440Y-61810000D01*
X141197440Y-60110000D01*
X141148157Y-59862235D01*
X141007809Y-59652191D01*
X140797765Y-59511843D01*
X140550000Y-59462560D01*
X138850000Y-59462560D01*
X138602235Y-59511843D01*
X138392191Y-59652191D01*
X138251843Y-59862235D01*
X138242816Y-59907619D01*
X138230625Y-59889375D01*
X137911522Y-59676157D01*
X138041358Y-59615183D01*
X138431645Y-59186924D01*
X138601476Y-58776890D01*
X138480155Y-58547000D01*
X137287000Y-58547000D01*
X137287000Y-58567000D01*
X137033000Y-58567000D01*
X137033000Y-58547000D01*
X137013000Y-58547000D01*
X137013000Y-58293000D01*
X137033000Y-58293000D01*
X137033000Y-56007000D01*
X137287000Y-56007000D01*
X137287000Y-58293000D01*
X138480155Y-58293000D01*
X138601476Y-58063110D01*
X138431645Y-57653076D01*
X138160122Y-57355136D01*
X138369698Y-57268327D01*
X138548327Y-57089699D01*
X138645000Y-56856310D01*
X138645000Y-56587000D01*
X139695000Y-56587000D01*
X139695000Y-56862000D01*
X139847125Y-57372782D01*
X140183138Y-57786467D01*
X140651884Y-58040076D01*
X140717742Y-58052519D01*
X140928000Y-57929518D01*
X140928000Y-56587000D01*
X141182000Y-56587000D01*
X141182000Y-57929518D01*
X141392258Y-58052519D01*
X141458116Y-58040076D01*
X141926862Y-57786467D01*
X142262875Y-57372782D01*
X142415000Y-56862000D01*
X142415000Y-56587000D01*
X147145000Y-56587000D01*
X147145000Y-56862000D01*
X147297125Y-57372782D01*
X147633138Y-57786467D01*
X148101884Y-58040076D01*
X148167742Y-58052519D01*
X148378000Y-57929518D01*
X148378000Y-56587000D01*
X148632000Y-56587000D01*
X148632000Y-57929518D01*
X148842258Y-58052519D01*
X148908116Y-58040076D01*
X149376862Y-57786467D01*
X149712875Y-57372782D01*
X149865000Y-56862000D01*
X149865000Y-56587000D01*
X148632000Y-56587000D01*
X148378000Y-56587000D01*
X147145000Y-56587000D01*
X142415000Y-56587000D01*
X141182000Y-56587000D01*
X140928000Y-56587000D01*
X139695000Y-56587000D01*
X138645000Y-56587000D01*
X138645000Y-56165750D01*
X138537250Y-56058000D01*
X139695000Y-56058000D01*
X139695000Y-56333000D01*
X140928000Y-56333000D01*
X140928000Y-54990482D01*
X141182000Y-54990482D01*
X141182000Y-56333000D01*
X141798417Y-56333000D01*
X141876163Y-56384948D01*
X142178065Y-56445000D01*
X142381935Y-56445000D01*
X142683837Y-56384948D01*
X143026193Y-56156193D01*
X143254948Y-55813837D01*
X143335276Y-55410000D01*
X146224724Y-55410000D01*
X146305052Y-55813837D01*
X146533807Y-56156193D01*
X146876163Y-56384948D01*
X147178065Y-56445000D01*
X147381935Y-56445000D01*
X147683837Y-56384948D01*
X147761583Y-56333000D01*
X148378000Y-56333000D01*
X148378000Y-54990482D01*
X148632000Y-54990482D01*
X148632000Y-56333000D01*
X149865000Y-56333000D01*
X149865000Y-56058000D01*
X149712875Y-55547218D01*
X149376862Y-55133533D01*
X148908116Y-54879924D01*
X148842258Y-54867481D01*
X148632000Y-54990482D01*
X148378000Y-54990482D01*
X148167742Y-54867481D01*
X148162895Y-54868397D01*
X148026193Y-54663807D01*
X147683837Y-54435052D01*
X147381935Y-54375000D01*
X147178065Y-54375000D01*
X146876163Y-54435052D01*
X146533807Y-54663807D01*
X146305052Y-55006163D01*
X146224724Y-55410000D01*
X143335276Y-55410000D01*
X143254948Y-55006163D01*
X143026193Y-54663807D01*
X142683837Y-54435052D01*
X142381935Y-54375000D01*
X142178065Y-54375000D01*
X141876163Y-54435052D01*
X141533807Y-54663807D01*
X141397105Y-54868397D01*
X141392258Y-54867481D01*
X141182000Y-54990482D01*
X140928000Y-54990482D01*
X140717742Y-54867481D01*
X140651884Y-54879924D01*
X140183138Y-55133533D01*
X139847125Y-55547218D01*
X139695000Y-56058000D01*
X138537250Y-56058000D01*
X138486250Y-56007000D01*
X137287000Y-56007000D01*
X137033000Y-56007000D01*
X137013000Y-56007000D01*
X137013000Y-55753000D01*
X137033000Y-55753000D01*
X137033000Y-55733000D01*
X137287000Y-55733000D01*
X137287000Y-55753000D01*
X138486250Y-55753000D01*
X138645000Y-55594250D01*
X138645000Y-54903690D01*
X138548327Y-54670301D01*
X138369698Y-54491673D01*
X138136309Y-54395000D01*
X137445750Y-54395000D01*
X137287002Y-54553748D01*
X137287002Y-54552442D01*
X139052444Y-52787000D01*
X139695000Y-52787000D01*
X139695000Y-53112000D01*
X139835707Y-53565380D01*
X140139204Y-53930402D01*
X140559286Y-54151495D01*
X140591323Y-54153635D01*
X140778000Y-54028550D01*
X140778000Y-52787000D01*
X141032000Y-52787000D01*
X141032000Y-54028550D01*
X141218677Y-54153635D01*
X141250714Y-54151495D01*
X141670796Y-53930402D01*
X141974293Y-53565380D01*
X142115000Y-53112000D01*
X142115000Y-52787000D01*
X147445000Y-52787000D01*
X147445000Y-53112000D01*
X147585707Y-53565380D01*
X147889204Y-53930402D01*
X148309286Y-54151495D01*
X148341323Y-54153635D01*
X148528000Y-54028550D01*
X148528000Y-52787000D01*
X148782000Y-52787000D01*
X148782000Y-54028550D01*
X148968677Y-54153635D01*
X149000714Y-54151495D01*
X149420796Y-53930402D01*
X149724293Y-53565380D01*
X149865000Y-53112000D01*
X149865000Y-52787000D01*
X148782000Y-52787000D01*
X148528000Y-52787000D01*
X147445000Y-52787000D01*
X142115000Y-52787000D01*
X141032000Y-52787000D01*
X140778000Y-52787000D01*
X139695000Y-52787000D01*
X139052444Y-52787000D01*
X139644455Y-52194990D01*
X139699038Y-52194990D01*
X139695000Y-52208000D01*
X139695000Y-52533000D01*
X140778000Y-52533000D01*
X140778000Y-52513000D01*
X141032000Y-52513000D01*
X141032000Y-52533000D01*
X142115000Y-52533000D01*
X142115000Y-52208000D01*
X142110962Y-52194990D01*
X147449038Y-52194990D01*
X147445000Y-52208000D01*
X147445000Y-52533000D01*
X148528000Y-52533000D01*
X148528000Y-52513000D01*
X148782000Y-52513000D01*
X148782000Y-52533000D01*
X149865000Y-52533000D01*
X149865000Y-52208000D01*
X149860962Y-52194990D01*
X150215544Y-52194990D01*
X152415553Y-54395000D01*
X152253744Y-54395000D01*
X151820582Y-54481161D01*
X151329375Y-54809375D01*
X151001161Y-55300582D01*
X150885908Y-55880000D01*
X151001161Y-56459418D01*
X151329375Y-56950625D01*
X151820582Y-57278839D01*
X152253744Y-57365000D01*
X152415554Y-57365000D01*
X151931463Y-57849091D01*
X151870096Y-57890095D01*
X151829092Y-57951462D01*
X151829091Y-57951463D01*
X151707646Y-58133218D01*
X151650602Y-58420000D01*
X151665001Y-58492389D01*
X151665000Y-60317615D01*
X151650602Y-60390000D01*
X151665000Y-60462384D01*
X151665000Y-60462387D01*
X151707646Y-60676782D01*
X151870095Y-60919905D01*
X151931465Y-60960911D01*
X152399090Y-61428537D01*
X152440095Y-61489905D01*
X152542060Y-61558036D01*
X152571843Y-61707765D01*
X152712191Y-61917809D01*
X152922235Y-62058157D01*
X153170000Y-62107440D01*
X154170000Y-62107440D01*
X154417765Y-62058157D01*
X154505817Y-61999322D01*
X154638126Y-62054119D01*
X154813000Y-61927954D01*
X154813000Y-61482322D01*
X154817440Y-61460000D01*
X154817440Y-61087000D01*
X155067000Y-61087000D01*
X155067000Y-61927954D01*
X155241874Y-62054119D01*
X155500209Y-61947127D01*
X155575000Y-61882511D01*
X155649791Y-61947127D01*
X155908126Y-62054119D01*
X156083000Y-61927954D01*
X156083000Y-61087000D01*
X155067000Y-61087000D01*
X154817440Y-61087000D01*
X154817440Y-60822856D01*
X154828217Y-60825000D01*
X155051783Y-60825000D01*
X155067000Y-60821973D01*
X155067000Y-60833000D01*
X156083000Y-60833000D01*
X156083000Y-60821973D01*
X156098217Y-60825000D01*
X156321783Y-60825000D01*
X156337000Y-60821973D01*
X156337000Y-60833000D01*
X156348027Y-60833000D01*
X156322765Y-60960000D01*
X156348027Y-61087000D01*
X156337000Y-61087000D01*
X156337000Y-61927954D01*
X156511874Y-62054119D01*
X156770209Y-61947127D01*
X156833090Y-61892801D01*
X157037145Y-62029146D01*
X157368217Y-62095000D01*
X157591783Y-62095000D01*
X157922855Y-62029146D01*
X158126910Y-61892801D01*
X158189791Y-61947127D01*
X158448126Y-62054119D01*
X158623000Y-61927954D01*
X158623000Y-61087000D01*
X158611973Y-61087000D01*
X158637235Y-60960000D01*
X158611973Y-60833000D01*
X158623000Y-60833000D01*
X158623000Y-60821973D01*
X158638217Y-60825000D01*
X158845554Y-60825000D01*
X158897000Y-60876446D01*
X158897000Y-61087000D01*
X158877000Y-61087000D01*
X158877000Y-61927954D01*
X159051874Y-62054119D01*
X159310209Y-61947127D01*
X159539001Y-61749461D01*
X159539000Y-68353000D01*
X153763711Y-68353000D01*
X153621280Y-68210569D01*
X153240874Y-68053000D01*
X152829126Y-68053000D01*
X152448720Y-68210569D01*
X152157569Y-68501720D01*
X152000000Y-68882126D01*
X152000000Y-69053001D01*
X150737448Y-69053001D01*
X143910000Y-62225554D01*
X143910000Y-62024126D01*
X143752431Y-61643720D01*
X143461280Y-61352569D01*
X143080874Y-61195000D01*
X142669126Y-61195000D01*
X142288720Y-61352569D01*
X141997569Y-61643720D01*
X141840000Y-62024126D01*
X141840000Y-62435874D01*
X141997569Y-62816280D01*
X142288720Y-63107431D01*
X142669126Y-63265000D01*
X142870554Y-63265000D01*
X149862092Y-70256539D01*
X149903096Y-70317906D01*
X150146218Y-70480355D01*
X150360613Y-70523001D01*
X150433001Y-70537400D01*
X150505389Y-70523001D01*
X152422288Y-70523001D01*
X152211028Y-70734261D01*
X152189603Y-70745713D01*
X152108104Y-70800169D01*
X152009994Y-70880686D01*
X151940686Y-70949994D01*
X151907854Y-70990000D01*
X145517383Y-70990000D01*
X145444999Y-70975602D01*
X145372615Y-70990000D01*
X145372612Y-70990000D01*
X145158217Y-71032646D01*
X144915095Y-71195095D01*
X144874090Y-71256463D01*
X144775553Y-71355000D01*
X144574126Y-71355000D01*
X144193720Y-71512569D01*
X143902569Y-71803720D01*
X143745000Y-72184126D01*
X143745000Y-72595874D01*
X143902569Y-72976280D01*
X144193720Y-73267431D01*
X144574126Y-73425000D01*
X144985874Y-73425000D01*
X145366280Y-73267431D01*
X145657431Y-72976280D01*
X145815000Y-72595874D01*
X145815000Y-72460000D01*
X151650489Y-72460000D01*
X151637560Y-72525000D01*
X151637560Y-73025000D01*
X151639968Y-73037106D01*
X151639968Y-73074009D01*
X151652408Y-73200318D01*
X151671530Y-73296451D01*
X151683766Y-73336787D01*
X145361466Y-79659088D01*
X145300096Y-79700094D01*
X145137647Y-79943217D01*
X145095001Y-80157612D01*
X145095001Y-80157615D01*
X145080603Y-80229999D01*
X145095001Y-80302383D01*
X145095002Y-94451287D01*
X144952570Y-94593719D01*
X144795001Y-94974125D01*
X144795001Y-95385873D01*
X144952570Y-95766279D01*
X145243721Y-96057430D01*
X145624127Y-96214999D01*
X146035875Y-96214999D01*
X146416281Y-96057430D01*
X146707432Y-95766279D01*
X146865001Y-95385873D01*
X146865001Y-94974125D01*
X146707432Y-94593719D01*
X146565001Y-94451288D01*
X146565001Y-80534445D01*
X152927007Y-74172440D01*
X153285000Y-74172440D01*
X153297106Y-74170032D01*
X153334009Y-74170032D01*
X153460318Y-74157592D01*
X153556451Y-74138470D01*
X153677904Y-74101628D01*
X153768460Y-74064119D01*
X153880397Y-74004287D01*
X153961896Y-73949831D01*
X154060006Y-73869314D01*
X154129314Y-73800006D01*
X154209831Y-73701896D01*
X154264287Y-73620397D01*
X154324119Y-73508460D01*
X154361628Y-73417904D01*
X154398470Y-73296451D01*
X154417592Y-73200318D01*
X154430032Y-73074009D01*
X154430032Y-73037106D01*
X154432440Y-73025000D01*
X154432440Y-72525000D01*
X154402603Y-72375000D01*
X154432440Y-72225000D01*
X154432440Y-71725000D01*
X154430032Y-71712894D01*
X154430032Y-71675991D01*
X154417592Y-71549682D01*
X154398470Y-71453549D01*
X154361628Y-71332096D01*
X154324119Y-71241540D01*
X154264287Y-71129603D01*
X154209831Y-71048104D01*
X154129314Y-70949994D01*
X154060006Y-70880686D01*
X153961896Y-70800169D01*
X153880397Y-70745713D01*
X153858972Y-70734261D01*
X153647712Y-70523001D01*
X160537617Y-70523001D01*
X160610001Y-70537399D01*
X160682385Y-70523001D01*
X160682389Y-70523001D01*
X160896784Y-70480355D01*
X161139906Y-70317906D01*
X161180912Y-70256536D01*
X163028538Y-68408911D01*
X163089905Y-68367907D01*
X163252354Y-68124785D01*
X163295000Y-67910390D01*
X163295000Y-67910387D01*
X163309398Y-67838003D01*
X163295000Y-67765619D01*
X163295000Y-64794882D01*
X163630625Y-64570625D01*
X163830000Y-64272239D01*
X164029375Y-64570625D01*
X164327761Y-64770000D01*
X164029375Y-64969375D01*
X163701161Y-65460582D01*
X163585908Y-66040000D01*
X163701161Y-66619418D01*
X164029375Y-67110625D01*
X164327761Y-67310000D01*
X164029375Y-67509375D01*
X163701161Y-68000582D01*
X163585908Y-68580000D01*
X163701161Y-69159418D01*
X163816507Y-69332046D01*
X147823554Y-85325000D01*
X147622126Y-85325000D01*
X147241720Y-85482569D01*
X146950569Y-85773720D01*
X146793000Y-86154126D01*
X146793000Y-86565874D01*
X146950569Y-86946280D01*
X147241720Y-87237431D01*
X147622126Y-87395000D01*
X148033874Y-87395000D01*
X148414280Y-87237431D01*
X148705431Y-86946280D01*
X148863000Y-86565874D01*
X148863000Y-86364446D01*
X163672437Y-71555010D01*
X163701161Y-71699418D01*
X164029375Y-72190625D01*
X164327761Y-72390000D01*
X164029375Y-72589375D01*
X163701161Y-73080582D01*
X163585908Y-73660000D01*
X163701161Y-74239418D01*
X164029375Y-74730625D01*
X164327761Y-74930000D01*
X164029375Y-75129375D01*
X163701161Y-75620582D01*
X163585908Y-76200000D01*
X163701161Y-76779418D01*
X164029375Y-77270625D01*
X164327761Y-77470000D01*
X164029375Y-77669375D01*
X163701161Y-78160582D01*
X163585908Y-78740000D01*
X163701161Y-79319418D01*
X163826784Y-79507426D01*
X163688096Y-79600094D01*
X163647092Y-79661461D01*
X157983554Y-85325000D01*
X157782126Y-85325000D01*
X157401720Y-85482569D01*
X157110569Y-85773720D01*
X156953000Y-86154126D01*
X156953000Y-86565874D01*
X157110569Y-86946280D01*
X157401720Y-87237431D01*
X157782126Y-87395000D01*
X158193874Y-87395000D01*
X158574280Y-87237431D01*
X158865431Y-86946280D01*
X159023000Y-86565874D01*
X159023000Y-86364446D01*
X163672437Y-81715010D01*
X163701161Y-81859418D01*
X164029375Y-82350625D01*
X164327761Y-82550000D01*
X164029375Y-82749375D01*
X163701161Y-83240582D01*
X163585908Y-83820000D01*
X163701161Y-84399418D01*
X164029375Y-84890625D01*
X164327761Y-85090000D01*
X164029375Y-85289375D01*
X163701161Y-85780582D01*
X163585908Y-86360000D01*
X163701161Y-86939418D01*
X164029375Y-87430625D01*
X164327761Y-87630000D01*
X164029375Y-87829375D01*
X163701161Y-88320582D01*
X163585908Y-88900000D01*
X163701161Y-89479418D01*
X164029375Y-89970625D01*
X164327761Y-90170000D01*
X164029375Y-90369375D01*
X163701161Y-90860582D01*
X163585908Y-91440000D01*
X163701161Y-92019418D01*
X164029375Y-92510625D01*
X164327761Y-92710000D01*
X164029375Y-92909375D01*
X163701161Y-93400582D01*
X163585908Y-93980000D01*
X163668457Y-94395001D01*
X161982448Y-94395001D01*
X160775600Y-93188154D01*
X160775600Y-92986726D01*
X160618031Y-92606320D01*
X160326880Y-92315169D01*
X159946474Y-92157600D01*
X159534726Y-92157600D01*
X159154320Y-92315169D01*
X158863169Y-92606320D01*
X158705600Y-92986726D01*
X158705600Y-93398474D01*
X158863169Y-93778880D01*
X159154320Y-94070031D01*
X159534726Y-94227600D01*
X159736154Y-94227600D01*
X161107091Y-95598538D01*
X161148096Y-95659906D01*
X161391218Y-95822355D01*
X161605613Y-95865001D01*
X161678001Y-95879400D01*
X161750389Y-95865001D01*
X163751663Y-95865001D01*
X163701161Y-95940582D01*
X163585908Y-96520000D01*
X163701161Y-97099418D01*
X164029375Y-97590625D01*
X164327761Y-97790000D01*
X164029375Y-97989375D01*
X163701161Y-98480582D01*
X163585908Y-99060000D01*
X163701161Y-99639418D01*
X164029375Y-100130625D01*
X164327761Y-100330000D01*
X164029375Y-100529375D01*
X163701161Y-101020582D01*
X163585908Y-101600000D01*
X163701161Y-102179418D01*
X164029375Y-102670625D01*
X164327761Y-102870000D01*
X164029375Y-103069375D01*
X163701161Y-103560582D01*
X163585908Y-104140000D01*
X163701161Y-104719418D01*
X164029375Y-105210625D01*
X164520582Y-105538839D01*
X164953744Y-105625000D01*
X165246256Y-105625000D01*
X165679418Y-105538839D01*
X166170625Y-105210625D01*
X166498839Y-104719418D01*
X166614092Y-104140000D01*
X166498839Y-103560582D01*
X166170625Y-103069375D01*
X165872239Y-102870000D01*
X166170625Y-102670625D01*
X166498839Y-102179418D01*
X166614092Y-101600000D01*
X166498839Y-101020582D01*
X166170625Y-100529375D01*
X165872239Y-100330000D01*
X166170625Y-100130625D01*
X166498839Y-99639418D01*
X166614092Y-99060000D01*
X166498839Y-98480582D01*
X166170625Y-97989375D01*
X165872239Y-97790000D01*
X166170625Y-97590625D01*
X166498839Y-97099418D01*
X166614092Y-96520000D01*
X166498839Y-95940582D01*
X166251314Y-95570134D01*
X166718539Y-95102910D01*
X166779906Y-95061906D01*
X166942355Y-94818784D01*
X166985001Y-94604389D01*
X166985001Y-94604388D01*
X166999400Y-94532001D01*
X166985001Y-94459613D01*
X166985001Y-90122385D01*
X166999399Y-90050001D01*
X166985001Y-89977617D01*
X166985001Y-89977613D01*
X166942355Y-89763218D01*
X166779906Y-89520096D01*
X166718536Y-89479090D01*
X166535343Y-89295897D01*
X166614092Y-88900000D01*
X166498839Y-88320582D01*
X166170625Y-87829375D01*
X165872239Y-87630000D01*
X166170625Y-87430625D01*
X166498839Y-86939418D01*
X166614092Y-86360000D01*
X166498839Y-85780582D01*
X166170625Y-85289375D01*
X165872239Y-85090000D01*
X166170625Y-84890625D01*
X166498839Y-84399418D01*
X166614092Y-83820000D01*
X166498839Y-83240582D01*
X166170625Y-82749375D01*
X165872239Y-82550000D01*
X166170625Y-82350625D01*
X166498839Y-81859418D01*
X166614092Y-81280000D01*
X166498839Y-80700582D01*
X166251314Y-80330134D01*
X166718539Y-79862910D01*
X166779906Y-79821906D01*
X166942355Y-79578784D01*
X166985001Y-79364389D01*
X166985001Y-79364386D01*
X166999399Y-79292002D01*
X166985001Y-79219618D01*
X166985001Y-64722385D01*
X166999399Y-64650001D01*
X166985001Y-64577617D01*
X166985001Y-64577613D01*
X166942355Y-64363218D01*
X166779906Y-64120096D01*
X166718536Y-64079090D01*
X166535343Y-63895897D01*
X166614092Y-63500000D01*
X166498839Y-62920582D01*
X166170625Y-62429375D01*
X165872239Y-62230000D01*
X166170625Y-62030625D01*
X166498839Y-61539418D01*
X166614092Y-60960000D01*
X166535343Y-60564103D01*
X166718536Y-60380910D01*
X166779906Y-60339904D01*
X166942355Y-60096782D01*
X166985001Y-59882387D01*
X166985001Y-59882383D01*
X166999399Y-59809999D01*
X166985001Y-59737615D01*
X166985001Y-54946641D01*
X167294887Y-55075000D01*
X167985113Y-55075000D01*
X168622799Y-54810862D01*
X169110862Y-54322799D01*
X169375000Y-53685113D01*
X169375000Y-52994887D01*
X169110862Y-52357201D01*
X168622799Y-51869138D01*
X167985113Y-51605000D01*
X167294887Y-51605000D01*
X166657201Y-51869138D01*
X166169138Y-52357201D01*
X165905000Y-52994887D01*
X165905000Y-53405552D01*
X165878913Y-53379465D01*
X165837907Y-53318095D01*
X165594785Y-53155646D01*
X165380390Y-53113000D01*
X165380386Y-53113000D01*
X165308002Y-53098602D01*
X165235618Y-53113000D01*
X157044384Y-53113000D01*
X156972000Y-53098602D01*
X156899616Y-53113000D01*
X156899612Y-53113000D01*
X156685217Y-53155646D01*
X156442095Y-53318095D01*
X156401090Y-53379463D01*
X155335897Y-54444657D01*
X155086256Y-54395000D01*
X154793744Y-54395000D01*
X154544103Y-54444656D01*
X151634446Y-51535000D01*
X169445001Y-51535000D01*
X169445000Y-109093000D01*
X161379137Y-109093000D01*
X161347354Y-108933217D01*
X161184905Y-108690095D01*
X160941783Y-108527646D01*
X160727388Y-108485000D01*
X160655000Y-108470601D01*
X160582612Y-108485000D01*
X141042388Y-108485000D01*
X140970000Y-108470601D01*
X140897612Y-108485000D01*
X140683217Y-108527646D01*
X140440095Y-108690095D01*
X140277646Y-108933217D01*
X140245863Y-109093000D01*
X132815000Y-109093000D01*
X132815000Y-106334887D01*
X132885000Y-106334887D01*
X132885000Y-107025113D01*
X133149138Y-107662799D01*
X133637201Y-108150862D01*
X134274887Y-108415000D01*
X134965113Y-108415000D01*
X135602799Y-108150862D01*
X136090862Y-107662799D01*
X136355000Y-107025113D01*
X136355000Y-106334887D01*
X165905000Y-106334887D01*
X165905000Y-107025113D01*
X166169138Y-107662799D01*
X166657201Y-108150862D01*
X167294887Y-108415000D01*
X167985113Y-108415000D01*
X168622799Y-108150862D01*
X169110862Y-107662799D01*
X169375000Y-107025113D01*
X169375000Y-106334887D01*
X169110862Y-105697201D01*
X168622799Y-105209138D01*
X167985113Y-104945000D01*
X167294887Y-104945000D01*
X166657201Y-105209138D01*
X166169138Y-105697201D01*
X165905000Y-106334887D01*
X136355000Y-106334887D01*
X136090862Y-105697201D01*
X135602799Y-105209138D01*
X134965113Y-104945000D01*
X134274887Y-104945000D01*
X133637201Y-105209138D01*
X133149138Y-105697201D01*
X132885000Y-106334887D01*
X132815000Y-106334887D01*
X132815000Y-51535000D01*
X138225551Y-51535000D01*
X136355000Y-53405552D01*
G36*
X165227000Y-55753000D02*
X165247000Y-55753000D01*
X165247000Y-56007000D01*
X165227000Y-56007000D01*
X165227000Y-58293000D01*
X165247000Y-58293000D01*
X165247000Y-58547000D01*
X165227000Y-58547000D01*
X165227000Y-58567000D01*
X164973000Y-58567000D01*
X164973000Y-58547000D01*
X163779845Y-58547000D01*
X163658524Y-58776890D01*
X163828355Y-59186924D01*
X164218642Y-59615183D01*
X164348478Y-59676157D01*
X164029375Y-59889375D01*
X164017184Y-59907619D01*
X164008157Y-59862235D01*
X163867809Y-59652191D01*
X163657765Y-59511843D01*
X163410000Y-59462560D01*
X161710000Y-59462560D01*
X161462235Y-59511843D01*
X161252191Y-59652191D01*
X161111843Y-59862235D01*
X161062560Y-60110000D01*
X161062560Y-61810000D01*
X161111843Y-62057765D01*
X161252191Y-62267809D01*
X161462235Y-62408157D01*
X161507619Y-62417184D01*
X161489375Y-62429375D01*
X161161161Y-62920582D01*
X161045908Y-63500000D01*
X161161161Y-64079418D01*
X161489375Y-64570625D01*
X161825001Y-64794883D01*
X161825000Y-67533555D01*
X161009000Y-68349556D01*
X161009000Y-61286383D01*
X161023398Y-61213999D01*
X161009000Y-61141615D01*
X161009000Y-61141612D01*
X160966354Y-60927217D01*
X160803905Y-60684095D01*
X160742537Y-60643090D01*
X159887693Y-59788246D01*
X159907235Y-59690000D01*
X159894306Y-59624999D01*
X160527617Y-59624999D01*
X160600001Y-59639397D01*
X160672385Y-59624999D01*
X160672389Y-59624999D01*
X160886784Y-59582353D01*
X161129906Y-59419904D01*
X161170912Y-59358534D01*
X163028538Y-57500909D01*
X163089905Y-57459905D01*
X163145006Y-57377440D01*
X163410000Y-57377440D01*
X163657765Y-57328157D01*
X163833025Y-57211051D01*
X163890302Y-57268327D01*
X164099878Y-57355136D01*
X163828355Y-57653076D01*
X163658524Y-58063110D01*
X163779845Y-58293000D01*
X164973000Y-58293000D01*
X164973000Y-56007000D01*
X164953000Y-56007000D01*
X164953000Y-55753000D01*
X164973000Y-55753000D01*
X164973000Y-55733000D01*
X165227000Y-55733000D01*
X165227000Y-55753000D01*
X165227000Y-55753000D01*
G37*
X165227000Y-55753000D02*
X165247000Y-55753000D01*
X165247000Y-56007000D01*
X165227000Y-56007000D01*
X165227000Y-58293000D01*
X165247000Y-58293000D01*
X165247000Y-58547000D01*
X165227000Y-58547000D01*
X165227000Y-58567000D01*
X164973000Y-58567000D01*
X164973000Y-58547000D01*
X163779845Y-58547000D01*
X163658524Y-58776890D01*
X163828355Y-59186924D01*
X164218642Y-59615183D01*
X164348478Y-59676157D01*
X164029375Y-59889375D01*
X164017184Y-59907619D01*
X164008157Y-59862235D01*
X163867809Y-59652191D01*
X163657765Y-59511843D01*
X163410000Y-59462560D01*
X161710000Y-59462560D01*
X161462235Y-59511843D01*
X161252191Y-59652191D01*
X161111843Y-59862235D01*
X161062560Y-60110000D01*
X161062560Y-61810000D01*
X161111843Y-62057765D01*
X161252191Y-62267809D01*
X161462235Y-62408157D01*
X161507619Y-62417184D01*
X161489375Y-62429375D01*
X161161161Y-62920582D01*
X161045908Y-63500000D01*
X161161161Y-64079418D01*
X161489375Y-64570625D01*
X161825001Y-64794883D01*
X161825000Y-67533555D01*
X161009000Y-68349556D01*
X161009000Y-61286383D01*
X161023398Y-61213999D01*
X161009000Y-61141615D01*
X161009000Y-61141612D01*
X160966354Y-60927217D01*
X160803905Y-60684095D01*
X160742537Y-60643090D01*
X159887693Y-59788246D01*
X159907235Y-59690000D01*
X159894306Y-59624999D01*
X160527617Y-59624999D01*
X160600001Y-59639397D01*
X160672385Y-59624999D01*
X160672389Y-59624999D01*
X160886784Y-59582353D01*
X161129906Y-59419904D01*
X161170912Y-59358534D01*
X163028538Y-57500909D01*
X163089905Y-57459905D01*
X163145006Y-57377440D01*
X163410000Y-57377440D01*
X163657765Y-57328157D01*
X163833025Y-57211051D01*
X163890302Y-57268327D01*
X164099878Y-57355136D01*
X163828355Y-57653076D01*
X163658524Y-58063110D01*
X163779845Y-58293000D01*
X164973000Y-58293000D01*
X164973000Y-56007000D01*
X164953000Y-56007000D01*
X164953000Y-55753000D01*
X164973000Y-55753000D01*
X164973000Y-55733000D01*
X165227000Y-55733000D01*
X165227000Y-55753000D01*
G36*
X160147000Y-55753000D02*
X160167000Y-55753000D01*
X160167000Y-56007000D01*
X160147000Y-56007000D01*
X160147000Y-57200155D01*
X160376890Y-57321476D01*
X160786924Y-57151645D01*
X161091261Y-56874292D01*
X161111843Y-56977765D01*
X161252191Y-57187809D01*
X161258517Y-57192036D01*
X160295555Y-58154999D01*
X154542384Y-58154999D01*
X154470000Y-58140601D01*
X154397616Y-58154999D01*
X154397613Y-58154999D01*
X154183218Y-58197645D01*
X153940096Y-58360094D01*
X153899091Y-58421462D01*
X153765553Y-58555000D01*
X153558217Y-58555000D01*
X153241434Y-58618012D01*
X154544103Y-57315344D01*
X154793744Y-57365000D01*
X155086256Y-57365000D01*
X155519418Y-57278839D01*
X156010625Y-56950625D01*
X156210000Y-56652239D01*
X156409375Y-56950625D01*
X156900582Y-57278839D01*
X157333744Y-57365000D01*
X157626256Y-57365000D01*
X158059418Y-57278839D01*
X158550625Y-56950625D01*
X158763843Y-56631522D01*
X158824817Y-56761358D01*
X159253076Y-57151645D01*
X159663110Y-57321476D01*
X159893000Y-57200155D01*
X159893000Y-56007000D01*
X159873000Y-56007000D01*
X159873000Y-55753000D01*
X159893000Y-55753000D01*
X159893000Y-55733000D01*
X160147000Y-55733000D01*
X160147000Y-55753000D01*
X160147000Y-55753000D01*
G37*
X160147000Y-55753000D02*
X160167000Y-55753000D01*
X160167000Y-56007000D01*
X160147000Y-56007000D01*
X160147000Y-57200155D01*
X160376890Y-57321476D01*
X160786924Y-57151645D01*
X161091261Y-56874292D01*
X161111843Y-56977765D01*
X161252191Y-57187809D01*
X161258517Y-57192036D01*
X160295555Y-58154999D01*
X154542384Y-58154999D01*
X154470000Y-58140601D01*
X154397616Y-58154999D01*
X154397613Y-58154999D01*
X154183218Y-58197645D01*
X153940096Y-58360094D01*
X153899091Y-58421462D01*
X153765553Y-58555000D01*
X153558217Y-58555000D01*
X153241434Y-58618012D01*
X154544103Y-57315344D01*
X154793744Y-57365000D01*
X155086256Y-57365000D01*
X155519418Y-57278839D01*
X156010625Y-56950625D01*
X156210000Y-56652239D01*
X156409375Y-56950625D01*
X156900582Y-57278839D01*
X157333744Y-57365000D01*
X157626256Y-57365000D01*
X158059418Y-57278839D01*
X158550625Y-56950625D01*
X158763843Y-56631522D01*
X158824817Y-56761358D01*
X159253076Y-57151645D01*
X159663110Y-57321476D01*
X159893000Y-57200155D01*
X159893000Y-56007000D01*
X159873000Y-56007000D01*
X159873000Y-55753000D01*
X159893000Y-55753000D01*
X159893000Y-55733000D01*
X160147000Y-55733000D01*
X160147000Y-55753000D01*
G04 #@! TD*
M02*
